<?xml version="1.0" encoding="utf-8" standalone="no"?>
<!DOCTYPE svg PUBLIC "-//W3C//DTD SVG 1.1//EN"
  "http://www.w3.org/Graphics/SVG/1.1/DTD/svg11.dtd">
<svg xmlns:xlink="http://www.w3.org/1999/xlink" width="330.003125pt" height="325.755469pt" viewBox="0 0 330.003125 325.755469" xmlns="http://www.w3.org/2000/svg" version="1.1">
 <metadata>
  <rdf:RDF xmlns:dc="http://purl.org/dc/elements/1.1/" xmlns:cc="http://creativecommons.org/ns#" xmlns:rdf="http://www.w3.org/1999/02/22-rdf-syntax-ns#">
   <cc:Work>
    <dc:type rdf:resource="http://purl.org/dc/dcmitype/StillImage"/>
    <dc:date>2024-10-24T15:51:08.216358</dc:date>
    <dc:format>image/svg+xml</dc:format>
    <dc:creator>
     <cc:Agent>
      <dc:title>Matplotlib v3.8.3, https://matplotlib.org/</dc:title>
     </cc:Agent>
    </dc:creator>
   </cc:Work>
  </rdf:RDF>
 </metadata>
 <defs>
  <style type="text/css">*{stroke-linejoin: round; stroke-linecap: butt}</style>
 </defs>
 <g id="figure_1">
  <g id="patch_1">
   <path d="M 0 325.755469 
L 330.003125 325.755469 
L 330.003125 0 
L 0 0 
z
" style="fill: #ffffff"/>
  </g>
  <g id="axes_1">
   <g id="patch_2">
    <path d="M 43.803125 288.199219 
L 322.803125 288.199219 
L 322.803125 10.999219 
L 43.803125 10.999219 
z
" style="fill: #ffffff"/>
   </g>
   <g id="matplotlib.axis_1">
    <g id="xtick_1">
     <g id="line2d_1">
      <defs>
       <path id="me0d768fc11" d="M 0 0 
L 0 3.5 
" style="stroke: #000000; stroke-width: 0.8"/>
      </defs>
      <g>
       <use xlink:href="#me0d768fc11" x="46.294196" y="288.199219" style="stroke: #000000; stroke-width: 0.8"/>
      </g>
     </g>
     <g id="text_1">
      <!-- $x_0$ -->
      <g transform="translate(40.944196 302.797656) scale(0.1 -0.1)">
       <defs>
        <path id="DejaVuSans-Oblique-78" d="M 3841 3500 
L 2234 1784 
L 3219 0 
L 2559 0 
L 1819 1388 
L 531 0 
L -166 0 
L 1556 1844 
L 641 3500 
L 1300 3500 
L 1972 2234 
L 3144 3500 
L 3841 3500 
z
" transform="scale(0.015625)"/>
        <path id="DejaVuSans-30" d="M 2034 4250 
Q 1547 4250 1301 3770 
Q 1056 3291 1056 2328 
Q 1056 1369 1301 889 
Q 1547 409 2034 409 
Q 2525 409 2770 889 
Q 3016 1369 3016 2328 
Q 3016 3291 2770 3770 
Q 2525 4250 2034 4250 
z
M 2034 4750 
Q 2819 4750 3233 4129 
Q 3647 3509 3647 2328 
Q 3647 1150 3233 529 
Q 2819 -91 2034 -91 
Q 1250 -91 836 529 
Q 422 1150 422 2328 
Q 422 3509 836 4129 
Q 1250 4750 2034 4750 
z
" transform="scale(0.015625)"/>
       </defs>
       <use xlink:href="#DejaVuSans-Oblique-78" transform="translate(0 0.3125)"/>
       <use xlink:href="#DejaVuSans-30" transform="translate(59.179688 -16.09375) scale(0.7)"/>
      </g>
     </g>
    </g>
    <g id="xtick_2">
     <g id="line2d_2">
      <g>
       <use xlink:href="#me0d768fc11" x="71.204911" y="288.199219" style="stroke: #000000; stroke-width: 0.8"/>
      </g>
     </g>
     <g id="text_2">
      <!-- $x_1$ -->
      <g transform="translate(65.854911 302.797656) scale(0.1 -0.1)">
       <defs>
        <path id="DejaVuSans-31" d="M 794 531 
L 1825 531 
L 1825 4091 
L 703 3866 
L 703 4441 
L 1819 4666 
L 2450 4666 
L 2450 531 
L 3481 531 
L 3481 0 
L 794 0 
L 794 531 
z
" transform="scale(0.015625)"/>
       </defs>
       <use xlink:href="#DejaVuSans-Oblique-78" transform="translate(0 0.3125)"/>
       <use xlink:href="#DejaVuSans-31" transform="translate(59.179688 -16.09375) scale(0.7)"/>
      </g>
     </g>
    </g>
    <g id="xtick_3">
     <g id="line2d_3">
      <g>
       <use xlink:href="#me0d768fc11" x="96.115625" y="288.199219" style="stroke: #000000; stroke-width: 0.8"/>
      </g>
     </g>
     <g id="text_3">
      <!-- $x_2$ -->
      <g transform="translate(90.765625 302.797656) scale(0.1 -0.1)">
       <defs>
        <path id="DejaVuSans-32" d="M 1228 531 
L 3431 531 
L 3431 0 
L 469 0 
L 469 531 
Q 828 903 1448 1529 
Q 2069 2156 2228 2338 
Q 2531 2678 2651 2914 
Q 2772 3150 2772 3378 
Q 2772 3750 2511 3984 
Q 2250 4219 1831 4219 
Q 1534 4219 1204 4116 
Q 875 4013 500 3803 
L 500 4441 
Q 881 4594 1212 4672 
Q 1544 4750 1819 4750 
Q 2544 4750 2975 4387 
Q 3406 4025 3406 3419 
Q 3406 3131 3298 2873 
Q 3191 2616 2906 2266 
Q 2828 2175 2409 1742 
Q 1991 1309 1228 531 
z
" transform="scale(0.015625)"/>
       </defs>
       <use xlink:href="#DejaVuSans-Oblique-78" transform="translate(0 0.3125)"/>
       <use xlink:href="#DejaVuSans-32" transform="translate(59.179688 -16.09375) scale(0.7)"/>
      </g>
     </g>
    </g>
    <g id="xtick_4">
     <g id="line2d_4">
      <g>
       <use xlink:href="#me0d768fc11" x="121.026339" y="288.199219" style="stroke: #000000; stroke-width: 0.8"/>
      </g>
     </g>
    </g>
    <g id="xtick_5">
     <g id="line2d_5">
      <g>
       <use xlink:href="#me0d768fc11" x="145.937054" y="288.199219" style="stroke: #000000; stroke-width: 0.8"/>
      </g>
     </g>
    </g>
    <g id="xtick_6">
     <g id="line2d_6">
      <g>
       <use xlink:href="#me0d768fc11" x="170.847768" y="288.199219" style="stroke: #000000; stroke-width: 0.8"/>
      </g>
     </g>
     <g id="text_4">
      <!-- $x_{j-1}$ -->
      <g transform="translate(160.247768 301.777344) scale(0.1 -0.1)">
       <defs>
        <path id="DejaVuSans-Oblique-6a" d="M 928 3500 
L 1503 3500 
L 813 -63 
L 809 -78 
Q 694 -675 544 -897 
Q 403 -1106 132 -1218 
Q -138 -1331 -506 -1331 
L -722 -1331 
L -628 -844 
L -481 -844 
Q -144 -844 -1 -703 
Q 141 -563 238 -63 
L 928 3500 
z
M 1197 4863 
L 1772 4863 
L 1631 4134 
L 1056 4134 
L 1197 4863 
z
" transform="scale(0.015625)"/>
        <path id="DejaVuSans-2212" d="M 678 2272 
L 4684 2272 
L 4684 1741 
L 678 1741 
L 678 2272 
z
" transform="scale(0.015625)"/>
       </defs>
       <use xlink:href="#DejaVuSans-Oblique-78" transform="translate(0 0.3125)"/>
       <use xlink:href="#DejaVuSans-Oblique-6a" transform="translate(59.179688 -16.09375) scale(0.7)"/>
       <use xlink:href="#DejaVuSans-2212" transform="translate(92.265625 -16.09375) scale(0.7)"/>
       <use xlink:href="#DejaVuSans-31" transform="translate(164.555664 -16.09375) scale(0.7)"/>
      </g>
     </g>
    </g>
    <g id="xtick_7">
     <g id="line2d_7">
      <g>
       <use xlink:href="#me0d768fc11" x="195.758482" y="288.199219" style="stroke: #000000; stroke-width: 0.8"/>
      </g>
     </g>
     <g id="text_5">
      <!-- $x_{j}$ -->
      <g transform="translate(191.658482 301.777344) scale(0.1 -0.1)">
       <use xlink:href="#DejaVuSans-Oblique-78" transform="translate(0 0.3125)"/>
       <use xlink:href="#DejaVuSans-Oblique-6a" transform="translate(59.179688 -16.09375) scale(0.7)"/>
      </g>
     </g>
    </g>
    <g id="xtick_8">
     <g id="line2d_8">
      <g>
       <use xlink:href="#me0d768fc11" x="220.669196" y="288.199219" style="stroke: #000000; stroke-width: 0.8"/>
      </g>
     </g>
     <g id="text_6">
      <!-- $x_{j+1}$ -->
      <g transform="translate(210.069196 301.777344) scale(0.1 -0.1)">
       <defs>
        <path id="DejaVuSans-2b" d="M 2944 4013 
L 2944 2272 
L 4684 2272 
L 4684 1741 
L 2944 1741 
L 2944 0 
L 2419 0 
L 2419 1741 
L 678 1741 
L 678 2272 
L 2419 2272 
L 2419 4013 
L 2944 4013 
z
" transform="scale(0.015625)"/>
       </defs>
       <use xlink:href="#DejaVuSans-Oblique-78" transform="translate(0 0.3125)"/>
       <use xlink:href="#DejaVuSans-Oblique-6a" transform="translate(59.179688 -16.09375) scale(0.7)"/>
       <use xlink:href="#DejaVuSans-2b" transform="translate(92.265625 -16.09375) scale(0.7)"/>
       <use xlink:href="#DejaVuSans-31" transform="translate(164.555664 -16.09375) scale(0.7)"/>
      </g>
     </g>
    </g>
    <g id="xtick_9">
     <g id="line2d_9">
      <g>
       <use xlink:href="#me0d768fc11" x="245.579911" y="288.199219" style="stroke: #000000; stroke-width: 0.8"/>
      </g>
     </g>
    </g>
    <g id="xtick_10">
     <g id="line2d_10">
      <g>
       <use xlink:href="#me0d768fc11" x="270.490625" y="288.199219" style="stroke: #000000; stroke-width: 0.8"/>
      </g>
     </g>
    </g>
    <g id="xtick_11">
     <g id="line2d_11">
      <g>
       <use xlink:href="#me0d768fc11" x="295.401339" y="288.199219" style="stroke: #000000; stroke-width: 0.8"/>
      </g>
     </g>
    </g>
    <g id="xtick_12">
     <g id="line2d_12">
      <g>
       <use xlink:href="#me0d768fc11" x="320.312054" y="288.199219" style="stroke: #000000; stroke-width: 0.8"/>
      </g>
     </g>
    </g>
    <g id="text_7">
     <!-- $x$ -->
     <g transform="translate(180.303125 316.475781) scale(0.1 -0.1)">
      <use xlink:href="#DejaVuSans-Oblique-78" transform="translate(0 0.3125)"/>
     </g>
    </g>
   </g>
   <g id="matplotlib.axis_2">
    <g id="ytick_1">
     <g id="line2d_13">
      <defs>
       <path id="m11b063b663" d="M 0 0 
L -3.5 0 
" style="stroke: #000000; stroke-width: 0.8"/>
      </defs>
      <g>
       <use xlink:href="#m11b063b663" x="43.803125" y="277.53768" style="stroke: #000000; stroke-width: 0.8"/>
      </g>
     </g>
     <g id="text_8">
      <!-- 0.0 -->
      <g transform="translate(20.9 281.336899) scale(0.1 -0.1)">
       <defs>
        <path id="DejaVuSans-2e" d="M 684 794 
L 1344 794 
L 1344 0 
L 684 0 
L 684 794 
z
" transform="scale(0.015625)"/>
       </defs>
       <use xlink:href="#DejaVuSans-30"/>
       <use xlink:href="#DejaVuSans-2e" x="63.623047"/>
       <use xlink:href="#DejaVuSans-30" x="95.410156"/>
      </g>
     </g>
    </g>
    <g id="ytick_2">
     <g id="line2d_14">
      <g>
       <use xlink:href="#m11b063b663" x="43.803125" y="224.229988" style="stroke: #000000; stroke-width: 0.8"/>
      </g>
     </g>
     <g id="text_9">
      <!-- 0.5 -->
      <g transform="translate(20.9 228.029207) scale(0.1 -0.1)">
       <defs>
        <path id="DejaVuSans-35" d="M 691 4666 
L 3169 4666 
L 3169 4134 
L 1269 4134 
L 1269 2991 
Q 1406 3038 1543 3061 
Q 1681 3084 1819 3084 
Q 2600 3084 3056 2656 
Q 3513 2228 3513 1497 
Q 3513 744 3044 326 
Q 2575 -91 1722 -91 
Q 1428 -91 1123 -41 
Q 819 9 494 109 
L 494 744 
Q 775 591 1075 516 
Q 1375 441 1709 441 
Q 2250 441 2565 725 
Q 2881 1009 2881 1497 
Q 2881 1984 2565 2268 
Q 2250 2553 1709 2553 
Q 1456 2553 1204 2497 
Q 953 2441 691 2322 
L 691 4666 
z
" transform="scale(0.015625)"/>
       </defs>
       <use xlink:href="#DejaVuSans-30"/>
       <use xlink:href="#DejaVuSans-2e" x="63.623047"/>
       <use xlink:href="#DejaVuSans-35" x="95.410156"/>
      </g>
     </g>
    </g>
    <g id="ytick_3">
     <g id="line2d_15">
      <g>
       <use xlink:href="#m11b063b663" x="43.803125" y="170.922296" style="stroke: #000000; stroke-width: 0.8"/>
      </g>
     </g>
     <g id="text_10">
      <!-- 1.0 -->
      <g transform="translate(20.9 174.721514) scale(0.1 -0.1)">
       <use xlink:href="#DejaVuSans-31"/>
       <use xlink:href="#DejaVuSans-2e" x="63.623047"/>
       <use xlink:href="#DejaVuSans-30" x="95.410156"/>
      </g>
     </g>
    </g>
    <g id="ytick_4">
     <g id="line2d_16">
      <g>
       <use xlink:href="#m11b063b663" x="43.803125" y="117.614603" style="stroke: #000000; stroke-width: 0.8"/>
      </g>
     </g>
     <g id="text_11">
      <!-- 1.5 -->
      <g transform="translate(20.9 121.413822) scale(0.1 -0.1)">
       <use xlink:href="#DejaVuSans-31"/>
       <use xlink:href="#DejaVuSans-2e" x="63.623047"/>
       <use xlink:href="#DejaVuSans-35" x="95.410156"/>
      </g>
     </g>
    </g>
    <g id="ytick_5">
     <g id="line2d_17">
      <g>
       <use xlink:href="#m11b063b663" x="43.803125" y="64.306911" style="stroke: #000000; stroke-width: 0.8"/>
      </g>
     </g>
     <g id="text_12">
      <!-- 2.0 -->
      <g transform="translate(20.9 68.10613) scale(0.1 -0.1)">
       <use xlink:href="#DejaVuSans-32"/>
       <use xlink:href="#DejaVuSans-2e" x="63.623047"/>
       <use xlink:href="#DejaVuSans-30" x="95.410156"/>
      </g>
     </g>
    </g>
    <g id="ytick_6">
     <g id="line2d_18">
      <g>
       <use xlink:href="#m11b063b663" x="43.803125" y="10.999219" style="stroke: #000000; stroke-width: 0.8"/>
      </g>
     </g>
     <g id="text_13">
      <!-- 2.5 -->
      <g transform="translate(20.9 14.798437) scale(0.1 -0.1)">
       <use xlink:href="#DejaVuSans-32"/>
       <use xlink:href="#DejaVuSans-2e" x="63.623047"/>
       <use xlink:href="#DejaVuSans-35" x="95.410156"/>
      </g>
     </g>
    </g>
    <g id="text_14">
     <!-- $\phi$ -->
     <g transform="translate(14.8 152.899219) rotate(-90) scale(0.1 -0.1)">
      <defs>
       <path id="DejaVuSans-Oblique-3d5" d="M 2991 4863 
L 2738 3572 
Q 3363 3572 3684 3094 
Q 4016 2606 3850 1747 
Q 3681 888 3159 400 
Q 2653 -78 2028 -78 
L 1784 -1331 
L 1213 -1331 
L 1456 -78 
Q 834 -78 509 400 
Q 178 888 347 1747 
Q 513 2606 1034 3094 
Q 1544 3572 2166 3572 
L 2419 4863 
L 2991 4863 
z
M 2128 434 
Q 2481 434 2784 756 
Q 3116 1116 3244 1747 
Q 3369 2372 3169 2738 
Q 2991 3059 2638 3059 
L 2128 434 
z
M 1556 434 
L 2066 3059 
Q 1716 3059 1413 2738 
Q 1072 2372 953 1747 
Q 834 1116 1028 756 
Q 1203 434 1556 434 
z
" transform="scale(0.015625)"/>
      </defs>
      <use xlink:href="#DejaVuSans-Oblique-3d5" transform="translate(0 0.015625)"/>
     </g>
    </g>
   </g>
   <g id="line2d_19">
    <path d="M 21.383482 281.979988 
L 147.1589 259.440347 
L 152.669679 258.213365 
L 156.235477 257.215471 
L 159.152948 256.175666 
L 161.422092 255.153576 
L 163.367073 254.071577 
L 165.312054 252.741798 
L 166.932871 251.397272 
L 168.553688 249.791361 
L 170.174505 247.875037 
L 171.795323 245.594514 
L 173.41614 242.891991 
L 175.036957 239.706795 
L 176.657774 235.976943 
L 178.278592 231.641158 
L 179.899409 226.641318 
L 181.520226 220.925325 
L 183.141043 214.450291 
L 185.086024 205.636829 
L 187.031005 195.666732 
L 188.975985 184.560972 
L 191.24513 170.265639 
L 193.838437 152.42493 
L 197.404235 126.163748 
L 202.59085 87.925851 
L 204.859994 72.734846 
L 206.804975 61.1393 
L 208.425792 52.763395 
L 209.722446 47.043839 
L 211.0191 42.289112 
L 211.99159 39.399588 
L 212.964081 37.117437 
L 213.936571 35.4617 
L 214.584898 34.712768 
L 215.233225 34.25091 
L 215.881552 34.077533 
L 216.529879 34.19287 
L 217.178205 34.595985 
L 217.826532 35.284773 
L 218.474859 36.255979 
L 219.44735 38.232427 
L 220.41984 40.814788 
L 221.39233 43.978387 
L 222.688984 49.048891 
L 223.985638 55.017372 
L 225.606455 63.596281 
L 227.551436 75.258846 
L 229.82058 90.267047 
L 233.710541 117.786988 
L 237.924666 147.256161 
L 240.517974 163.955351 
L 242.787118 177.204901 
L 244.732099 187.393783 
L 246.677079 196.439082 
L 248.62206 204.328837 
L 250.242877 210.04033 
L 251.863694 215.002054 
L 253.484512 219.259414 
L 255.105329 222.866233 
L 256.726146 225.881637 
L 258.346963 228.367279 
L 259.967781 230.384996 
L 261.588598 231.994898 
L 263.209415 233.253909 
L 264.830232 234.214729 
L 266.45105 234.925169 
L 268.39603 235.506788 
L 270.341011 235.852477 
L 272.610155 236.027787 
L 275.203463 236.008856 
L 278.445097 235.764806 
L 282.983386 235.184769 
L 290.439145 233.973319 
L 313.130586 229.952913 
L 331.003125 226.765765 
L 331.003125 226.765765 
" clip-path="url(#pe519aab9ac)" style="fill: none; stroke: #000000; stroke-width: 1.5; stroke-linecap: square"/>
   </g>
   <g id="line2d_20">
    <defs>
     <path id="m6120478ccd" d="M 0 3 
C 0.795609 3 1.55874 2.683901 2.12132 2.12132 
C 2.683901 1.55874 3 0.795609 3 0 
C 3 -0.795609 2.683901 -1.55874 2.12132 -2.12132 
C 1.55874 -2.683901 0.795609 -3 0 -3 
C -0.795609 -3 -1.55874 -2.683901 -2.12132 -2.12132 
C -2.683901 -1.55874 -3 -0.795609 -3 0 
C -3 0.795609 -2.683901 1.55874 -2.12132 2.12132 
C -1.55874 2.683901 -0.795609 3 0 3 
z
" style="stroke: #000000"/>
    </defs>
    <g clip-path="url(#pe519aab9ac)">
     <use xlink:href="#m6120478ccd" x="46.294196" y="277.53768" style="fill: #ffffff; stroke: #000000"/>
     <use xlink:href="#m6120478ccd" x="71.204911" y="273.095373" style="fill: #ffffff; stroke: #000000"/>
     <use xlink:href="#m6120478ccd" x="96.115625" y="268.653065" style="fill: #ffffff; stroke: #000000"/>
     <use xlink:href="#m6120478ccd" x="121.026339" y="264.210643" style="fill: #ffffff; stroke: #000000"/>
     <use xlink:href="#m6120478ccd" x="145.937054" y="259.684507" style="fill: #ffffff; stroke: #000000"/>
     <use xlink:href="#m6120478ccd" x="170.847768" y="246.975194" style="fill: #ffffff; stroke: #000000"/>
     <use xlink:href="#m6120478ccd" x="195.758482" y="138.448865" style="fill: #ffffff; stroke: #000000"/>
     <use xlink:href="#m6120478ccd" x="220.669196" y="41.571655" style="fill: #ffffff; stroke: #000000"/>
     <use xlink:href="#m6120478ccd" x="245.579911" y="191.478931" style="fill: #ffffff; stroke: #000000"/>
     <use xlink:href="#m6120478ccd" x="270.490625" y="235.870884" style="fill: #ffffff; stroke: #000000"/>
     <use xlink:href="#m6120478ccd" x="295.401339" y="233.106988" style="fill: #ffffff; stroke: #000000"/>
     <use xlink:href="#m6120478ccd" x="320.312054" y="228.672291" style="fill: #ffffff; stroke: #000000"/>
     <use xlink:href="#m6120478ccd" x="345.222768" y="224.229988" style="fill: #ffffff; stroke: #000000"/>
    </g>
   </g>
   <g id="patch_3">
    <path d="M 43.803125 288.199219 
L 43.803125 10.999219 
" style="fill: none; stroke: #000000; stroke-width: 0.8; stroke-linejoin: miter; stroke-linecap: square"/>
   </g>
   <g id="patch_4">
    <path d="M 322.803125 288.199219 
L 322.803125 10.999219 
" style="fill: none; stroke: #000000; stroke-width: 0.8; stroke-linejoin: miter; stroke-linecap: square"/>
   </g>
   <g id="patch_5">
    <path d="M 43.803125 288.199219 
L 322.803125 288.199219 
" style="fill: none; stroke: #000000; stroke-width: 0.8; stroke-linejoin: miter; stroke-linecap: square"/>
   </g>
   <g id="patch_6">
    <path d="M 43.803125 10.999219 
L 322.803125 10.999219 
" style="fill: none; stroke: #000000; stroke-width: 0.8; stroke-linejoin: miter; stroke-linecap: square"/>
   </g>
   <g id="text_15">
    <!-- $\phi_{j-1}$ -->
    <g transform="translate(177.335268 249.225194) scale(0.1 -0.1)">
     <use xlink:href="#DejaVuSans-Oblique-3d5" transform="translate(0 0.015625)"/>
     <use xlink:href="#DejaVuSans-Oblique-6a" transform="translate(65.966797 -16.390625) scale(0.7)"/>
     <use xlink:href="#DejaVuSans-2212" transform="translate(99.052734 -16.390625) scale(0.7)"/>
     <use xlink:href="#DejaVuSans-31" transform="translate(171.342773 -16.390625) scale(0.7)"/>
    </g>
   </g>
   <g id="text_16">
    <!-- $\phi_{j}$ -->
    <g transform="translate(203.763839 140.698865) scale(0.1 -0.1)">
     <use xlink:href="#DejaVuSans-Oblique-3d5" transform="translate(0 0.015625)"/>
     <use xlink:href="#DejaVuSans-Oblique-6a" transform="translate(65.966797 -16.390625) scale(0.7)"/>
    </g>
   </g>
   <g id="text_17">
    <!-- $\phi_{j+1}$ -->
    <g transform="translate(227.156696 43.821655) scale(0.1 -0.1)">
     <use xlink:href="#DejaVuSans-Oblique-3d5" transform="translate(0 0.015625)"/>
     <use xlink:href="#DejaVuSans-Oblique-6a" transform="translate(65.966797 -16.390625) scale(0.7)"/>
     <use xlink:href="#DejaVuSans-2b" transform="translate(99.052734 -16.390625) scale(0.7)"/>
     <use xlink:href="#DejaVuSans-31" transform="translate(171.342773 -16.390625) scale(0.7)"/>
    </g>
   </g>
   <g id="patch_7">
    <path d="M 142.821175 245.553065 
Q 133.482695 245.553065 124.144215 245.553065 
" style="fill: none; stroke: #000000; stroke-linecap: round"/>
    <path d="M 138.821175 243.553065 
L 142.821175 245.553065 
L 138.821175 247.553065 
" style="fill: none; stroke: #000000; stroke-linecap: round"/>
    <path d="M 128.144215 247.553065 
L 124.144215 245.553065 
L 128.144215 243.553065 
" style="fill: none; stroke: #000000; stroke-linecap: round"/>
   </g>
   <g id="text_18">
    <!-- $\Delta x$ -->
    <g transform="translate(127.081696 237.650901) scale(0.1 -0.1)">
     <defs>
      <path id="DejaVuSans-394" d="M 2188 4044 
L 906 525 
L 3472 525 
L 2188 4044 
z
M 50 0 
L 1831 4666 
L 2547 4666 
L 4325 0 
L 50 0 
z
" transform="scale(0.015625)"/>
     </defs>
     <use xlink:href="#DejaVuSans-394" transform="translate(0 0.09375)"/>
     <use xlink:href="#DejaVuSans-Oblique-78" transform="translate(68.408203 0.09375)"/>
    </g>
   </g>
   <g id="patch_8">
    <path d="M 292.285461 224.229988 
Q 282.946981 224.229988 273.608501 224.229988 
" style="fill: none; stroke: #000000; stroke-linecap: round"/>
    <path d="M 288.285461 222.229988 
L 292.285461 224.229988 
L 288.285461 226.229988 
" style="fill: none; stroke: #000000; stroke-linecap: round"/>
    <path d="M 277.608501 226.229988 
L 273.608501 224.229988 
L 277.608501 222.229988 
" style="fill: none; stroke: #000000; stroke-linecap: round"/>
   </g>
   <g id="text_19">
    <!-- $\Delta x$ -->
    <g transform="translate(276.545982 216.327825) scale(0.1 -0.1)">
     <use xlink:href="#DejaVuSans-394" transform="translate(0 0.09375)"/>
     <use xlink:href="#DejaVuSans-Oblique-78" transform="translate(68.408203 0.09375)"/>
    </g>
   </g>
  </g>
 </g>
 <defs>
  <clipPath id="pe519aab9ac">
   <rect x="43.803125" y="10.999219" width="279" height="277.2"/>
  </clipPath>
 </defs>
</svg>
