<?xml version="1.0" encoding="utf-8" standalone="no"?>
<!DOCTYPE svg PUBLIC "-//W3C//DTD SVG 1.1//EN"
  "http://www.w3.org/Graphics/SVG/1.1/DTD/svg11.dtd">
<svg xmlns:xlink="http://www.w3.org/1999/xlink" width="337.932812pt" height="447.95625pt" viewBox="0 0 337.932812 447.95625" xmlns="http://www.w3.org/2000/svg" version="1.1">
 <metadata>
  <rdf:RDF xmlns:dc="http://purl.org/dc/elements/1.1/" xmlns:cc="http://creativecommons.org/ns#" xmlns:rdf="http://www.w3.org/1999/02/22-rdf-syntax-ns#">
   <cc:Work>
    <dc:type rdf:resource="http://purl.org/dc/dcmitype/StillImage"/>
    <dc:date>2024-11-05T11:34:14.446673</dc:date>
    <dc:format>image/svg+xml</dc:format>
    <dc:creator>
     <cc:Agent>
      <dc:title>Matplotlib v3.8.3, https://matplotlib.org/</dc:title>
     </cc:Agent>
    </dc:creator>
   </cc:Work>
  </rdf:RDF>
 </metadata>
 <defs>
  <style type="text/css">*{stroke-linejoin: round; stroke-linecap: butt}</style>
 </defs>
 <g id="figure_1">
  <g id="patch_1">
   <path d="M 0 447.95625 
L 337.932812 447.95625 
L 337.932812 0 
L 0 0 
z
" style="fill: #ffffff"/>
  </g>
  <g id="axes_1">
   <g id="patch_2">
    <path d="M 43.78125 410.4 
L 322.78125 410.4 
L 322.78125 22.32 
L 43.78125 22.32 
z
" style="fill: #ffffff"/>
   </g>
   <g id="matplotlib.axis_1">
    <g id="xtick_1">
     <g id="line2d_1">
      <defs>
       <path id="m9723fb66ae" d="M 0 0 
L 0 3.5 
" style="stroke: #000000; stroke-width: 0.8"/>
      </defs>
      <g>
       <use xlink:href="#m9723fb66ae" x="43.78125" y="410.4" style="stroke: #000000; stroke-width: 0.8"/>
      </g>
     </g>
     <g id="text_1">
      <!-- 0.0 -->
      <g transform="translate(35.829688 424.998437) scale(0.1 -0.1)">
       <defs>
        <path id="DejaVuSans-30" d="M 2034 4250 
Q 1547 4250 1301 3770 
Q 1056 3291 1056 2328 
Q 1056 1369 1301 889 
Q 1547 409 2034 409 
Q 2525 409 2770 889 
Q 3016 1369 3016 2328 
Q 3016 3291 2770 3770 
Q 2525 4250 2034 4250 
z
M 2034 4750 
Q 2819 4750 3233 4129 
Q 3647 3509 3647 2328 
Q 3647 1150 3233 529 
Q 2819 -91 2034 -91 
Q 1250 -91 836 529 
Q 422 1150 422 2328 
Q 422 3509 836 4129 
Q 1250 4750 2034 4750 
z
" transform="scale(0.015625)"/>
        <path id="DejaVuSans-2e" d="M 684 794 
L 1344 794 
L 1344 0 
L 684 0 
L 684 794 
z
" transform="scale(0.015625)"/>
       </defs>
       <use xlink:href="#DejaVuSans-30"/>
       <use xlink:href="#DejaVuSans-2e" x="63.623047"/>
       <use xlink:href="#DejaVuSans-30" x="95.410156"/>
      </g>
     </g>
    </g>
    <g id="xtick_2">
     <g id="line2d_2">
      <g>
       <use xlink:href="#m9723fb66ae" x="99.58125" y="410.4" style="stroke: #000000; stroke-width: 0.8"/>
      </g>
     </g>
     <g id="text_2">
      <!-- 0.2 -->
      <g transform="translate(91.629688 424.998437) scale(0.1 -0.1)">
       <defs>
        <path id="DejaVuSans-32" d="M 1228 531 
L 3431 531 
L 3431 0 
L 469 0 
L 469 531 
Q 828 903 1448 1529 
Q 2069 2156 2228 2338 
Q 2531 2678 2651 2914 
Q 2772 3150 2772 3378 
Q 2772 3750 2511 3984 
Q 2250 4219 1831 4219 
Q 1534 4219 1204 4116 
Q 875 4013 500 3803 
L 500 4441 
Q 881 4594 1212 4672 
Q 1544 4750 1819 4750 
Q 2544 4750 2975 4387 
Q 3406 4025 3406 3419 
Q 3406 3131 3298 2873 
Q 3191 2616 2906 2266 
Q 2828 2175 2409 1742 
Q 1991 1309 1228 531 
z
" transform="scale(0.015625)"/>
       </defs>
       <use xlink:href="#DejaVuSans-30"/>
       <use xlink:href="#DejaVuSans-2e" x="63.623047"/>
       <use xlink:href="#DejaVuSans-32" x="95.410156"/>
      </g>
     </g>
    </g>
    <g id="xtick_3">
     <g id="line2d_3">
      <g>
       <use xlink:href="#m9723fb66ae" x="155.38125" y="410.4" style="stroke: #000000; stroke-width: 0.8"/>
      </g>
     </g>
     <g id="text_3">
      <!-- 0.4 -->
      <g transform="translate(147.429688 424.998437) scale(0.1 -0.1)">
       <defs>
        <path id="DejaVuSans-34" d="M 2419 4116 
L 825 1625 
L 2419 1625 
L 2419 4116 
z
M 2253 4666 
L 3047 4666 
L 3047 1625 
L 3713 1625 
L 3713 1100 
L 3047 1100 
L 3047 0 
L 2419 0 
L 2419 1100 
L 313 1100 
L 313 1709 
L 2253 4666 
z
" transform="scale(0.015625)"/>
       </defs>
       <use xlink:href="#DejaVuSans-30"/>
       <use xlink:href="#DejaVuSans-2e" x="63.623047"/>
       <use xlink:href="#DejaVuSans-34" x="95.410156"/>
      </g>
     </g>
    </g>
    <g id="xtick_4">
     <g id="line2d_4">
      <g>
       <use xlink:href="#m9723fb66ae" x="211.18125" y="410.4" style="stroke: #000000; stroke-width: 0.8"/>
      </g>
     </g>
     <g id="text_4">
      <!-- 0.6 -->
      <g transform="translate(203.229688 424.998437) scale(0.1 -0.1)">
       <defs>
        <path id="DejaVuSans-36" d="M 2113 2584 
Q 1688 2584 1439 2293 
Q 1191 2003 1191 1497 
Q 1191 994 1439 701 
Q 1688 409 2113 409 
Q 2538 409 2786 701 
Q 3034 994 3034 1497 
Q 3034 2003 2786 2293 
Q 2538 2584 2113 2584 
z
M 3366 4563 
L 3366 3988 
Q 3128 4100 2886 4159 
Q 2644 4219 2406 4219 
Q 1781 4219 1451 3797 
Q 1122 3375 1075 2522 
Q 1259 2794 1537 2939 
Q 1816 3084 2150 3084 
Q 2853 3084 3261 2657 
Q 3669 2231 3669 1497 
Q 3669 778 3244 343 
Q 2819 -91 2113 -91 
Q 1303 -91 875 529 
Q 447 1150 447 2328 
Q 447 3434 972 4092 
Q 1497 4750 2381 4750 
Q 2619 4750 2861 4703 
Q 3103 4656 3366 4563 
z
" transform="scale(0.015625)"/>
       </defs>
       <use xlink:href="#DejaVuSans-30"/>
       <use xlink:href="#DejaVuSans-2e" x="63.623047"/>
       <use xlink:href="#DejaVuSans-36" x="95.410156"/>
      </g>
     </g>
    </g>
    <g id="xtick_5">
     <g id="line2d_5">
      <g>
       <use xlink:href="#m9723fb66ae" x="266.98125" y="410.4" style="stroke: #000000; stroke-width: 0.8"/>
      </g>
     </g>
     <g id="text_5">
      <!-- 0.8 -->
      <g transform="translate(259.029688 424.998437) scale(0.1 -0.1)">
       <defs>
        <path id="DejaVuSans-38" d="M 2034 2216 
Q 1584 2216 1326 1975 
Q 1069 1734 1069 1313 
Q 1069 891 1326 650 
Q 1584 409 2034 409 
Q 2484 409 2743 651 
Q 3003 894 3003 1313 
Q 3003 1734 2745 1975 
Q 2488 2216 2034 2216 
z
M 1403 2484 
Q 997 2584 770 2862 
Q 544 3141 544 3541 
Q 544 4100 942 4425 
Q 1341 4750 2034 4750 
Q 2731 4750 3128 4425 
Q 3525 4100 3525 3541 
Q 3525 3141 3298 2862 
Q 3072 2584 2669 2484 
Q 3125 2378 3379 2068 
Q 3634 1759 3634 1313 
Q 3634 634 3220 271 
Q 2806 -91 2034 -91 
Q 1263 -91 848 271 
Q 434 634 434 1313 
Q 434 1759 690 2068 
Q 947 2378 1403 2484 
z
M 1172 3481 
Q 1172 3119 1398 2916 
Q 1625 2713 2034 2713 
Q 2441 2713 2670 2916 
Q 2900 3119 2900 3481 
Q 2900 3844 2670 4047 
Q 2441 4250 2034 4250 
Q 1625 4250 1398 4047 
Q 1172 3844 1172 3481 
z
" transform="scale(0.015625)"/>
       </defs>
       <use xlink:href="#DejaVuSans-30"/>
       <use xlink:href="#DejaVuSans-2e" x="63.623047"/>
       <use xlink:href="#DejaVuSans-38" x="95.410156"/>
      </g>
     </g>
    </g>
    <g id="xtick_6">
     <g id="line2d_6">
      <g>
       <use xlink:href="#m9723fb66ae" x="322.78125" y="410.4" style="stroke: #000000; stroke-width: 0.8"/>
      </g>
     </g>
     <g id="text_6">
      <!-- 1.0 -->
      <g transform="translate(314.829687 424.998437) scale(0.1 -0.1)">
       <defs>
        <path id="DejaVuSans-31" d="M 794 531 
L 1825 531 
L 1825 4091 
L 703 3866 
L 703 4441 
L 1819 4666 
L 2450 4666 
L 2450 531 
L 3481 531 
L 3481 0 
L 794 0 
L 794 531 
z
" transform="scale(0.015625)"/>
       </defs>
       <use xlink:href="#DejaVuSans-31"/>
       <use xlink:href="#DejaVuSans-2e" x="63.623047"/>
       <use xlink:href="#DejaVuSans-30" x="95.410156"/>
      </g>
     </g>
    </g>
    <g id="text_7">
     <!-- $x$ -->
     <g transform="translate(180.28125 438.676562) scale(0.1 -0.1)">
      <defs>
       <path id="DejaVuSans-Oblique-78" d="M 3841 3500 
L 2234 1784 
L 3219 0 
L 2559 0 
L 1819 1388 
L 531 0 
L -166 0 
L 1556 1844 
L 641 3500 
L 1300 3500 
L 1972 2234 
L 3144 3500 
L 3841 3500 
z
" transform="scale(0.015625)"/>
      </defs>
      <use xlink:href="#DejaVuSans-Oblique-78" transform="translate(0 0.3125)"/>
     </g>
    </g>
   </g>
   <g id="matplotlib.axis_2">
    <g id="ytick_1">
     <g id="line2d_7">
      <defs>
       <path id="md634f86c8b" d="M 0 0 
L -3.5 0 
" style="stroke: #000000; stroke-width: 0.8"/>
      </defs>
      <g>
       <use xlink:href="#md634f86c8b" x="43.78125" y="392.76" style="stroke: #000000; stroke-width: 0.8"/>
      </g>
     </g>
     <g id="text_8">
      <!-- 0.0 -->
      <g transform="translate(20.878125 396.559219) scale(0.1 -0.1)">
       <use xlink:href="#DejaVuSans-30"/>
       <use xlink:href="#DejaVuSans-2e" x="63.623047"/>
       <use xlink:href="#DejaVuSans-30" x="95.410156"/>
      </g>
     </g>
    </g>
    <g id="ytick_2">
     <g id="line2d_8">
      <g>
       <use xlink:href="#md634f86c8b" x="43.78125" y="322.2" style="stroke: #000000; stroke-width: 0.8"/>
      </g>
     </g>
     <g id="text_9">
      <!-- 0.2 -->
      <g transform="translate(20.878125 325.999219) scale(0.1 -0.1)">
       <use xlink:href="#DejaVuSans-30"/>
       <use xlink:href="#DejaVuSans-2e" x="63.623047"/>
       <use xlink:href="#DejaVuSans-32" x="95.410156"/>
      </g>
     </g>
    </g>
    <g id="ytick_3">
     <g id="line2d_9">
      <g>
       <use xlink:href="#md634f86c8b" x="43.78125" y="251.64" style="stroke: #000000; stroke-width: 0.8"/>
      </g>
     </g>
     <g id="text_10">
      <!-- 0.4 -->
      <g transform="translate(20.878125 255.439219) scale(0.1 -0.1)">
       <use xlink:href="#DejaVuSans-30"/>
       <use xlink:href="#DejaVuSans-2e" x="63.623047"/>
       <use xlink:href="#DejaVuSans-34" x="95.410156"/>
      </g>
     </g>
    </g>
    <g id="ytick_4">
     <g id="line2d_10">
      <g>
       <use xlink:href="#md634f86c8b" x="43.78125" y="181.08" style="stroke: #000000; stroke-width: 0.8"/>
      </g>
     </g>
     <g id="text_11">
      <!-- 0.6 -->
      <g transform="translate(20.878125 184.879219) scale(0.1 -0.1)">
       <use xlink:href="#DejaVuSans-30"/>
       <use xlink:href="#DejaVuSans-2e" x="63.623047"/>
       <use xlink:href="#DejaVuSans-36" x="95.410156"/>
      </g>
     </g>
    </g>
    <g id="ytick_5">
     <g id="line2d_11">
      <g>
       <use xlink:href="#md634f86c8b" x="43.78125" y="110.52" style="stroke: #000000; stroke-width: 0.8"/>
      </g>
     </g>
     <g id="text_12">
      <!-- 0.8 -->
      <g transform="translate(20.878125 114.319219) scale(0.1 -0.1)">
       <use xlink:href="#DejaVuSans-30"/>
       <use xlink:href="#DejaVuSans-2e" x="63.623047"/>
       <use xlink:href="#DejaVuSans-38" x="95.410156"/>
      </g>
     </g>
    </g>
    <g id="ytick_6">
     <g id="line2d_12">
      <g>
       <use xlink:href="#md634f86c8b" x="43.78125" y="39.96" style="stroke: #000000; stroke-width: 0.8"/>
      </g>
     </g>
     <g id="text_13">
      <!-- 1.0 -->
      <g transform="translate(20.878125 43.759219) scale(0.1 -0.1)">
       <use xlink:href="#DejaVuSans-31"/>
       <use xlink:href="#DejaVuSans-2e" x="63.623047"/>
       <use xlink:href="#DejaVuSans-30" x="95.410156"/>
      </g>
     </g>
    </g>
    <g id="text_14">
     <!-- $\psi$ -->
     <g transform="translate(14.778125 219.66) rotate(-90) scale(0.1 -0.1)">
      <defs>
       <path id="DejaVuSans-Oblique-3c8" d="M 1591 -78 
Q 891 38 616 341 
Q 278 713 425 1472 
L 819 3500 
L 1400 3500 
L 1009 1494 
Q 900 922 1119 684 
Q 1313 478 1691 434 
L 2284 3500 
L 2856 3500 
L 2263 438 
Q 2681 481 2928 688 
Q 3247 950 3353 1497 
L 3741 3500 
L 4322 3500 
L 3928 1475 
Q 3775 688 3300 344 
Q 2872 34 2163 -75 
L 1919 -1331 
L 1347 -1331 
L 1591 -78 
z
" transform="scale(0.015625)"/>
      </defs>
      <use xlink:href="#DejaVuSans-Oblique-3c8" transform="translate(0 0.3125)"/>
     </g>
    </g>
   </g>
   <g id="line2d_13">
    <path d="M 43.78125 392.76 
L 49.36125 392.672945 
L 52.15125 392.325056 
L 53.54625 391.961094 
L 54.94125 391.410537 
L 56.33625 390.622579 
L 57.73125 389.542948 
L 59.12625 388.11502 
L 60.52125 386.281004 
L 61.91625 383.983171 
L 63.31125 381.165108 
L 64.70625 377.772968 
L 66.10125 373.756713 
L 67.49625 369.07131 
L 68.89125 363.677865 
L 70.28625 357.544688 
L 71.68125 350.648247 
L 73.07625 342.974021 
L 74.47125 334.517207 
L 75.86625 325.2833 
L 78.65625 304.56 
L 81.44625 281.065735 
L 84.23625 255.236228 
L 88.42125 213.462931 
L 95.39625 142.474952 
L 98.18625 116.277948 
L 100.97625 92.743687 
L 102.37125 82.24954 
L 103.76625 72.73811 
L 105.16125 64.299911 
L 106.55625 57.015981 
L 107.95125 50.956806 
L 109.34625 46.181386 
L 110.74125 42.736449 
L 112.13625 40.655827 
L 113.53125 39.96 
L 114.92625 40.655827 
L 116.32125 42.736449 
L 117.71625 46.181386 
L 119.11125 50.956806 
L 120.50625 57.015981 
L 121.90125 64.299911 
L 123.29625 72.73811 
L 124.69125 82.24954 
L 126.08625 92.743687 
L 128.87625 116.277948 
L 131.66625 142.474952 
L 135.85125 184.71702 
L 141.43125 241.627052 
L 144.22125 268.409079 
L 147.01125 293.136011 
L 149.80125 315.288506 
L 152.59125 334.517207 
L 153.98625 342.974021 
L 155.38125 350.648247 
L 156.77625 357.544688 
L 158.17125 363.677865 
L 159.56625 369.07131 
L 160.96125 373.756713 
L 162.35625 377.772968 
L 163.75125 381.165108 
L 165.14625 383.983171 
L 166.54125 386.281004 
L 167.93625 388.11502 
L 169.33125 389.542948 
L 170.72625 390.622579 
L 172.12125 391.410537 
L 173.51625 391.961094 
L 174.91125 392.325056 
L 177.70125 392.672945 
L 181.88625 392.759657 
L 188.86125 392.672945 
L 191.65125 392.325056 
L 193.04625 391.961094 
L 194.44125 391.410537 
L 195.83625 390.622579 
L 197.23125 389.542948 
L 198.62625 388.11502 
L 200.02125 386.281004 
L 201.41625 383.983171 
L 202.81125 381.165108 
L 204.20625 377.772968 
L 205.60125 373.756713 
L 206.99625 369.07131 
L 208.39125 363.677865 
L 209.78625 357.544688 
L 211.18125 350.648247 
L 212.57625 342.974021 
L 213.97125 334.517207 
L 215.36625 325.2833 
L 218.15625 304.56 
L 220.94625 281.065735 
L 223.73625 255.236228 
L 227.92125 213.462931 
L 234.89625 142.474952 
L 237.68625 116.277948 
L 240.47625 92.743687 
L 241.87125 82.24954 
L 243.26625 72.73811 
L 244.66125 64.299911 
L 246.05625 57.015981 
L 247.45125 50.956806 
L 248.84625 46.181386 
L 250.24125 42.736449 
L 251.63625 40.655827 
L 253.03125 39.96 
L 254.42625 40.655827 
L 255.82125 42.736449 
L 257.21625 46.181386 
L 258.61125 50.956806 
L 260.00625 57.015981 
L 261.40125 64.299911 
L 262.79625 72.73811 
L 264.19125 82.24954 
L 265.58625 92.743687 
L 268.37625 116.277948 
L 271.16625 142.474952 
L 275.35125 184.71702 
L 280.93125 241.627052 
L 283.72125 268.409079 
L 286.51125 293.136011 
L 289.30125 315.288506 
L 292.09125 334.517207 
L 293.48625 342.974021 
L 294.88125 350.648247 
L 296.27625 357.544688 
L 297.67125 363.677865 
L 299.06625 369.07131 
L 300.46125 373.756713 
L 301.85625 377.772968 
L 303.25125 381.165108 
L 304.64625 383.983171 
L 306.04125 386.281004 
L 307.43625 388.11502 
L 308.83125 389.542948 
L 310.22625 390.622579 
L 311.62125 391.410537 
L 313.01625 391.961094 
L 314.41125 392.325056 
L 317.20125 392.672945 
L 321.38625 392.759657 
L 322.78125 392.76 
L 322.78125 392.76 
" clip-path="url(#p35cdc653d1)" style="fill: none; stroke-dasharray: 5.55,2.4; stroke-dashoffset: 0; stroke: #000000; stroke-width: 1.5"/>
   </g>
   <g id="line2d_14">
    <path d="M 43.78125 392.76 
L 75.86625 392.675662 
L 80.05125 392.51198 
L 82.84125 392.278811 
L 85.63125 391.866345 
L 88.42125 391.169131 
L 89.81625 390.669892 
L 91.21125 390.041369 
L 92.60625 389.258389 
L 94.00125 388.293026 
L 95.39625 387.114769 
L 96.79125 385.690803 
L 98.18625 383.98639 
L 99.58125 381.965365 
L 100.97625 379.590722 
L 102.37125 376.825289 
L 103.76625 373.63247 
L 105.16125 369.977034 
L 106.55625 365.825944 
L 107.95125 361.14918 
L 109.34625 355.920569 
L 110.74125 350.118566 
L 112.13625 343.727001 
L 113.53125 336.735748 
L 116.32125 320.947398 
L 119.11125 302.813695 
L 121.90125 282.519234 
L 124.69125 260.376485 
L 128.87625 224.681215 
L 137.24625 151.906712 
L 140.03625 129.837756 
L 142.82625 110.081732 
L 144.22125 101.284453 
L 145.61625 93.312174 
L 147.01125 86.235089 
L 148.40625 80.116881 
L 149.80125 75.012283 
L 151.19625 70.968331 
L 152.59125 68.02142 
L 153.98625 66.199619 
L 155.38125 65.518999 
L 156.77625 65.987339 
L 158.17125 67.599401 
L 159.56625 70.342429 
L 160.96125 74.189945 
L 162.35625 79.109523 
L 163.75125 85.054543 
L 165.14625 91.974844 
L 166.54125 99.805726 
L 167.93625 108.482189 
L 170.72625 128.056032 
L 173.51625 150.030412 
L 177.70125 185.900548 
L 186.07125 259.100349 
L 188.86125 281.541956 
L 191.65125 302.158132 
L 194.44125 320.616144 
L 197.23125 336.711571 
L 198.62625 343.856151 
L 200.02125 350.366078 
L 201.41625 356.29979 
L 202.81125 361.617625 
L 204.20625 366.398352 
L 205.60125 370.603949 
L 206.99625 374.33151 
L 208.39125 377.540592 
L 209.78625 380.344185 
L 211.18125 382.695046 
L 212.57625 384.719436 
L 213.97125 386.358858 
L 215.36625 387.75025 
L 216.76125 388.819601 
L 218.15625 389.712181 
L 220.94625 390.838688 
L 223.73625 391.300837 
L 226.52625 391.192745 
L 229.31625 390.523721 
L 232.10625 389.217646 
L 234.89625 387.119616 
L 236.29125 385.649914 
L 237.68625 384.009417 
L 239.08125 381.931518 
L 240.47625 379.620912 
L 241.87125 376.791903 
L 243.26625 373.666047 
L 244.66125 369.942095 
L 246.05625 365.861839 
L 247.45125 361.112245 
L 248.84625 355.958522 
L 251.63625 343.766918 
L 254.42625 329.183114 
L 257.21625 312.208717 
L 260.00625 292.965179 
L 262.79625 271.701069 
L 266.98125 236.772849 
L 273.95625 175.613251 
L 276.74625 151.95768 
L 279.53625 129.888879 
L 280.93125 119.575749 
L 283.72125 101.233609 
L 285.11625 93.362783 
L 286.51125 86.184789 
L 287.90625 80.166799 
L 289.30125 74.962823 
L 290.69625 71.017257 
L 292.09125 67.973105 
L 293.48625 66.247244 
L 294.88125 65.472141 
L 296.27625 66.033351 
L 297.67125 67.554315 
L 299.06625 70.386509 
L 300.46125 74.146952 
L 301.85625 79.151349 
L 303.25125 85.013963 
L 304.64625 92.014097 
L 306.04125 99.767881 
L 308.83125 117.889542 
L 311.62125 138.75428 
L 314.41125 161.663073 
L 319.99125 210.651723 
L 322.78125 235.273789 
L 322.78125 235.273789 
" clip-path="url(#p35cdc653d1)" style="fill: none; stroke: #0000ff; stroke-width: 1.5; stroke-linecap: square"/>
   </g>
   <g id="patch_3">
    <path d="M 43.78125 410.4 
L 43.78125 22.32 
" style="fill: none; stroke: #000000; stroke-width: 0.8; stroke-linejoin: miter; stroke-linecap: square"/>
   </g>
   <g id="patch_4">
    <path d="M 322.78125 410.4 
L 322.78125 22.32 
" style="fill: none; stroke: #000000; stroke-width: 0.8; stroke-linejoin: miter; stroke-linecap: square"/>
   </g>
   <g id="patch_5">
    <path d="M 43.78125 410.4 
L 322.78125 410.4 
" style="fill: none; stroke: #000000; stroke-width: 0.8; stroke-linejoin: miter; stroke-linecap: square"/>
   </g>
   <g id="patch_6">
    <path d="M 43.78125 22.32 
L 322.78125 22.32 
" style="fill: none; stroke: #000000; stroke-width: 0.8; stroke-linejoin: miter; stroke-linecap: square"/>
   </g>
   <g id="text_15">
    <!-- 200 elements; $\psi(0) = 0 = \partial_x \psi(1)$ -->
    <g transform="translate(88.84125 16.32) scale(0.12 -0.12)">
     <defs>
      <path id="DejaVuSans-20" transform="scale(0.015625)"/>
      <path id="DejaVuSans-65" d="M 3597 1894 
L 3597 1613 
L 953 1613 
Q 991 1019 1311 708 
Q 1631 397 2203 397 
Q 2534 397 2845 478 
Q 3156 559 3463 722 
L 3463 178 
Q 3153 47 2828 -22 
Q 2503 -91 2169 -91 
Q 1331 -91 842 396 
Q 353 884 353 1716 
Q 353 2575 817 3079 
Q 1281 3584 2069 3584 
Q 2775 3584 3186 3129 
Q 3597 2675 3597 1894 
z
M 3022 2063 
Q 3016 2534 2758 2815 
Q 2500 3097 2075 3097 
Q 1594 3097 1305 2825 
Q 1016 2553 972 2059 
L 3022 2063 
z
" transform="scale(0.015625)"/>
      <path id="DejaVuSans-6c" d="M 603 4863 
L 1178 4863 
L 1178 0 
L 603 0 
L 603 4863 
z
" transform="scale(0.015625)"/>
      <path id="DejaVuSans-6d" d="M 3328 2828 
Q 3544 3216 3844 3400 
Q 4144 3584 4550 3584 
Q 5097 3584 5394 3201 
Q 5691 2819 5691 2113 
L 5691 0 
L 5113 0 
L 5113 2094 
Q 5113 2597 4934 2840 
Q 4756 3084 4391 3084 
Q 3944 3084 3684 2787 
Q 3425 2491 3425 1978 
L 3425 0 
L 2847 0 
L 2847 2094 
Q 2847 2600 2669 2842 
Q 2491 3084 2119 3084 
Q 1678 3084 1418 2786 
Q 1159 2488 1159 1978 
L 1159 0 
L 581 0 
L 581 3500 
L 1159 3500 
L 1159 2956 
Q 1356 3278 1631 3431 
Q 1906 3584 2284 3584 
Q 2666 3584 2933 3390 
Q 3200 3197 3328 2828 
z
" transform="scale(0.015625)"/>
      <path id="DejaVuSans-6e" d="M 3513 2113 
L 3513 0 
L 2938 0 
L 2938 2094 
Q 2938 2591 2744 2837 
Q 2550 3084 2163 3084 
Q 1697 3084 1428 2787 
Q 1159 2491 1159 1978 
L 1159 0 
L 581 0 
L 581 3500 
L 1159 3500 
L 1159 2956 
Q 1366 3272 1645 3428 
Q 1925 3584 2291 3584 
Q 2894 3584 3203 3211 
Q 3513 2838 3513 2113 
z
" transform="scale(0.015625)"/>
      <path id="DejaVuSans-74" d="M 1172 4494 
L 1172 3500 
L 2356 3500 
L 2356 3053 
L 1172 3053 
L 1172 1153 
Q 1172 725 1289 603 
Q 1406 481 1766 481 
L 2356 481 
L 2356 0 
L 1766 0 
Q 1100 0 847 248 
Q 594 497 594 1153 
L 594 3053 
L 172 3053 
L 172 3500 
L 594 3500 
L 594 4494 
L 1172 4494 
z
" transform="scale(0.015625)"/>
      <path id="DejaVuSans-73" d="M 2834 3397 
L 2834 2853 
Q 2591 2978 2328 3040 
Q 2066 3103 1784 3103 
Q 1356 3103 1142 2972 
Q 928 2841 928 2578 
Q 928 2378 1081 2264 
Q 1234 2150 1697 2047 
L 1894 2003 
Q 2506 1872 2764 1633 
Q 3022 1394 3022 966 
Q 3022 478 2636 193 
Q 2250 -91 1575 -91 
Q 1294 -91 989 -36 
Q 684 19 347 128 
L 347 722 
Q 666 556 975 473 
Q 1284 391 1588 391 
Q 1994 391 2212 530 
Q 2431 669 2431 922 
Q 2431 1156 2273 1281 
Q 2116 1406 1581 1522 
L 1381 1569 
Q 847 1681 609 1914 
Q 372 2147 372 2553 
Q 372 3047 722 3315 
Q 1072 3584 1716 3584 
Q 2034 3584 2315 3537 
Q 2597 3491 2834 3397 
z
" transform="scale(0.015625)"/>
      <path id="DejaVuSans-3b" d="M 750 3309 
L 1409 3309 
L 1409 2516 
L 750 2516 
L 750 3309 
z
M 750 794 
L 1409 794 
L 1409 256 
L 897 -744 
L 494 -744 
L 750 256 
L 750 794 
z
" transform="scale(0.015625)"/>
      <path id="DejaVuSans-28" d="M 1984 4856 
Q 1566 4138 1362 3434 
Q 1159 2731 1159 2009 
Q 1159 1288 1364 580 
Q 1569 -128 1984 -844 
L 1484 -844 
Q 1016 -109 783 600 
Q 550 1309 550 2009 
Q 550 2706 781 3412 
Q 1013 4119 1484 4856 
L 1984 4856 
z
" transform="scale(0.015625)"/>
      <path id="DejaVuSans-29" d="M 513 4856 
L 1013 4856 
Q 1481 4119 1714 3412 
Q 1947 2706 1947 2009 
Q 1947 1309 1714 600 
Q 1481 -109 1013 -844 
L 513 -844 
Q 928 -128 1133 580 
Q 1338 1288 1338 2009 
Q 1338 2731 1133 3434 
Q 928 4138 513 4856 
z
" transform="scale(0.015625)"/>
      <path id="DejaVuSans-3d" d="M 678 2906 
L 4684 2906 
L 4684 2381 
L 678 2381 
L 678 2906 
z
M 678 1631 
L 4684 1631 
L 4684 1100 
L 678 1100 
L 678 1631 
z
" transform="scale(0.015625)"/>
      <path id="DejaVuSans-2202" d="M 1366 -91 
Q 925 -91 638 175 
Q 297 491 297 1063 
Q 297 1656 597 2119 
Q 906 2594 1463 2594 
Q 1828 2594 2116 2366 
Q 2284 2231 2400 2006 
Q 2441 2259 2441 2547 
Q 2441 2969 2341 3213 
Q 2119 3753 1531 3753 
Q 1309 3753 966 3616 
L 966 4141 
Q 1328 4238 1653 4238 
Q 2491 4238 2847 3469 
Q 3013 3106 3013 2566 
Q 3013 2213 2934 1803 
Q 2738 778 2228 291 
Q 1828 -91 1366 -91 
z
M 831 969 
Q 831 656 969 488 
Q 1116 309 1341 309 
Q 1541 309 1700 450 
Q 1925 644 2091 959 
Q 2228 1219 2297 1497 
Q 2019 2169 1538 2169 
Q 1125 2169 944 1625 
Q 831 1288 831 969 
z
" transform="scale(0.015625)"/>
     </defs>
     <use xlink:href="#DejaVuSans-32" transform="translate(0 0.015625)"/>
     <use xlink:href="#DejaVuSans-30" transform="translate(63.623047 0.015625)"/>
     <use xlink:href="#DejaVuSans-30" transform="translate(127.246094 0.015625)"/>
     <use xlink:href="#DejaVuSans-20" transform="translate(190.869141 0.015625)"/>
     <use xlink:href="#DejaVuSans-65" transform="translate(222.65625 0.015625)"/>
     <use xlink:href="#DejaVuSans-6c" transform="translate(284.179688 0.015625)"/>
     <use xlink:href="#DejaVuSans-65" transform="translate(311.962891 0.015625)"/>
     <use xlink:href="#DejaVuSans-6d" transform="translate(373.486328 0.015625)"/>
     <use xlink:href="#DejaVuSans-65" transform="translate(470.898438 0.015625)"/>
     <use xlink:href="#DejaVuSans-6e" transform="translate(532.421875 0.015625)"/>
     <use xlink:href="#DejaVuSans-74" transform="translate(595.800781 0.015625)"/>
     <use xlink:href="#DejaVuSans-73" transform="translate(635.009766 0.015625)"/>
     <use xlink:href="#DejaVuSans-3b" transform="translate(687.109375 0.015625)"/>
     <use xlink:href="#DejaVuSans-20" transform="translate(720.800781 0.015625)"/>
     <use xlink:href="#DejaVuSans-Oblique-3c8" transform="translate(752.587891 0.015625)"/>
     <use xlink:href="#DejaVuSans-28" transform="translate(818.554688 0.015625)"/>
     <use xlink:href="#DejaVuSans-30" transform="translate(857.568359 0.015625)"/>
     <use xlink:href="#DejaVuSans-29" transform="translate(921.191406 0.015625)"/>
     <use xlink:href="#DejaVuSans-3d" transform="translate(979.6875 0.015625)"/>
     <use xlink:href="#DejaVuSans-30" transform="translate(1082.958984 0.015625)"/>
     <use xlink:href="#DejaVuSans-3d" transform="translate(1166.064453 0.015625)"/>
     <use xlink:href="#DejaVuSans-2202" transform="translate(1269.335938 0.015625)"/>
     <use xlink:href="#DejaVuSans-Oblique-78" transform="translate(1322.001953 -16.390625) scale(0.7)"/>
     <use xlink:href="#DejaVuSans-Oblique-3c8" transform="translate(1366.162109 0.015625)"/>
     <use xlink:href="#DejaVuSans-28" transform="translate(1432.128906 0.015625)"/>
     <use xlink:href="#DejaVuSans-31" transform="translate(1471.142578 0.015625)"/>
     <use xlink:href="#DejaVuSans-29" transform="translate(1534.765625 0.015625)"/>
    </g>
   </g>
   <g id="legend_1">
    <g id="patch_7">
     <path d="M 148.03125 59.67625 
L 218.53125 59.67625 
Q 220.53125 59.67625 220.53125 57.67625 
L 220.53125 29.32 
Q 220.53125 27.32 218.53125 27.32 
L 148.03125 27.32 
Q 146.03125 27.32 146.03125 29.32 
L 146.03125 57.67625 
Q 146.03125 59.67625 148.03125 59.67625 
z
" style="fill: #ffffff; opacity: 0.8; stroke: #cccccc; stroke-linejoin: miter"/>
    </g>
    <g id="line2d_15">
     <path d="M 150.03125 35.418437 
L 160.03125 35.418437 
L 170.03125 35.418437 
" style="fill: none; stroke-dasharray: 5.55,2.4; stroke-dashoffset: 0; stroke: #000000; stroke-width: 1.5"/>
    </g>
    <g id="text_16">
     <!-- Initial -->
     <g transform="translate(178.03125 38.918437) scale(0.1 -0.1)">
      <defs>
       <path id="DejaVuSans-49" d="M 628 4666 
L 1259 4666 
L 1259 0 
L 628 0 
L 628 4666 
z
" transform="scale(0.015625)"/>
       <path id="DejaVuSans-69" d="M 603 3500 
L 1178 3500 
L 1178 0 
L 603 0 
L 603 3500 
z
M 603 4863 
L 1178 4863 
L 1178 4134 
L 603 4134 
L 603 4863 
z
" transform="scale(0.015625)"/>
       <path id="DejaVuSans-61" d="M 2194 1759 
Q 1497 1759 1228 1600 
Q 959 1441 959 1056 
Q 959 750 1161 570 
Q 1363 391 1709 391 
Q 2188 391 2477 730 
Q 2766 1069 2766 1631 
L 2766 1759 
L 2194 1759 
z
M 3341 1997 
L 3341 0 
L 2766 0 
L 2766 531 
Q 2569 213 2275 61 
Q 1981 -91 1556 -91 
Q 1019 -91 701 211 
Q 384 513 384 1019 
Q 384 1609 779 1909 
Q 1175 2209 1959 2209 
L 2766 2209 
L 2766 2266 
Q 2766 2663 2505 2880 
Q 2244 3097 1772 3097 
Q 1472 3097 1187 3025 
Q 903 2953 641 2809 
L 641 3341 
Q 956 3463 1253 3523 
Q 1550 3584 1831 3584 
Q 2591 3584 2966 3190 
Q 3341 2797 3341 1997 
z
" transform="scale(0.015625)"/>
      </defs>
      <use xlink:href="#DejaVuSans-49"/>
      <use xlink:href="#DejaVuSans-6e" x="29.492188"/>
      <use xlink:href="#DejaVuSans-69" x="92.871094"/>
      <use xlink:href="#DejaVuSans-74" x="120.654297"/>
      <use xlink:href="#DejaVuSans-69" x="159.863281"/>
      <use xlink:href="#DejaVuSans-61" x="187.646484"/>
      <use xlink:href="#DejaVuSans-6c" x="248.925781"/>
     </g>
    </g>
    <g id="line2d_16">
     <path d="M 150.03125 50.096562 
L 160.03125 50.096562 
L 170.03125 50.096562 
" style="fill: none; stroke: #0000ff; stroke-width: 1.5; stroke-linecap: square"/>
    </g>
    <g id="text_17">
     <!-- $t=0.30$ -->
     <g transform="translate(178.03125 53.596562) scale(0.1 -0.1)">
      <defs>
       <path id="DejaVuSans-Oblique-74" d="M 2706 3500 
L 2619 3053 
L 1472 3053 
L 1100 1153 
Q 1081 1047 1072 975 
Q 1063 903 1063 863 
Q 1063 663 1183 572 
Q 1303 481 1569 481 
L 2150 481 
L 2053 0 
L 1503 0 
Q 991 0 739 200 
Q 488 400 488 806 
Q 488 878 497 964 
Q 506 1050 525 1153 
L 897 3053 
L 409 3053 
L 500 3500 
L 978 3500 
L 1172 4494 
L 1747 4494 
L 1556 3500 
L 2706 3500 
z
" transform="scale(0.015625)"/>
       <path id="DejaVuSans-33" d="M 2597 2516 
Q 3050 2419 3304 2112 
Q 3559 1806 3559 1356 
Q 3559 666 3084 287 
Q 2609 -91 1734 -91 
Q 1441 -91 1130 -33 
Q 819 25 488 141 
L 488 750 
Q 750 597 1062 519 
Q 1375 441 1716 441 
Q 2309 441 2620 675 
Q 2931 909 2931 1356 
Q 2931 1769 2642 2001 
Q 2353 2234 1838 2234 
L 1294 2234 
L 1294 2753 
L 1863 2753 
Q 2328 2753 2575 2939 
Q 2822 3125 2822 3475 
Q 2822 3834 2567 4026 
Q 2313 4219 1838 4219 
Q 1578 4219 1281 4162 
Q 984 4106 628 3988 
L 628 4550 
Q 988 4650 1302 4700 
Q 1616 4750 1894 4750 
Q 2613 4750 3031 4423 
Q 3450 4097 3450 3541 
Q 3450 3153 3228 2886 
Q 3006 2619 2597 2516 
z
" transform="scale(0.015625)"/>
      </defs>
      <use xlink:href="#DejaVuSans-Oblique-74" transform="translate(0 0.78125)"/>
      <use xlink:href="#DejaVuSans-3d" transform="translate(58.691406 0.78125)"/>
      <use xlink:href="#DejaVuSans-30" transform="translate(161.962891 0.78125)"/>
      <use xlink:href="#DejaVuSans-2e" transform="translate(225.585938 0.78125)"/>
      <use xlink:href="#DejaVuSans-33" transform="translate(257.373047 0.78125)"/>
      <use xlink:href="#DejaVuSans-30" transform="translate(320.996094 0.78125)"/>
     </g>
    </g>
   </g>
  </g>
 </g>
 <defs>
  <clipPath id="p35cdc653d1">
   <rect x="43.78125" y="22.32" width="279" height="388.08"/>
  </clipPath>
 </defs>
</svg>
