<?xml version="1.0" encoding="utf-8" standalone="no"?>
<!DOCTYPE svg PUBLIC "-//W3C//DTD SVG 1.1//EN"
  "http://www.w3.org/Graphics/SVG/1.1/DTD/svg11.dtd">
<svg xmlns:xlink="http://www.w3.org/1999/xlink" width="348.948437pt" height="422.830469pt" viewBox="0 0 348.948437 422.830469" xmlns="http://www.w3.org/2000/svg" version="1.1">
 <metadata>
  <rdf:RDF xmlns:dc="http://purl.org/dc/elements/1.1/" xmlns:cc="http://creativecommons.org/ns#" xmlns:rdf="http://www.w3.org/1999/02/22-rdf-syntax-ns#">
   <cc:Work>
    <dc:type rdf:resource="http://purl.org/dc/dcmitype/StillImage"/>
    <dc:date>2024-10-24T15:51:14.257395</dc:date>
    <dc:format>image/svg+xml</dc:format>
    <dc:creator>
     <cc:Agent>
      <dc:title>Matplotlib v3.8.3, https://matplotlib.org/</dc:title>
     </cc:Agent>
    </dc:creator>
   </cc:Work>
  </rdf:RDF>
 </metadata>
 <defs>
  <style type="text/css">*{stroke-linejoin: round; stroke-linecap: butt}</style>
 </defs>
 <g id="figure_1">
  <g id="patch_1">
   <path d="M 0 422.830469 
L 348.948437 422.830469 
L 348.948437 0 
L 0 0 
z
" style="fill: #ffffff"/>
  </g>
  <g id="axes_1">
   <g id="patch_2">
    <path d="M 43.803125 123.474219 
L 333.796875 123.474219 
L 333.796875 10.999219 
L 43.803125 10.999219 
z
" style="fill: #ffffff"/>
   </g>
   <g id="matplotlib.axis_1">
    <g id="xtick_1">
     <g id="line2d_1">
      <defs>
       <path id="md60ab8a9c9" d="M 0 0 
L 0 3.5 
" style="stroke: #000000; stroke-width: 0.8"/>
      </defs>
      <g>
       <use xlink:href="#md60ab8a9c9" x="43.803125" y="123.474219" style="stroke: #000000; stroke-width: 0.8"/>
      </g>
     </g>
    </g>
    <g id="xtick_2">
     <g id="line2d_2">
      <g>
       <use xlink:href="#md60ab8a9c9" x="101.801875" y="123.474219" style="stroke: #000000; stroke-width: 0.8"/>
      </g>
     </g>
    </g>
    <g id="xtick_3">
     <g id="line2d_3">
      <g>
       <use xlink:href="#md60ab8a9c9" x="159.800625" y="123.474219" style="stroke: #000000; stroke-width: 0.8"/>
      </g>
     </g>
    </g>
    <g id="xtick_4">
     <g id="line2d_4">
      <g>
       <use xlink:href="#md60ab8a9c9" x="217.799375" y="123.474219" style="stroke: #000000; stroke-width: 0.8"/>
      </g>
     </g>
    </g>
    <g id="xtick_5">
     <g id="line2d_5">
      <g>
       <use xlink:href="#md60ab8a9c9" x="275.798125" y="123.474219" style="stroke: #000000; stroke-width: 0.8"/>
      </g>
     </g>
    </g>
    <g id="xtick_6">
     <g id="line2d_6">
      <g>
       <use xlink:href="#md60ab8a9c9" x="333.796875" y="123.474219" style="stroke: #000000; stroke-width: 0.8"/>
      </g>
     </g>
    </g>
   </g>
   <g id="matplotlib.axis_2">
    <g id="ytick_1">
     <g id="line2d_7">
      <defs>
       <path id="mf925a09864" d="M 0 0 
L -3.5 0 
" style="stroke: #000000; stroke-width: 0.8"/>
      </defs>
      <g>
       <use xlink:href="#mf925a09864" x="43.803125" y="110.241866" style="stroke: #000000; stroke-width: 0.8"/>
      </g>
     </g>
     <g id="text_1">
      <!-- 0.0 -->
      <g transform="translate(20.9 114.041085) scale(0.1 -0.1)">
       <defs>
        <path id="DejaVuSans-30" d="M 2034 4250 
Q 1547 4250 1301 3770 
Q 1056 3291 1056 2328 
Q 1056 1369 1301 889 
Q 1547 409 2034 409 
Q 2525 409 2770 889 
Q 3016 1369 3016 2328 
Q 3016 3291 2770 3770 
Q 2525 4250 2034 4250 
z
M 2034 4750 
Q 2819 4750 3233 4129 
Q 3647 3509 3647 2328 
Q 3647 1150 3233 529 
Q 2819 -91 2034 -91 
Q 1250 -91 836 529 
Q 422 1150 422 2328 
Q 422 3509 836 4129 
Q 1250 4750 2034 4750 
z
" transform="scale(0.015625)"/>
        <path id="DejaVuSans-2e" d="M 684 794 
L 1344 794 
L 1344 0 
L 684 0 
L 684 794 
z
" transform="scale(0.015625)"/>
       </defs>
       <use xlink:href="#DejaVuSans-30"/>
       <use xlink:href="#DejaVuSans-2e" x="63.623047"/>
       <use xlink:href="#DejaVuSans-30" x="95.410156"/>
      </g>
     </g>
    </g>
    <g id="ytick_2">
     <g id="line2d_8">
      <g>
       <use xlink:href="#mf925a09864" x="43.803125" y="77.160983" style="stroke: #000000; stroke-width: 0.8"/>
      </g>
     </g>
     <g id="text_2">
      <!-- 0.5 -->
      <g transform="translate(20.9 80.960202) scale(0.1 -0.1)">
       <defs>
        <path id="DejaVuSans-35" d="M 691 4666 
L 3169 4666 
L 3169 4134 
L 1269 4134 
L 1269 2991 
Q 1406 3038 1543 3061 
Q 1681 3084 1819 3084 
Q 2600 3084 3056 2656 
Q 3513 2228 3513 1497 
Q 3513 744 3044 326 
Q 2575 -91 1722 -91 
Q 1428 -91 1123 -41 
Q 819 9 494 109 
L 494 744 
Q 775 591 1075 516 
Q 1375 441 1709 441 
Q 2250 441 2565 725 
Q 2881 1009 2881 1497 
Q 2881 1984 2565 2268 
Q 2250 2553 1709 2553 
Q 1456 2553 1204 2497 
Q 953 2441 691 2322 
L 691 4666 
z
" transform="scale(0.015625)"/>
       </defs>
       <use xlink:href="#DejaVuSans-30"/>
       <use xlink:href="#DejaVuSans-2e" x="63.623047"/>
       <use xlink:href="#DejaVuSans-35" x="95.410156"/>
      </g>
     </g>
    </g>
    <g id="ytick_3">
     <g id="line2d_9">
      <g>
       <use xlink:href="#mf925a09864" x="43.803125" y="44.080101" style="stroke: #000000; stroke-width: 0.8"/>
      </g>
     </g>
     <g id="text_3">
      <!-- 1.0 -->
      <g transform="translate(20.9 47.87932) scale(0.1 -0.1)">
       <defs>
        <path id="DejaVuSans-31" d="M 794 531 
L 1825 531 
L 1825 4091 
L 703 3866 
L 703 4441 
L 1819 4666 
L 2450 4666 
L 2450 531 
L 3481 531 
L 3481 0 
L 794 0 
L 794 531 
z
" transform="scale(0.015625)"/>
       </defs>
       <use xlink:href="#DejaVuSans-31"/>
       <use xlink:href="#DejaVuSans-2e" x="63.623047"/>
       <use xlink:href="#DejaVuSans-30" x="95.410156"/>
      </g>
     </g>
    </g>
    <g id="ytick_4">
     <g id="line2d_10">
      <g>
       <use xlink:href="#mf925a09864" x="43.803125" y="10.999219" style="stroke: #000000; stroke-width: 0.8"/>
      </g>
     </g>
     <g id="text_4">
      <!-- 1.5 -->
      <g transform="translate(20.9 14.798437) scale(0.1 -0.1)">
       <use xlink:href="#DejaVuSans-31"/>
       <use xlink:href="#DejaVuSans-2e" x="63.623047"/>
       <use xlink:href="#DejaVuSans-35" x="95.410156"/>
      </g>
     </g>
    </g>
    <g id="text_5">
     <!-- $\phi$ -->
     <g transform="translate(14.8 70.536719) rotate(-90) scale(0.1 -0.1)">
      <defs>
       <path id="DejaVuSans-Oblique-3d5" d="M 2991 4863 
L 2738 3572 
Q 3363 3572 3684 3094 
Q 4016 2606 3850 1747 
Q 3681 888 3159 400 
Q 2653 -78 2028 -78 
L 1784 -1331 
L 1213 -1331 
L 1456 -78 
Q 834 -78 509 400 
Q 178 888 347 1747 
Q 513 2606 1034 3094 
Q 1544 3572 2166 3572 
L 2419 4863 
L 2991 4863 
z
M 2128 434 
Q 2481 434 2784 756 
Q 3116 1116 3244 1747 
Q 3369 2372 3169 2738 
Q 2991 3059 2638 3059 
L 2128 434 
z
M 1556 434 
L 2066 3059 
Q 1716 3059 1413 2738 
Q 1072 2372 953 1747 
Q 834 1116 1028 756 
Q 1203 434 1556 434 
z
" transform="scale(0.015625)"/>
      </defs>
      <use xlink:href="#DejaVuSans-Oblique-3d5" transform="translate(0 0.015625)"/>
     </g>
    </g>
   </g>
   <g id="line2d_11">
    <path d="M 42.353156 110.241801 
L 45.253094 110.241801 
L 48.153031 110.236676 
L 51.052969 110.202244 
L 53.952906 110.092044 
L 56.852844 109.841028 
L 59.752781 109.370777 
L 62.652719 108.595918 
L 65.552656 107.431298 
L 68.452594 105.799446 
L 71.352531 103.63782 
L 74.252469 100.905334 
L 77.152406 97.587734 
L 80.052344 93.701425 
L 82.952281 89.295466 
L 85.852219 84.451573 
L 88.752156 79.28205 
L 91.652094 73.925773 
L 94.552031 68.542388 
L 97.451969 63.305073 
L 100.351906 58.392261 
L 103.251844 53.978803 
L 106.151781 50.22709 
L 109.051719 47.278666 
L 111.951656 45.246818 
L 114.851594 44.210592 
L 117.751531 44.210592 
L 120.651469 45.246818 
L 123.551406 47.278666 
L 126.451344 50.22709 
L 129.351281 53.978803 
L 132.251219 58.392261 
L 135.151156 63.305073 
L 138.051094 68.542388 
L 140.951031 73.925773 
L 143.850969 79.28205 
L 146.750906 84.451573 
L 149.650844 89.295466 
L 152.550781 93.701425 
L 155.450719 97.587734 
L 158.350656 100.905334 
L 161.250594 103.63782 
L 164.150531 105.799446 
L 167.050469 107.431298 
L 169.950406 108.595918 
L 172.850344 109.370777 
L 175.750281 109.841028 
L 178.650219 110.092044 
L 181.550156 110.202244 
L 184.450094 110.236676 
L 187.350031 110.241801 
L 190.249969 110.241801 
L 193.149906 110.236676 
L 196.049844 110.202244 
L 198.949781 110.092044 
L 201.849719 109.841028 
L 204.749656 109.370777 
L 207.649594 108.595918 
L 210.549531 107.431298 
L 213.449469 105.799446 
L 216.349406 103.63782 
L 219.249344 100.905334 
L 222.149281 97.587734 
L 225.049219 93.701425 
L 227.949156 89.295466 
L 230.849094 84.451573 
L 233.749031 79.28205 
L 236.648969 73.925773 
L 239.548906 68.542388 
L 242.448844 63.305073 
L 245.348781 58.392261 
L 248.248719 53.978803 
L 251.148656 50.22709 
L 254.048594 47.278666 
L 256.948531 45.246818 
L 259.848469 44.210592 
L 262.748406 44.210592 
L 265.648344 45.246818 
L 268.548281 47.278666 
L 271.448219 50.22709 
L 274.348156 53.978803 
L 277.248094 58.392261 
L 280.148031 63.305073 
L 283.047969 68.542388 
L 285.947906 73.925773 
L 288.847844 79.28205 
L 291.747781 84.451573 
L 294.647719 89.295466 
L 297.547656 93.701425 
L 300.447594 97.587734 
L 303.347531 100.905334 
L 306.247469 103.63782 
L 309.147406 105.799446 
L 312.047344 107.431298 
L 314.947281 108.595918 
L 317.847219 109.370777 
L 320.747156 109.841028 
L 323.647094 110.092044 
L 326.547031 110.202244 
L 329.446969 110.236676 
L 332.346906 110.241801 
L 335.246844 110.241801 
" clip-path="url(#p24bbb35931)" style="fill: none; stroke: #0000ff; stroke-width: 1.5; stroke-linecap: square"/>
   </g>
   <g id="patch_3">
    <path d="M 43.803125 123.474219 
L 43.803125 10.999219 
" style="fill: none; stroke: #000000; stroke-width: 0.8; stroke-linejoin: miter; stroke-linecap: square"/>
   </g>
   <g id="patch_4">
    <path d="M 333.796875 123.474219 
L 333.796875 10.999219 
" style="fill: none; stroke: #000000; stroke-width: 0.8; stroke-linejoin: miter; stroke-linecap: square"/>
   </g>
   <g id="patch_5">
    <path d="M 43.803125 123.474219 
L 333.796875 123.474219 
" style="fill: none; stroke: #000000; stroke-width: 0.8; stroke-linejoin: miter; stroke-linecap: square"/>
   </g>
   <g id="patch_6">
    <path d="M 43.803125 10.999219 
L 333.796875 10.999219 
" style="fill: none; stroke: #000000; stroke-width: 0.8; stroke-linejoin: miter; stroke-linecap: square"/>
   </g>
   <g id="legend_1">
    <g id="patch_7">
     <path d="M 267.0125 33.677344 
L 326.796875 33.677344 
Q 328.796875 33.677344 328.796875 31.677344 
L 328.796875 17.999219 
Q 328.796875 15.999219 326.796875 15.999219 
L 267.0125 15.999219 
Q 265.0125 15.999219 265.0125 17.999219 
L 265.0125 31.677344 
Q 265.0125 33.677344 267.0125 33.677344 
z
" style="fill: #ffffff; opacity: 0.8; stroke: #cccccc; stroke-linejoin: miter"/>
    </g>
    <g id="line2d_12">
     <path d="M 269.0125 24.097656 
L 279.0125 24.097656 
L 289.0125 24.097656 
" style="fill: none; stroke: #0000ff; stroke-width: 1.5; stroke-linecap: square"/>
    </g>
    <g id="text_6">
     <!-- Exact -->
     <g transform="translate(297.0125 27.597656) scale(0.1 -0.1)">
      <defs>
       <path id="DejaVuSans-45" d="M 628 4666 
L 3578 4666 
L 3578 4134 
L 1259 4134 
L 1259 2753 
L 3481 2753 
L 3481 2222 
L 1259 2222 
L 1259 531 
L 3634 531 
L 3634 0 
L 628 0 
L 628 4666 
z
" transform="scale(0.015625)"/>
       <path id="DejaVuSans-78" d="M 3513 3500 
L 2247 1797 
L 3578 0 
L 2900 0 
L 1881 1375 
L 863 0 
L 184 0 
L 1544 1831 
L 300 3500 
L 978 3500 
L 1906 2253 
L 2834 3500 
L 3513 3500 
z
" transform="scale(0.015625)"/>
       <path id="DejaVuSans-61" d="M 2194 1759 
Q 1497 1759 1228 1600 
Q 959 1441 959 1056 
Q 959 750 1161 570 
Q 1363 391 1709 391 
Q 2188 391 2477 730 
Q 2766 1069 2766 1631 
L 2766 1759 
L 2194 1759 
z
M 3341 1997 
L 3341 0 
L 2766 0 
L 2766 531 
Q 2569 213 2275 61 
Q 1981 -91 1556 -91 
Q 1019 -91 701 211 
Q 384 513 384 1019 
Q 384 1609 779 1909 
Q 1175 2209 1959 2209 
L 2766 2209 
L 2766 2266 
Q 2766 2663 2505 2880 
Q 2244 3097 1772 3097 
Q 1472 3097 1187 3025 
Q 903 2953 641 2809 
L 641 3341 
Q 956 3463 1253 3523 
Q 1550 3584 1831 3584 
Q 2591 3584 2966 3190 
Q 3341 2797 3341 1997 
z
" transform="scale(0.015625)"/>
       <path id="DejaVuSans-63" d="M 3122 3366 
L 3122 2828 
Q 2878 2963 2633 3030 
Q 2388 3097 2138 3097 
Q 1578 3097 1268 2742 
Q 959 2388 959 1747 
Q 959 1106 1268 751 
Q 1578 397 2138 397 
Q 2388 397 2633 464 
Q 2878 531 3122 666 
L 3122 134 
Q 2881 22 2623 -34 
Q 2366 -91 2075 -91 
Q 1284 -91 818 406 
Q 353 903 353 1747 
Q 353 2603 823 3093 
Q 1294 3584 2113 3584 
Q 2378 3584 2631 3529 
Q 2884 3475 3122 3366 
z
" transform="scale(0.015625)"/>
       <path id="DejaVuSans-74" d="M 1172 4494 
L 1172 3500 
L 2356 3500 
L 2356 3053 
L 1172 3053 
L 1172 1153 
Q 1172 725 1289 603 
Q 1406 481 1766 481 
L 2356 481 
L 2356 0 
L 1766 0 
Q 1100 0 847 248 
Q 594 497 594 1153 
L 594 3053 
L 172 3053 
L 172 3500 
L 594 3500 
L 594 4494 
L 1172 4494 
z
" transform="scale(0.015625)"/>
      </defs>
      <use xlink:href="#DejaVuSans-45"/>
      <use xlink:href="#DejaVuSans-78" x="63.183594"/>
      <use xlink:href="#DejaVuSans-61" x="122.363281"/>
      <use xlink:href="#DejaVuSans-63" x="183.642578"/>
      <use xlink:href="#DejaVuSans-74" x="238.623047"/>
     </g>
    </g>
   </g>
  </g>
  <g id="axes_2">
   <g id="patch_8">
    <path d="M 43.803125 254.374219 
L 333.796875 254.374219 
L 333.796875 141.899219 
L 43.803125 141.899219 
z
" style="fill: #ffffff"/>
   </g>
   <g id="matplotlib.axis_3">
    <g id="xtick_7">
     <g id="line2d_13">
      <g>
       <use xlink:href="#md60ab8a9c9" x="43.803125" y="254.374219" style="stroke: #000000; stroke-width: 0.8"/>
      </g>
     </g>
    </g>
    <g id="xtick_8">
     <g id="line2d_14">
      <g>
       <use xlink:href="#md60ab8a9c9" x="101.801875" y="254.374219" style="stroke: #000000; stroke-width: 0.8"/>
      </g>
     </g>
    </g>
    <g id="xtick_9">
     <g id="line2d_15">
      <g>
       <use xlink:href="#md60ab8a9c9" x="159.800625" y="254.374219" style="stroke: #000000; stroke-width: 0.8"/>
      </g>
     </g>
    </g>
    <g id="xtick_10">
     <g id="line2d_16">
      <g>
       <use xlink:href="#md60ab8a9c9" x="217.799375" y="254.374219" style="stroke: #000000; stroke-width: 0.8"/>
      </g>
     </g>
    </g>
    <g id="xtick_11">
     <g id="line2d_17">
      <g>
       <use xlink:href="#md60ab8a9c9" x="275.798125" y="254.374219" style="stroke: #000000; stroke-width: 0.8"/>
      </g>
     </g>
    </g>
    <g id="xtick_12">
     <g id="line2d_18">
      <g>
       <use xlink:href="#md60ab8a9c9" x="333.796875" y="254.374219" style="stroke: #000000; stroke-width: 0.8"/>
      </g>
     </g>
    </g>
   </g>
   <g id="matplotlib.axis_4">
    <g id="ytick_5">
     <g id="line2d_19">
      <g>
       <use xlink:href="#mf925a09864" x="43.803125" y="241.141866" style="stroke: #000000; stroke-width: 0.8"/>
      </g>
     </g>
     <g id="text_7">
      <!-- 0.0 -->
      <g transform="translate(20.9 244.941085) scale(0.1 -0.1)">
       <use xlink:href="#DejaVuSans-30"/>
       <use xlink:href="#DejaVuSans-2e" x="63.623047"/>
       <use xlink:href="#DejaVuSans-30" x="95.410156"/>
      </g>
     </g>
    </g>
    <g id="ytick_6">
     <g id="line2d_20">
      <g>
       <use xlink:href="#mf925a09864" x="43.803125" y="208.060983" style="stroke: #000000; stroke-width: 0.8"/>
      </g>
     </g>
     <g id="text_8">
      <!-- 0.5 -->
      <g transform="translate(20.9 211.860202) scale(0.1 -0.1)">
       <use xlink:href="#DejaVuSans-30"/>
       <use xlink:href="#DejaVuSans-2e" x="63.623047"/>
       <use xlink:href="#DejaVuSans-35" x="95.410156"/>
      </g>
     </g>
    </g>
    <g id="ytick_7">
     <g id="line2d_21">
      <g>
       <use xlink:href="#mf925a09864" x="43.803125" y="174.980101" style="stroke: #000000; stroke-width: 0.8"/>
      </g>
     </g>
     <g id="text_9">
      <!-- 1.0 -->
      <g transform="translate(20.9 178.77932) scale(0.1 -0.1)">
       <use xlink:href="#DejaVuSans-31"/>
       <use xlink:href="#DejaVuSans-2e" x="63.623047"/>
       <use xlink:href="#DejaVuSans-30" x="95.410156"/>
      </g>
     </g>
    </g>
    <g id="ytick_8">
     <g id="line2d_22">
      <g>
       <use xlink:href="#mf925a09864" x="43.803125" y="141.899219" style="stroke: #000000; stroke-width: 0.8"/>
      </g>
     </g>
     <g id="text_10">
      <!-- 1.5 -->
      <g transform="translate(20.9 145.698438) scale(0.1 -0.1)">
       <use xlink:href="#DejaVuSans-31"/>
       <use xlink:href="#DejaVuSans-2e" x="63.623047"/>
       <use xlink:href="#DejaVuSans-35" x="95.410156"/>
      </g>
     </g>
    </g>
    <g id="text_11">
     <!-- $\phi$: $t=$5.0 -->
     <g transform="translate(14.8 220.786719) rotate(-90) scale(0.1 -0.1)">
      <defs>
       <path id="DejaVuSans-3a" d="M 750 794 
L 1409 794 
L 1409 0 
L 750 0 
L 750 794 
z
M 750 3309 
L 1409 3309 
L 1409 2516 
L 750 2516 
L 750 3309 
z
" transform="scale(0.015625)"/>
       <path id="DejaVuSans-20" transform="scale(0.015625)"/>
       <path id="DejaVuSans-Oblique-74" d="M 2706 3500 
L 2619 3053 
L 1472 3053 
L 1100 1153 
Q 1081 1047 1072 975 
Q 1063 903 1063 863 
Q 1063 663 1183 572 
Q 1303 481 1569 481 
L 2150 481 
L 2053 0 
L 1503 0 
Q 991 0 739 200 
Q 488 400 488 806 
Q 488 878 497 964 
Q 506 1050 525 1153 
L 897 3053 
L 409 3053 
L 500 3500 
L 978 3500 
L 1172 4494 
L 1747 4494 
L 1556 3500 
L 2706 3500 
z
" transform="scale(0.015625)"/>
       <path id="DejaVuSans-3d" d="M 678 2906 
L 4684 2906 
L 4684 2381 
L 678 2381 
L 678 2906 
z
M 678 1631 
L 4684 1631 
L 4684 1100 
L 678 1100 
L 678 1631 
z
" transform="scale(0.015625)"/>
      </defs>
      <use xlink:href="#DejaVuSans-Oblique-3d5" transform="translate(0 0.015625)"/>
      <use xlink:href="#DejaVuSans-3a" transform="translate(65.966797 0.015625)"/>
      <use xlink:href="#DejaVuSans-20" transform="translate(99.658203 0.015625)"/>
      <use xlink:href="#DejaVuSans-Oblique-74" transform="translate(131.445312 0.015625)"/>
      <use xlink:href="#DejaVuSans-3d" transform="translate(190.136719 0.015625)"/>
      <use xlink:href="#DejaVuSans-35" transform="translate(293.408203 0.015625)"/>
      <use xlink:href="#DejaVuSans-2e" transform="translate(357.03125 0.015625)"/>
      <use xlink:href="#DejaVuSans-30" transform="translate(388.818359 0.015625)"/>
     </g>
    </g>
   </g>
   <g id="line2d_23">
    <path d="M 42.353156 241.141801 
L 45.253094 241.141801 
L 48.153031 241.136676 
L 51.052969 241.102244 
L 53.952906 240.992044 
L 56.852844 240.741028 
L 59.752781 240.270777 
L 62.652719 239.495918 
L 65.552656 238.331298 
L 68.452594 236.699446 
L 71.352531 234.53782 
L 74.252469 231.805334 
L 77.152406 228.487734 
L 80.052344 224.601425 
L 82.952281 220.195466 
L 85.852219 215.351573 
L 88.752156 210.18205 
L 91.652094 204.825773 
L 94.552031 199.442388 
L 97.451969 194.205073 
L 100.351906 189.292261 
L 103.251844 184.878803 
L 106.151781 181.12709 
L 109.051719 178.178666 
L 111.951656 176.146818 
L 114.851594 175.110592 
L 117.751531 175.110592 
L 120.651469 176.146818 
L 123.551406 178.178666 
L 126.451344 181.12709 
L 129.351281 184.878803 
L 132.251219 189.292261 
L 135.151156 194.205073 
L 138.051094 199.442388 
L 140.951031 204.825773 
L 143.850969 210.18205 
L 146.750906 215.351573 
L 149.650844 220.195466 
L 152.550781 224.601425 
L 155.450719 228.487734 
L 158.350656 231.805334 
L 161.250594 234.53782 
L 164.150531 236.699446 
L 167.050469 238.331298 
L 169.950406 239.495918 
L 172.850344 240.270777 
L 175.750281 240.741028 
L 178.650219 240.992044 
L 181.550156 241.102244 
L 184.450094 241.136676 
L 187.350031 241.141801 
L 190.249969 241.141801 
L 193.149906 241.136676 
L 196.049844 241.102244 
L 198.949781 240.992044 
L 201.849719 240.741028 
L 204.749656 240.270777 
L 207.649594 239.495918 
L 210.549531 238.331298 
L 213.449469 236.699446 
L 216.349406 234.53782 
L 219.249344 231.805334 
L 222.149281 228.487734 
L 225.049219 224.601425 
L 227.949156 220.195466 
L 230.849094 215.351573 
L 233.749031 210.18205 
L 236.648969 204.825773 
L 239.548906 199.442388 
L 242.448844 194.205073 
L 245.348781 189.292261 
L 248.248719 184.878803 
L 251.148656 181.12709 
L 254.048594 178.178666 
L 256.948531 176.146818 
L 259.848469 175.110592 
L 262.748406 175.110592 
L 265.648344 176.146818 
L 268.548281 178.178666 
L 271.448219 181.12709 
L 274.348156 184.878803 
L 277.248094 189.292261 
L 280.148031 194.205073 
L 283.047969 199.442388 
L 285.947906 204.825773 
L 288.847844 210.18205 
L 291.747781 215.351573 
L 294.647719 220.195466 
L 297.547656 224.601425 
L 300.447594 228.487734 
L 303.347531 231.805334 
L 306.247469 234.53782 
L 309.147406 236.699446 
L 312.047344 238.331298 
L 314.947281 239.495918 
L 317.847219 240.270777 
L 320.747156 240.741028 
L 323.647094 240.992044 
L 326.547031 241.102244 
L 329.446969 241.136676 
L 332.346906 241.141801 
L 335.246844 241.141801 
" clip-path="url(#pb460602eb7)" style="fill: none; stroke: #0000ff; stroke-width: 1.5; stroke-linecap: square"/>
   </g>
   <g id="line2d_24">
    <path d="M 42.353156 241.665876 
L 45.253094 242.382523 
L 48.153031 243.007449 
L 51.052969 243.465326 
L 53.952906 243.66752 
L 56.852844 243.518607 
L 59.752781 242.923675 
L 62.652719 241.795929 
L 65.552656 240.064105 
L 68.452594 237.679187 
L 71.352531 234.61998 
L 74.252469 230.897134 
L 77.152406 226.555344 
L 80.052344 221.67352 
L 82.952281 216.362891 
L 85.852219 210.763098 
L 88.752156 205.036481 
L 91.652094 199.360865 
L 94.552031 193.92126 
L 97.451969 188.900938 
L 100.351906 184.472422 
L 103.251844 180.7889 
L 106.151781 177.976566 
L 109.051719 176.128356 
L 111.951656 175.29943 
L 114.851594 175.504663 
L 117.751531 176.718303 
L 120.651469 178.875787 
L 123.551406 181.877616 
L 126.451344 185.595037 
L 129.351281 189.877189 
L 132.251219 194.559279 
L 135.151156 199.471291 
L 138.051094 204.446709 
L 140.951031 209.330741 
L 143.850969 213.987556 
L 146.750906 218.306118 
L 149.650844 222.204302 
L 152.550781 225.631072 
L 155.450719 228.566624 
L 158.350656 231.020552 
L 161.250594 233.028184 
L 164.150531 234.645371 
L 167.050469 235.94211 
L 169.950406 236.995439 
L 172.850344 237.882096 
L 175.750281 238.671443 
L 178.650219 239.419136 
L 181.550156 240.161968 
L 184.450094 240.914234 
L 187.350031 241.665876 
L 190.249969 242.382523 
L 193.149906 243.007449 
L 196.049844 243.465326 
L 198.949781 243.66752 
L 201.849719 243.518607 
L 204.749656 242.923675 
L 207.649594 241.795929 
L 210.549531 240.064105 
L 213.449469 237.679187 
L 216.349406 234.61998 
L 219.249344 230.897134 
L 222.149281 226.555344 
L 225.049219 221.67352 
L 227.949156 216.362891 
L 230.849094 210.763098 
L 233.749031 205.036481 
L 236.648969 199.360865 
L 239.548906 193.92126 
L 242.448844 188.900938 
L 245.348781 184.472422 
L 248.248719 180.7889 
L 251.148656 177.976566 
L 254.048594 176.128356 
L 256.948531 175.29943 
L 259.848469 175.504663 
L 262.748406 176.718303 
L 265.648344 178.875787 
L 268.548281 181.877616 
L 271.448219 185.595037 
L 274.348156 189.877189 
L 277.248094 194.559279 
L 280.148031 199.471291 
L 283.047969 204.446709 
L 285.947906 209.330741 
L 288.847844 213.987556 
L 291.747781 218.306118 
L 294.647719 222.204302 
L 297.547656 225.631072 
L 300.447594 228.566624 
L 303.347531 231.020552 
L 306.247469 233.028184 
L 309.147406 234.645371 
L 312.047344 235.94211 
L 314.947281 236.995439 
L 317.847219 237.882096 
L 320.747156 238.671443 
L 323.647094 239.419136 
L 326.547031 240.161968 
L 329.446969 240.914234 
L 332.346906 241.665876 
L 335.246844 242.382523 
" clip-path="url(#pb460602eb7)" style="fill: none; stroke-dasharray: 5.55,2.4; stroke-dashoffset: 0; stroke: #008000; stroke-width: 1.5"/>
   </g>
   <g id="patch_9">
    <path d="M 43.803125 254.374219 
L 43.803125 141.899219 
" style="fill: none; stroke: #000000; stroke-width: 0.8; stroke-linejoin: miter; stroke-linecap: square"/>
   </g>
   <g id="patch_10">
    <path d="M 333.796875 254.374219 
L 333.796875 141.899219 
" style="fill: none; stroke: #000000; stroke-width: 0.8; stroke-linejoin: miter; stroke-linecap: square"/>
   </g>
   <g id="patch_11">
    <path d="M 43.803125 254.374219 
L 333.796875 254.374219 
" style="fill: none; stroke: #000000; stroke-width: 0.8; stroke-linejoin: miter; stroke-linecap: square"/>
   </g>
   <g id="patch_12">
    <path d="M 43.803125 141.899219 
L 333.796875 141.899219 
" style="fill: none; stroke: #000000; stroke-width: 0.8; stroke-linejoin: miter; stroke-linecap: square"/>
   </g>
   <g id="legend_2">
    <g id="patch_13">
     <path d="M 268.9625 164.577344 
L 326.796875 164.577344 
Q 328.796875 164.577344 328.796875 162.577344 
L 328.796875 148.899219 
Q 328.796875 146.899219 326.796875 146.899219 
L 268.9625 146.899219 
Q 266.9625 146.899219 266.9625 148.899219 
L 266.9625 162.577344 
Q 266.9625 164.577344 268.9625 164.577344 
z
" style="fill: #ffffff; opacity: 0.8; stroke: #cccccc; stroke-linejoin: miter"/>
    </g>
    <g id="line2d_25">
     <path d="M 270.9625 154.997656 
L 280.9625 154.997656 
L 290.9625 154.997656 
" style="fill: none; stroke-dasharray: 5.55,2.4; stroke-dashoffset: 0; stroke: #008000; stroke-width: 1.5"/>
    </g>
    <g id="text_12">
     <!-- CTCS -->
     <g transform="translate(298.9625 158.497656) scale(0.1 -0.1)">
      <defs>
       <path id="DejaVuSans-43" d="M 4122 4306 
L 4122 3641 
Q 3803 3938 3442 4084 
Q 3081 4231 2675 4231 
Q 1875 4231 1450 3742 
Q 1025 3253 1025 2328 
Q 1025 1406 1450 917 
Q 1875 428 2675 428 
Q 3081 428 3442 575 
Q 3803 722 4122 1019 
L 4122 359 
Q 3791 134 3420 21 
Q 3050 -91 2638 -91 
Q 1578 -91 968 557 
Q 359 1206 359 2328 
Q 359 3453 968 4101 
Q 1578 4750 2638 4750 
Q 3056 4750 3426 4639 
Q 3797 4528 4122 4306 
z
" transform="scale(0.015625)"/>
       <path id="DejaVuSans-54" d="M -19 4666 
L 3928 4666 
L 3928 4134 
L 2272 4134 
L 2272 0 
L 1638 0 
L 1638 4134 
L -19 4134 
L -19 4666 
z
" transform="scale(0.015625)"/>
       <path id="DejaVuSans-53" d="M 3425 4513 
L 3425 3897 
Q 3066 4069 2747 4153 
Q 2428 4238 2131 4238 
Q 1616 4238 1336 4038 
Q 1056 3838 1056 3469 
Q 1056 3159 1242 3001 
Q 1428 2844 1947 2747 
L 2328 2669 
Q 3034 2534 3370 2195 
Q 3706 1856 3706 1288 
Q 3706 609 3251 259 
Q 2797 -91 1919 -91 
Q 1588 -91 1214 -16 
Q 841 59 441 206 
L 441 856 
Q 825 641 1194 531 
Q 1563 422 1919 422 
Q 2459 422 2753 634 
Q 3047 847 3047 1241 
Q 3047 1584 2836 1778 
Q 2625 1972 2144 2069 
L 1759 2144 
Q 1053 2284 737 2584 
Q 422 2884 422 3419 
Q 422 4038 858 4394 
Q 1294 4750 2059 4750 
Q 2388 4750 2728 4690 
Q 3069 4631 3425 4513 
z
" transform="scale(0.015625)"/>
      </defs>
      <use xlink:href="#DejaVuSans-43"/>
      <use xlink:href="#DejaVuSans-54" x="69.824219"/>
      <use xlink:href="#DejaVuSans-43" x="125.033203"/>
      <use xlink:href="#DejaVuSans-53" x="194.857422"/>
     </g>
    </g>
   </g>
  </g>
  <g id="axes_3">
   <g id="patch_14">
    <path d="M 43.803125 385.274219 
L 333.796875 385.274219 
L 333.796875 272.799219 
L 43.803125 272.799219 
z
" style="fill: #ffffff"/>
   </g>
   <g id="matplotlib.axis_5">
    <g id="xtick_13">
     <g id="line2d_26">
      <g>
       <use xlink:href="#md60ab8a9c9" x="43.803125" y="385.274219" style="stroke: #000000; stroke-width: 0.8"/>
      </g>
     </g>
     <g id="text_13">
      <!-- 0.0 -->
      <g transform="translate(35.851563 399.872656) scale(0.1 -0.1)">
       <use xlink:href="#DejaVuSans-30"/>
       <use xlink:href="#DejaVuSans-2e" x="63.623047"/>
       <use xlink:href="#DejaVuSans-30" x="95.410156"/>
      </g>
     </g>
    </g>
    <g id="xtick_14">
     <g id="line2d_27">
      <g>
       <use xlink:href="#md60ab8a9c9" x="101.801875" y="385.274219" style="stroke: #000000; stroke-width: 0.8"/>
      </g>
     </g>
     <g id="text_14">
      <!-- 0.2 -->
      <g transform="translate(93.850313 399.872656) scale(0.1 -0.1)">
       <defs>
        <path id="DejaVuSans-32" d="M 1228 531 
L 3431 531 
L 3431 0 
L 469 0 
L 469 531 
Q 828 903 1448 1529 
Q 2069 2156 2228 2338 
Q 2531 2678 2651 2914 
Q 2772 3150 2772 3378 
Q 2772 3750 2511 3984 
Q 2250 4219 1831 4219 
Q 1534 4219 1204 4116 
Q 875 4013 500 3803 
L 500 4441 
Q 881 4594 1212 4672 
Q 1544 4750 1819 4750 
Q 2544 4750 2975 4387 
Q 3406 4025 3406 3419 
Q 3406 3131 3298 2873 
Q 3191 2616 2906 2266 
Q 2828 2175 2409 1742 
Q 1991 1309 1228 531 
z
" transform="scale(0.015625)"/>
       </defs>
       <use xlink:href="#DejaVuSans-30"/>
       <use xlink:href="#DejaVuSans-2e" x="63.623047"/>
       <use xlink:href="#DejaVuSans-32" x="95.410156"/>
      </g>
     </g>
    </g>
    <g id="xtick_15">
     <g id="line2d_28">
      <g>
       <use xlink:href="#md60ab8a9c9" x="159.800625" y="385.274219" style="stroke: #000000; stroke-width: 0.8"/>
      </g>
     </g>
     <g id="text_15">
      <!-- 0.4 -->
      <g transform="translate(151.849063 399.872656) scale(0.1 -0.1)">
       <defs>
        <path id="DejaVuSans-34" d="M 2419 4116 
L 825 1625 
L 2419 1625 
L 2419 4116 
z
M 2253 4666 
L 3047 4666 
L 3047 1625 
L 3713 1625 
L 3713 1100 
L 3047 1100 
L 3047 0 
L 2419 0 
L 2419 1100 
L 313 1100 
L 313 1709 
L 2253 4666 
z
" transform="scale(0.015625)"/>
       </defs>
       <use xlink:href="#DejaVuSans-30"/>
       <use xlink:href="#DejaVuSans-2e" x="63.623047"/>
       <use xlink:href="#DejaVuSans-34" x="95.410156"/>
      </g>
     </g>
    </g>
    <g id="xtick_16">
     <g id="line2d_29">
      <g>
       <use xlink:href="#md60ab8a9c9" x="217.799375" y="385.274219" style="stroke: #000000; stroke-width: 0.8"/>
      </g>
     </g>
     <g id="text_16">
      <!-- 0.6 -->
      <g transform="translate(209.847813 399.872656) scale(0.1 -0.1)">
       <defs>
        <path id="DejaVuSans-36" d="M 2113 2584 
Q 1688 2584 1439 2293 
Q 1191 2003 1191 1497 
Q 1191 994 1439 701 
Q 1688 409 2113 409 
Q 2538 409 2786 701 
Q 3034 994 3034 1497 
Q 3034 2003 2786 2293 
Q 2538 2584 2113 2584 
z
M 3366 4563 
L 3366 3988 
Q 3128 4100 2886 4159 
Q 2644 4219 2406 4219 
Q 1781 4219 1451 3797 
Q 1122 3375 1075 2522 
Q 1259 2794 1537 2939 
Q 1816 3084 2150 3084 
Q 2853 3084 3261 2657 
Q 3669 2231 3669 1497 
Q 3669 778 3244 343 
Q 2819 -91 2113 -91 
Q 1303 -91 875 529 
Q 447 1150 447 2328 
Q 447 3434 972 4092 
Q 1497 4750 2381 4750 
Q 2619 4750 2861 4703 
Q 3103 4656 3366 4563 
z
" transform="scale(0.015625)"/>
       </defs>
       <use xlink:href="#DejaVuSans-30"/>
       <use xlink:href="#DejaVuSans-2e" x="63.623047"/>
       <use xlink:href="#DejaVuSans-36" x="95.410156"/>
      </g>
     </g>
    </g>
    <g id="xtick_17">
     <g id="line2d_30">
      <g>
       <use xlink:href="#md60ab8a9c9" x="275.798125" y="385.274219" style="stroke: #000000; stroke-width: 0.8"/>
      </g>
     </g>
     <g id="text_17">
      <!-- 0.8 -->
      <g transform="translate(267.846563 399.872656) scale(0.1 -0.1)">
       <defs>
        <path id="DejaVuSans-38" d="M 2034 2216 
Q 1584 2216 1326 1975 
Q 1069 1734 1069 1313 
Q 1069 891 1326 650 
Q 1584 409 2034 409 
Q 2484 409 2743 651 
Q 3003 894 3003 1313 
Q 3003 1734 2745 1975 
Q 2488 2216 2034 2216 
z
M 1403 2484 
Q 997 2584 770 2862 
Q 544 3141 544 3541 
Q 544 4100 942 4425 
Q 1341 4750 2034 4750 
Q 2731 4750 3128 4425 
Q 3525 4100 3525 3541 
Q 3525 3141 3298 2862 
Q 3072 2584 2669 2484 
Q 3125 2378 3379 2068 
Q 3634 1759 3634 1313 
Q 3634 634 3220 271 
Q 2806 -91 2034 -91 
Q 1263 -91 848 271 
Q 434 634 434 1313 
Q 434 1759 690 2068 
Q 947 2378 1403 2484 
z
M 1172 3481 
Q 1172 3119 1398 2916 
Q 1625 2713 2034 2713 
Q 2441 2713 2670 2916 
Q 2900 3119 2900 3481 
Q 2900 3844 2670 4047 
Q 2441 4250 2034 4250 
Q 1625 4250 1398 4047 
Q 1172 3844 1172 3481 
z
" transform="scale(0.015625)"/>
       </defs>
       <use xlink:href="#DejaVuSans-30"/>
       <use xlink:href="#DejaVuSans-2e" x="63.623047"/>
       <use xlink:href="#DejaVuSans-38" x="95.410156"/>
      </g>
     </g>
    </g>
    <g id="xtick_18">
     <g id="line2d_31">
      <g>
       <use xlink:href="#md60ab8a9c9" x="333.796875" y="385.274219" style="stroke: #000000; stroke-width: 0.8"/>
      </g>
     </g>
     <g id="text_18">
      <!-- 1.0 -->
      <g transform="translate(325.845312 399.872656) scale(0.1 -0.1)">
       <use xlink:href="#DejaVuSans-31"/>
       <use xlink:href="#DejaVuSans-2e" x="63.623047"/>
       <use xlink:href="#DejaVuSans-30" x="95.410156"/>
      </g>
     </g>
    </g>
    <g id="text_19">
     <!-- $x$ -->
     <g transform="translate(185.8 413.550781) scale(0.1 -0.1)">
      <defs>
       <path id="DejaVuSans-Oblique-78" d="M 3841 3500 
L 2234 1784 
L 3219 0 
L 2559 0 
L 1819 1388 
L 531 0 
L -166 0 
L 1556 1844 
L 641 3500 
L 1300 3500 
L 1972 2234 
L 3144 3500 
L 3841 3500 
z
" transform="scale(0.015625)"/>
      </defs>
      <use xlink:href="#DejaVuSans-Oblique-78" transform="translate(0 0.3125)"/>
     </g>
    </g>
   </g>
   <g id="matplotlib.axis_6">
    <g id="ytick_9">
     <g id="line2d_32">
      <g>
       <use xlink:href="#mf925a09864" x="43.803125" y="372.041866" style="stroke: #000000; stroke-width: 0.8"/>
      </g>
     </g>
     <g id="text_20">
      <!-- 0.0 -->
      <g transform="translate(20.9 375.841085) scale(0.1 -0.1)">
       <use xlink:href="#DejaVuSans-30"/>
       <use xlink:href="#DejaVuSans-2e" x="63.623047"/>
       <use xlink:href="#DejaVuSans-30" x="95.410156"/>
      </g>
     </g>
    </g>
    <g id="ytick_10">
     <g id="line2d_33">
      <g>
       <use xlink:href="#mf925a09864" x="43.803125" y="338.960983" style="stroke: #000000; stroke-width: 0.8"/>
      </g>
     </g>
     <g id="text_21">
      <!-- 0.5 -->
      <g transform="translate(20.9 342.760202) scale(0.1 -0.1)">
       <use xlink:href="#DejaVuSans-30"/>
       <use xlink:href="#DejaVuSans-2e" x="63.623047"/>
       <use xlink:href="#DejaVuSans-35" x="95.410156"/>
      </g>
     </g>
    </g>
    <g id="ytick_11">
     <g id="line2d_34">
      <g>
       <use xlink:href="#mf925a09864" x="43.803125" y="305.880101" style="stroke: #000000; stroke-width: 0.8"/>
      </g>
     </g>
     <g id="text_22">
      <!-- 1.0 -->
      <g transform="translate(20.9 309.67932) scale(0.1 -0.1)">
       <use xlink:href="#DejaVuSans-31"/>
       <use xlink:href="#DejaVuSans-2e" x="63.623047"/>
       <use xlink:href="#DejaVuSans-30" x="95.410156"/>
      </g>
     </g>
    </g>
    <g id="ytick_12">
     <g id="line2d_35">
      <g>
       <use xlink:href="#mf925a09864" x="43.803125" y="272.799219" style="stroke: #000000; stroke-width: 0.8"/>
      </g>
     </g>
     <g id="text_23">
      <!-- 1.5 -->
      <g transform="translate(20.9 276.598437) scale(0.1 -0.1)">
       <use xlink:href="#DejaVuSans-31"/>
       <use xlink:href="#DejaVuSans-2e" x="63.623047"/>
       <use xlink:href="#DejaVuSans-35" x="95.410156"/>
      </g>
     </g>
    </g>
    <g id="text_24">
     <!-- $\phi$: $t=$10.0 -->
     <g transform="translate(14.8 354.886719) rotate(-90) scale(0.1 -0.1)">
      <use xlink:href="#DejaVuSans-Oblique-3d5" transform="translate(0 0.015625)"/>
      <use xlink:href="#DejaVuSans-3a" transform="translate(65.966797 0.015625)"/>
      <use xlink:href="#DejaVuSans-20" transform="translate(99.658203 0.015625)"/>
      <use xlink:href="#DejaVuSans-Oblique-74" transform="translate(131.445312 0.015625)"/>
      <use xlink:href="#DejaVuSans-3d" transform="translate(190.136719 0.015625)"/>
      <use xlink:href="#DejaVuSans-31" transform="translate(293.408203 0.015625)"/>
      <use xlink:href="#DejaVuSans-30" transform="translate(357.03125 0.015625)"/>
      <use xlink:href="#DejaVuSans-2e" transform="translate(420.654297 0.015625)"/>
      <use xlink:href="#DejaVuSans-30" transform="translate(452.441406 0.015625)"/>
     </g>
    </g>
   </g>
   <g id="line2d_36">
    <path d="M 42.353156 372.041801 
L 45.253094 372.041801 
L 48.153031 372.036676 
L 51.052969 372.002244 
L 53.952906 371.892044 
L 56.852844 371.641028 
L 59.752781 371.170777 
L 62.652719 370.395918 
L 65.552656 369.231298 
L 68.452594 367.599446 
L 71.352531 365.43782 
L 74.252469 362.705334 
L 77.152406 359.387734 
L 80.052344 355.501425 
L 82.952281 351.095466 
L 85.852219 346.251573 
L 88.752156 341.08205 
L 91.652094 335.725773 
L 94.552031 330.342388 
L 97.451969 325.105073 
L 100.351906 320.192261 
L 103.251844 315.778803 
L 106.151781 312.02709 
L 109.051719 309.078666 
L 111.951656 307.046818 
L 114.851594 306.010592 
L 117.751531 306.010592 
L 120.651469 307.046818 
L 123.551406 309.078666 
L 126.451344 312.02709 
L 129.351281 315.778803 
L 132.251219 320.192261 
L 135.151156 325.105073 
L 138.051094 330.342388 
L 140.951031 335.725773 
L 143.850969 341.08205 
L 146.750906 346.251573 
L 149.650844 351.095466 
L 152.550781 355.501425 
L 155.450719 359.387734 
L 158.350656 362.705334 
L 161.250594 365.43782 
L 164.150531 367.599446 
L 167.050469 369.231298 
L 169.950406 370.395918 
L 172.850344 371.170777 
L 175.750281 371.641028 
L 178.650219 371.892044 
L 181.550156 372.002244 
L 184.450094 372.036676 
L 187.350031 372.041801 
L 190.249969 372.041801 
L 193.149906 372.036676 
L 196.049844 372.002244 
L 198.949781 371.892044 
L 201.849719 371.641028 
L 204.749656 371.170777 
L 207.649594 370.395918 
L 210.549531 369.231298 
L 213.449469 367.599446 
L 216.349406 365.43782 
L 219.249344 362.705334 
L 222.149281 359.387734 
L 225.049219 355.501425 
L 227.949156 351.095466 
L 230.849094 346.251573 
L 233.749031 341.08205 
L 236.648969 335.725773 
L 239.548906 330.342388 
L 242.448844 325.105073 
L 245.348781 320.192261 
L 248.248719 315.778803 
L 251.148656 312.02709 
L 254.048594 309.078666 
L 256.948531 307.046818 
L 259.848469 306.010592 
L 262.748406 306.010592 
L 265.648344 307.046818 
L 268.548281 309.078666 
L 271.448219 312.02709 
L 274.348156 315.778803 
L 277.248094 320.192261 
L 280.148031 325.105073 
L 283.047969 330.342388 
L 285.947906 335.725773 
L 288.847844 341.08205 
L 291.747781 346.251573 
L 294.647719 351.095466 
L 297.547656 355.501425 
L 300.447594 359.387734 
L 303.347531 362.705334 
L 306.247469 365.43782 
L 309.147406 367.599446 
L 312.047344 369.231298 
L 314.947281 370.395918 
L 317.847219 371.170777 
L 320.747156 371.641028 
L 323.647094 371.892044 
L 326.547031 372.002244 
L 329.446969 372.036676 
L 332.346906 372.041801 
L 335.246844 372.041801 
" clip-path="url(#pa3d09c34b4)" style="fill: none; stroke: #0000ff; stroke-width: 1.5; stroke-linecap: square"/>
   </g>
   <g id="line2d_37">
    <path d="M 42.353156 374.752073 
L 45.253094 375.963007 
L 48.153031 376.899675 
L 51.052969 377.455768 
L 53.952906 377.525488 
L 56.852844 377.011323 
L 59.752781 375.831633 
L 62.652719 373.927585 
L 65.552656 371.26894 
L 68.452594 367.858321 
L 71.352531 363.733638 
L 74.252469 358.968493 
L 77.152406 353.670474 
L 80.052344 347.977429 
L 82.952281 342.051871 
L 85.852219 336.073854 
L 88.752156 330.232687 
L 91.652094 324.717976 
L 94.552031 319.710513 
L 97.451969 315.373525 
L 100.351906 311.84481 
L 103.251844 309.230199 
L 106.151781 307.598736 
L 109.051719 306.979842 
L 111.951656 307.362618 
L 114.851594 308.697317 
L 117.751531 310.898872 
L 120.651469 313.852261 
L 123.551406 317.419369 
L 126.451344 321.446915 
L 129.351281 325.774968 
L 132.251219 330.245525 
L 135.151156 334.710643 
L 138.051094 339.039639 
L 140.951031 343.124936 
L 143.850969 346.886231 
L 146.750906 350.272755 
L 149.650844 353.263544 
L 152.550781 355.865723 
L 155.450719 358.110988 
L 158.350656 360.050531 
L 161.250594 361.748796 
L 164.150531 363.276491 
L 167.050469 364.703343 
L 169.950406 366.091106 
L 172.850344 367.487295 
L 175.750281 368.920073 
L 178.650219 370.394654 
L 181.550156 371.891475 
L 184.450094 373.366271 
L 187.350031 374.752073 
L 190.249969 375.963007 
L 193.149906 376.899675 
L 196.049844 377.455768 
L 198.949781 377.525488 
L 201.849719 377.011323 
L 204.749656 375.831633 
L 207.649594 373.927585 
L 210.549531 371.26894 
L 213.449469 367.858321 
L 216.349406 363.733638 
L 219.249344 358.968493 
L 222.149281 353.670474 
L 225.049219 347.977429 
L 227.949156 342.051871 
L 230.849094 336.073854 
L 233.749031 330.232687 
L 236.648969 324.717976 
L 239.548906 319.710513 
L 242.448844 315.373525 
L 245.348781 311.84481 
L 248.248719 309.230199 
L 251.148656 307.598736 
L 254.048594 306.979842 
L 256.948531 307.362618 
L 259.848469 308.697317 
L 262.748406 310.898872 
L 265.648344 313.852261 
L 268.548281 317.419369 
L 271.448219 321.446915 
L 274.348156 325.774968 
L 277.248094 330.245525 
L 280.148031 334.710643 
L 283.047969 339.039639 
L 285.947906 343.124936 
L 288.847844 346.886231 
L 291.747781 350.272755 
L 294.647719 353.263544 
L 297.547656 355.865723 
L 300.447594 358.110988 
L 303.347531 360.050531 
L 306.247469 361.748796 
L 309.147406 363.276491 
L 312.047344 364.703343 
L 314.947281 366.091106 
L 317.847219 367.487295 
L 320.747156 368.920073 
L 323.647094 370.394654 
L 326.547031 371.891475 
L 329.446969 373.366271 
L 332.346906 374.752073 
L 335.246844 375.963007 
" clip-path="url(#pa3d09c34b4)" style="fill: none; stroke-dasharray: 5.55,2.4; stroke-dashoffset: 0; stroke: #008000; stroke-width: 1.5"/>
   </g>
   <g id="patch_15">
    <path d="M 43.803125 385.274219 
L 43.803125 272.799219 
" style="fill: none; stroke: #000000; stroke-width: 0.8; stroke-linejoin: miter; stroke-linecap: square"/>
   </g>
   <g id="patch_16">
    <path d="M 333.796875 385.274219 
L 333.796875 272.799219 
" style="fill: none; stroke: #000000; stroke-width: 0.8; stroke-linejoin: miter; stroke-linecap: square"/>
   </g>
   <g id="patch_17">
    <path d="M 43.803125 385.274219 
L 333.796875 385.274219 
" style="fill: none; stroke: #000000; stroke-width: 0.8; stroke-linejoin: miter; stroke-linecap: square"/>
   </g>
   <g id="patch_18">
    <path d="M 43.803125 272.799219 
L 333.796875 272.799219 
" style="fill: none; stroke: #000000; stroke-width: 0.8; stroke-linejoin: miter; stroke-linecap: square"/>
   </g>
   <g id="legend_3">
    <g id="patch_19">
     <path d="M 268.9625 295.477344 
L 326.796875 295.477344 
Q 328.796875 295.477344 328.796875 293.477344 
L 328.796875 279.799219 
Q 328.796875 277.799219 326.796875 277.799219 
L 268.9625 277.799219 
Q 266.9625 277.799219 266.9625 279.799219 
L 266.9625 293.477344 
Q 266.9625 295.477344 268.9625 295.477344 
z
" style="fill: #ffffff; opacity: 0.8; stroke: #cccccc; stroke-linejoin: miter"/>
    </g>
    <g id="line2d_38">
     <path d="M 270.9625 285.897656 
L 280.9625 285.897656 
L 290.9625 285.897656 
" style="fill: none; stroke-dasharray: 5.55,2.4; stroke-dashoffset: 0; stroke: #008000; stroke-width: 1.5"/>
    </g>
    <g id="text_25">
     <!-- CTCS -->
     <g transform="translate(298.9625 289.397656) scale(0.1 -0.1)">
      <use xlink:href="#DejaVuSans-43"/>
      <use xlink:href="#DejaVuSans-54" x="69.824219"/>
      <use xlink:href="#DejaVuSans-43" x="125.033203"/>
      <use xlink:href="#DejaVuSans-53" x="194.857422"/>
     </g>
    </g>
   </g>
  </g>
 </g>
 <defs>
  <clipPath id="p24bbb35931">
   <rect x="43.803125" y="10.999219" width="289.99375" height="112.475"/>
  </clipPath>
  <clipPath id="pb460602eb7">
   <rect x="43.803125" y="141.899219" width="289.99375" height="112.475"/>
  </clipPath>
  <clipPath id="pa3d09c34b4">
   <rect x="43.803125" y="272.799219" width="289.99375" height="112.475"/>
  </clipPath>
 </defs>
</svg>
