<?xml version="1.0" encoding="utf-8" standalone="no"?>
<!DOCTYPE svg PUBLIC "-//W3C//DTD SVG 1.1//EN"
  "http://www.w3.org/Graphics/SVG/1.1/DTD/svg11.dtd">
<svg xmlns:xlink="http://www.w3.org/1999/xlink" width="351.151563pt" height="493.89625pt" viewBox="0 0 351.151563 493.89625" xmlns="http://www.w3.org/2000/svg" version="1.1">
 <metadata>
  <rdf:RDF xmlns:dc="http://purl.org/dc/elements/1.1/" xmlns:cc="http://creativecommons.org/ns#" xmlns:rdf="http://www.w3.org/1999/02/22-rdf-syntax-ns#">
   <cc:Work>
    <dc:type rdf:resource="http://purl.org/dc/dcmitype/StillImage"/>
    <dc:date>2024-11-01T11:31:19.854259</dc:date>
    <dc:format>image/svg+xml</dc:format>
    <dc:creator>
     <cc:Agent>
      <dc:title>Matplotlib v3.8.3, https://matplotlib.org/</dc:title>
     </cc:Agent>
    </dc:creator>
   </cc:Work>
  </rdf:RDF>
 </metadata>
 <defs>
  <style type="text/css">*{stroke-linejoin: round; stroke-linecap: butt}</style>
 </defs>
 <g id="figure_1">
  <g id="patch_1">
   <path d="M 0 493.89625 
L 351.151563 493.89625 
L 351.151563 0 
L 0 0 
z
" style="fill: #ffffff"/>
  </g>
  <g id="axes_1">
   <g id="patch_2">
    <path d="M 56.50625 209.74 
L 336 209.74 
L 336 22.44 
L 56.50625 22.44 
z
" style="fill: #ffffff"/>
   </g>
   <g id="matplotlib.axis_1">
    <g id="xtick_1">
     <g id="line2d_1">
      <defs>
       <path id="md6e7109eac" d="M 0 0 
L 0 3.5 
" style="stroke: #000000; stroke-width: 0.8"/>
      </defs>
      <g>
       <use xlink:href="#md6e7109eac" x="56.50625" y="209.74" style="stroke: #000000; stroke-width: 0.8"/>
      </g>
     </g>
     <g id="text_1">
      <!-- 0.0 -->
      <g transform="translate(48.554688 224.338437) scale(0.1 -0.1)">
       <defs>
        <path id="DejaVuSans-30" d="M 2034 4250 
Q 1547 4250 1301 3770 
Q 1056 3291 1056 2328 
Q 1056 1369 1301 889 
Q 1547 409 2034 409 
Q 2525 409 2770 889 
Q 3016 1369 3016 2328 
Q 3016 3291 2770 3770 
Q 2525 4250 2034 4250 
z
M 2034 4750 
Q 2819 4750 3233 4129 
Q 3647 3509 3647 2328 
Q 3647 1150 3233 529 
Q 2819 -91 2034 -91 
Q 1250 -91 836 529 
Q 422 1150 422 2328 
Q 422 3509 836 4129 
Q 1250 4750 2034 4750 
z
" transform="scale(0.015625)"/>
        <path id="DejaVuSans-2e" d="M 684 794 
L 1344 794 
L 1344 0 
L 684 0 
L 684 794 
z
" transform="scale(0.015625)"/>
       </defs>
       <use xlink:href="#DejaVuSans-30"/>
       <use xlink:href="#DejaVuSans-2e" x="63.623047"/>
       <use xlink:href="#DejaVuSans-30" x="95.410156"/>
      </g>
     </g>
    </g>
    <g id="xtick_2">
     <g id="line2d_2">
      <g>
       <use xlink:href="#md6e7109eac" x="112.405" y="209.74" style="stroke: #000000; stroke-width: 0.8"/>
      </g>
     </g>
     <g id="text_2">
      <!-- 0.2 -->
      <g transform="translate(104.453438 224.338437) scale(0.1 -0.1)">
       <defs>
        <path id="DejaVuSans-32" d="M 1228 531 
L 3431 531 
L 3431 0 
L 469 0 
L 469 531 
Q 828 903 1448 1529 
Q 2069 2156 2228 2338 
Q 2531 2678 2651 2914 
Q 2772 3150 2772 3378 
Q 2772 3750 2511 3984 
Q 2250 4219 1831 4219 
Q 1534 4219 1204 4116 
Q 875 4013 500 3803 
L 500 4441 
Q 881 4594 1212 4672 
Q 1544 4750 1819 4750 
Q 2544 4750 2975 4387 
Q 3406 4025 3406 3419 
Q 3406 3131 3298 2873 
Q 3191 2616 2906 2266 
Q 2828 2175 2409 1742 
Q 1991 1309 1228 531 
z
" transform="scale(0.015625)"/>
       </defs>
       <use xlink:href="#DejaVuSans-30"/>
       <use xlink:href="#DejaVuSans-2e" x="63.623047"/>
       <use xlink:href="#DejaVuSans-32" x="95.410156"/>
      </g>
     </g>
    </g>
    <g id="xtick_3">
     <g id="line2d_3">
      <g>
       <use xlink:href="#md6e7109eac" x="168.30375" y="209.74" style="stroke: #000000; stroke-width: 0.8"/>
      </g>
     </g>
     <g id="text_3">
      <!-- 0.4 -->
      <g transform="translate(160.352188 224.338437) scale(0.1 -0.1)">
       <defs>
        <path id="DejaVuSans-34" d="M 2419 4116 
L 825 1625 
L 2419 1625 
L 2419 4116 
z
M 2253 4666 
L 3047 4666 
L 3047 1625 
L 3713 1625 
L 3713 1100 
L 3047 1100 
L 3047 0 
L 2419 0 
L 2419 1100 
L 313 1100 
L 313 1709 
L 2253 4666 
z
" transform="scale(0.015625)"/>
       </defs>
       <use xlink:href="#DejaVuSans-30"/>
       <use xlink:href="#DejaVuSans-2e" x="63.623047"/>
       <use xlink:href="#DejaVuSans-34" x="95.410156"/>
      </g>
     </g>
    </g>
    <g id="xtick_4">
     <g id="line2d_4">
      <g>
       <use xlink:href="#md6e7109eac" x="224.2025" y="209.74" style="stroke: #000000; stroke-width: 0.8"/>
      </g>
     </g>
     <g id="text_4">
      <!-- 0.6 -->
      <g transform="translate(216.250938 224.338437) scale(0.1 -0.1)">
       <defs>
        <path id="DejaVuSans-36" d="M 2113 2584 
Q 1688 2584 1439 2293 
Q 1191 2003 1191 1497 
Q 1191 994 1439 701 
Q 1688 409 2113 409 
Q 2538 409 2786 701 
Q 3034 994 3034 1497 
Q 3034 2003 2786 2293 
Q 2538 2584 2113 2584 
z
M 3366 4563 
L 3366 3988 
Q 3128 4100 2886 4159 
Q 2644 4219 2406 4219 
Q 1781 4219 1451 3797 
Q 1122 3375 1075 2522 
Q 1259 2794 1537 2939 
Q 1816 3084 2150 3084 
Q 2853 3084 3261 2657 
Q 3669 2231 3669 1497 
Q 3669 778 3244 343 
Q 2819 -91 2113 -91 
Q 1303 -91 875 529 
Q 447 1150 447 2328 
Q 447 3434 972 4092 
Q 1497 4750 2381 4750 
Q 2619 4750 2861 4703 
Q 3103 4656 3366 4563 
z
" transform="scale(0.015625)"/>
       </defs>
       <use xlink:href="#DejaVuSans-30"/>
       <use xlink:href="#DejaVuSans-2e" x="63.623047"/>
       <use xlink:href="#DejaVuSans-36" x="95.410156"/>
      </g>
     </g>
    </g>
    <g id="xtick_5">
     <g id="line2d_5">
      <g>
       <use xlink:href="#md6e7109eac" x="280.10125" y="209.74" style="stroke: #000000; stroke-width: 0.8"/>
      </g>
     </g>
     <g id="text_5">
      <!-- 0.8 -->
      <g transform="translate(272.149688 224.338437) scale(0.1 -0.1)">
       <defs>
        <path id="DejaVuSans-38" d="M 2034 2216 
Q 1584 2216 1326 1975 
Q 1069 1734 1069 1313 
Q 1069 891 1326 650 
Q 1584 409 2034 409 
Q 2484 409 2743 651 
Q 3003 894 3003 1313 
Q 3003 1734 2745 1975 
Q 2488 2216 2034 2216 
z
M 1403 2484 
Q 997 2584 770 2862 
Q 544 3141 544 3541 
Q 544 4100 942 4425 
Q 1341 4750 2034 4750 
Q 2731 4750 3128 4425 
Q 3525 4100 3525 3541 
Q 3525 3141 3298 2862 
Q 3072 2584 2669 2484 
Q 3125 2378 3379 2068 
Q 3634 1759 3634 1313 
Q 3634 634 3220 271 
Q 2806 -91 2034 -91 
Q 1263 -91 848 271 
Q 434 634 434 1313 
Q 434 1759 690 2068 
Q 947 2378 1403 2484 
z
M 1172 3481 
Q 1172 3119 1398 2916 
Q 1625 2713 2034 2713 
Q 2441 2713 2670 2916 
Q 2900 3119 2900 3481 
Q 2900 3844 2670 4047 
Q 2441 4250 2034 4250 
Q 1625 4250 1398 4047 
Q 1172 3844 1172 3481 
z
" transform="scale(0.015625)"/>
       </defs>
       <use xlink:href="#DejaVuSans-30"/>
       <use xlink:href="#DejaVuSans-2e" x="63.623047"/>
       <use xlink:href="#DejaVuSans-38" x="95.410156"/>
      </g>
     </g>
    </g>
    <g id="xtick_6">
     <g id="line2d_6">
      <g>
       <use xlink:href="#md6e7109eac" x="336" y="209.74" style="stroke: #000000; stroke-width: 0.8"/>
      </g>
     </g>
     <g id="text_6">
      <!-- 1.0 -->
      <g transform="translate(328.048438 224.338437) scale(0.1 -0.1)">
       <defs>
        <path id="DejaVuSans-31" d="M 794 531 
L 1825 531 
L 1825 4091 
L 703 3866 
L 703 4441 
L 1819 4666 
L 2450 4666 
L 2450 531 
L 3481 531 
L 3481 0 
L 794 0 
L 794 531 
z
" transform="scale(0.015625)"/>
       </defs>
       <use xlink:href="#DejaVuSans-31"/>
       <use xlink:href="#DejaVuSans-2e" x="63.623047"/>
       <use xlink:href="#DejaVuSans-30" x="95.410156"/>
      </g>
     </g>
    </g>
    <g id="text_7">
     <!-- $x$ -->
     <g transform="translate(193.253125 238.016563) scale(0.1 -0.1)">
      <defs>
       <path id="DejaVuSans-Oblique-78" d="M 3841 3500 
L 2234 1784 
L 3219 0 
L 2559 0 
L 1819 1388 
L 531 0 
L -166 0 
L 1556 1844 
L 641 3500 
L 1300 3500 
L 1972 2234 
L 3144 3500 
L 3841 3500 
z
" transform="scale(0.015625)"/>
      </defs>
      <use xlink:href="#DejaVuSans-Oblique-78" transform="translate(0 0.3125)"/>
     </g>
    </g>
   </g>
   <g id="matplotlib.axis_2">
    <g id="ytick_1">
     <g id="line2d_7">
      <defs>
       <path id="m5c5e8d0060" d="M 0 0 
L -3.5 0 
" style="stroke: #000000; stroke-width: 0.8"/>
      </defs>
      <g>
       <use xlink:href="#m5c5e8d0060" x="56.50625" y="201.226364" style="stroke: #000000; stroke-width: 0.8"/>
      </g>
     </g>
     <g id="text_8">
      <!-- 0.000 -->
      <g transform="translate(20.878125 205.025582) scale(0.1 -0.1)">
       <use xlink:href="#DejaVuSans-30"/>
       <use xlink:href="#DejaVuSans-2e" x="63.623047"/>
       <use xlink:href="#DejaVuSans-30" x="95.410156"/>
       <use xlink:href="#DejaVuSans-30" x="159.033203"/>
       <use xlink:href="#DejaVuSans-30" x="222.65625"/>
      </g>
     </g>
    </g>
    <g id="ytick_2">
     <g id="line2d_8">
      <g>
       <use xlink:href="#m5c5e8d0060" x="56.50625" y="175.685455" style="stroke: #000000; stroke-width: 0.8"/>
      </g>
     </g>
     <g id="text_9">
      <!-- 0.025 -->
      <g transform="translate(20.878125 179.484673) scale(0.1 -0.1)">
       <defs>
        <path id="DejaVuSans-35" d="M 691 4666 
L 3169 4666 
L 3169 4134 
L 1269 4134 
L 1269 2991 
Q 1406 3038 1543 3061 
Q 1681 3084 1819 3084 
Q 2600 3084 3056 2656 
Q 3513 2228 3513 1497 
Q 3513 744 3044 326 
Q 2575 -91 1722 -91 
Q 1428 -91 1123 -41 
Q 819 9 494 109 
L 494 744 
Q 775 591 1075 516 
Q 1375 441 1709 441 
Q 2250 441 2565 725 
Q 2881 1009 2881 1497 
Q 2881 1984 2565 2268 
Q 2250 2553 1709 2553 
Q 1456 2553 1204 2497 
Q 953 2441 691 2322 
L 691 4666 
z
" transform="scale(0.015625)"/>
       </defs>
       <use xlink:href="#DejaVuSans-30"/>
       <use xlink:href="#DejaVuSans-2e" x="63.623047"/>
       <use xlink:href="#DejaVuSans-30" x="95.410156"/>
       <use xlink:href="#DejaVuSans-32" x="159.033203"/>
       <use xlink:href="#DejaVuSans-35" x="222.65625"/>
      </g>
     </g>
    </g>
    <g id="ytick_3">
     <g id="line2d_9">
      <g>
       <use xlink:href="#m5c5e8d0060" x="56.50625" y="150.144545" style="stroke: #000000; stroke-width: 0.8"/>
      </g>
     </g>
     <g id="text_10">
      <!-- 0.050 -->
      <g transform="translate(20.878125 153.943764) scale(0.1 -0.1)">
       <use xlink:href="#DejaVuSans-30"/>
       <use xlink:href="#DejaVuSans-2e" x="63.623047"/>
       <use xlink:href="#DejaVuSans-30" x="95.410156"/>
       <use xlink:href="#DejaVuSans-35" x="159.033203"/>
       <use xlink:href="#DejaVuSans-30" x="222.65625"/>
      </g>
     </g>
    </g>
    <g id="ytick_4">
     <g id="line2d_10">
      <g>
       <use xlink:href="#m5c5e8d0060" x="56.50625" y="124.603636" style="stroke: #000000; stroke-width: 0.8"/>
      </g>
     </g>
     <g id="text_11">
      <!-- 0.075 -->
      <g transform="translate(20.878125 128.402855) scale(0.1 -0.1)">
       <defs>
        <path id="DejaVuSans-37" d="M 525 4666 
L 3525 4666 
L 3525 4397 
L 1831 0 
L 1172 0 
L 2766 4134 
L 525 4134 
L 525 4666 
z
" transform="scale(0.015625)"/>
       </defs>
       <use xlink:href="#DejaVuSans-30"/>
       <use xlink:href="#DejaVuSans-2e" x="63.623047"/>
       <use xlink:href="#DejaVuSans-30" x="95.410156"/>
       <use xlink:href="#DejaVuSans-37" x="159.033203"/>
       <use xlink:href="#DejaVuSans-35" x="222.65625"/>
      </g>
     </g>
    </g>
    <g id="ytick_5">
     <g id="line2d_11">
      <g>
       <use xlink:href="#m5c5e8d0060" x="56.50625" y="99.062727" style="stroke: #000000; stroke-width: 0.8"/>
      </g>
     </g>
     <g id="text_12">
      <!-- 0.100 -->
      <g transform="translate(20.878125 102.861946) scale(0.1 -0.1)">
       <use xlink:href="#DejaVuSans-30"/>
       <use xlink:href="#DejaVuSans-2e" x="63.623047"/>
       <use xlink:href="#DejaVuSans-31" x="95.410156"/>
       <use xlink:href="#DejaVuSans-30" x="159.033203"/>
       <use xlink:href="#DejaVuSans-30" x="222.65625"/>
      </g>
     </g>
    </g>
    <g id="ytick_6">
     <g id="line2d_12">
      <g>
       <use xlink:href="#m5c5e8d0060" x="56.50625" y="73.521818" style="stroke: #000000; stroke-width: 0.8"/>
      </g>
     </g>
     <g id="text_13">
      <!-- 0.125 -->
      <g transform="translate(20.878125 77.321037) scale(0.1 -0.1)">
       <use xlink:href="#DejaVuSans-30"/>
       <use xlink:href="#DejaVuSans-2e" x="63.623047"/>
       <use xlink:href="#DejaVuSans-31" x="95.410156"/>
       <use xlink:href="#DejaVuSans-32" x="159.033203"/>
       <use xlink:href="#DejaVuSans-35" x="222.65625"/>
      </g>
     </g>
    </g>
    <g id="ytick_7">
     <g id="line2d_13">
      <g>
       <use xlink:href="#m5c5e8d0060" x="56.50625" y="47.980909" style="stroke: #000000; stroke-width: 0.8"/>
      </g>
     </g>
     <g id="text_14">
      <!-- 0.150 -->
      <g transform="translate(20.878125 51.780128) scale(0.1 -0.1)">
       <use xlink:href="#DejaVuSans-30"/>
       <use xlink:href="#DejaVuSans-2e" x="63.623047"/>
       <use xlink:href="#DejaVuSans-31" x="95.410156"/>
       <use xlink:href="#DejaVuSans-35" x="159.033203"/>
       <use xlink:href="#DejaVuSans-30" x="222.65625"/>
      </g>
     </g>
    </g>
    <g id="ytick_8">
     <g id="line2d_14">
      <g>
       <use xlink:href="#m5c5e8d0060" x="56.50625" y="22.44" style="stroke: #000000; stroke-width: 0.8"/>
      </g>
     </g>
     <g id="text_15">
      <!-- 0.175 -->
      <g transform="translate(20.878125 26.239219) scale(0.1 -0.1)">
       <use xlink:href="#DejaVuSans-30"/>
       <use xlink:href="#DejaVuSans-2e" x="63.623047"/>
       <use xlink:href="#DejaVuSans-31" x="95.410156"/>
       <use xlink:href="#DejaVuSans-37" x="159.033203"/>
       <use xlink:href="#DejaVuSans-35" x="222.65625"/>
      </g>
     </g>
    </g>
    <g id="text_16">
     <!-- $\psi$ -->
     <g transform="translate(14.778125 119.39) rotate(-90) scale(0.1 -0.1)">
      <defs>
       <path id="DejaVuSans-Oblique-3c8" d="M 1591 -78 
Q 891 38 616 341 
Q 278 713 425 1472 
L 819 3500 
L 1400 3500 
L 1009 1494 
Q 900 922 1119 684 
Q 1313 478 1691 434 
L 2284 3500 
L 2856 3500 
L 2263 438 
Q 2681 481 2928 688 
Q 3247 950 3353 1497 
L 3741 3500 
L 4322 3500 
L 3928 1475 
Q 3775 688 3300 344 
Q 2872 34 2163 -75 
L 1919 -1331 
L 1347 -1331 
L 1591 -78 
z
" transform="scale(0.015625)"/>
      </defs>
      <use xlink:href="#DejaVuSans-Oblique-3c8" transform="translate(0 0.3125)"/>
     </g>
    </g>
   </g>
   <g id="line2d_15">
    <path d="M 56.50625 201.226364 
L 62.667435 190.212247 
L 68.82862 179.683641 
L 74.989805 169.629604 
L 80.590882 160.892177 
L 86.191959 152.529687 
L 91.793036 144.533913 
L 97.394113 136.896633 
L 102.99519 129.609624 
L 108.596268 122.664663 
L 114.197345 116.053529 
L 119.798422 109.767999 
L 125.399499 103.799851 
L 131.000576 98.140863 
L 136.601653 92.782811 
L 142.20273 87.717474 
L 147.803808 82.93663 
L 153.404885 78.432056 
L 159.005962 74.19553 
L 164.607039 70.218829 
L 170.208116 66.493732 
L 175.809193 63.012015 
L 181.970378 59.453418 
L 188.131563 56.168419 
L 194.292748 53.146075 
L 200.453933 50.37544 
L 206.615118 47.845571 
L 212.776303 45.545525 
L 219.497595 43.285635 
L 226.218888 41.27202 
L 232.94018 39.490472 
L 239.661473 37.926783 
L 246.942873 36.462155 
L 254.224274 35.218469 
L 262.065782 34.105484 
L 270.467397 33.148467 
L 279.429121 32.365548 
L 288.950952 31.765871 
L 299.592998 31.329979 
L 311.915368 31.062592 
L 328.158492 30.957397 
L 336 30.953636 
L 336 30.953636 
" clip-path="url(#pb50fd2070d)" style="fill: none; stroke: #000000; stroke-width: 1.5; stroke-linecap: square"/>
   </g>
   <g id="line2d_16">
    <path d="M 56.50625 201.226364 
L 110.034739 120.935259 
L 132.694179 96.489379 
L 133.776281 95.448491 
L 178.848417 61.22173 
L 230.381763 40.142156 
L 274.504614 32.767299 
L 276.009066 32.637418 
L 280.624512 32.277921 
L 324.300211 30.966126 
L 336 30.953636 
" clip-path="url(#pb50fd2070d)" style="fill: none; stroke-dasharray: 5.55,2.4; stroke-dashoffset: 0; stroke: #0000ff; stroke-width: 1.5"/>
    <defs>
     <path id="mb077f9856e" d="M -3 3 
L 3 -3 
M -3 -3 
L 3 3 
" style="stroke: #0000ff"/>
    </defs>
    <g clip-path="url(#pb50fd2070d)">
     <use xlink:href="#mb077f9856e" x="56.50625" y="201.226364" style="fill: #0000ff; stroke: #0000ff"/>
     <use xlink:href="#mb077f9856e" x="110.034739" y="120.935259" style="fill: #0000ff; stroke: #0000ff"/>
     <use xlink:href="#mb077f9856e" x="132.694179" y="96.489379" style="fill: #0000ff; stroke: #0000ff"/>
     <use xlink:href="#mb077f9856e" x="133.776281" y="95.448491" style="fill: #0000ff; stroke: #0000ff"/>
     <use xlink:href="#mb077f9856e" x="178.848417" y="61.22173" style="fill: #0000ff; stroke: #0000ff"/>
     <use xlink:href="#mb077f9856e" x="230.381763" y="40.142156" style="fill: #0000ff; stroke: #0000ff"/>
     <use xlink:href="#mb077f9856e" x="274.504614" y="32.767299" style="fill: #0000ff; stroke: #0000ff"/>
     <use xlink:href="#mb077f9856e" x="276.009066" y="32.637418" style="fill: #0000ff; stroke: #0000ff"/>
     <use xlink:href="#mb077f9856e" x="280.624512" y="32.277921" style="fill: #0000ff; stroke: #0000ff"/>
     <use xlink:href="#mb077f9856e" x="324.300211" y="30.966126" style="fill: #0000ff; stroke: #0000ff"/>
     <use xlink:href="#mb077f9856e" x="336" y="30.953636" style="fill: #0000ff; stroke: #0000ff"/>
    </g>
   </g>
   <g id="patch_3">
    <path d="M 56.50625 209.74 
L 56.50625 22.44 
" style="fill: none; stroke: #000000; stroke-width: 0.8; stroke-linejoin: miter; stroke-linecap: square"/>
   </g>
   <g id="patch_4">
    <path d="M 336 209.74 
L 336 22.44 
" style="fill: none; stroke: #000000; stroke-width: 0.8; stroke-linejoin: miter; stroke-linecap: square"/>
   </g>
   <g id="patch_5">
    <path d="M 56.50625 209.74 
L 336 209.74 
" style="fill: none; stroke: #000000; stroke-width: 0.8; stroke-linejoin: miter; stroke-linecap: square"/>
   </g>
   <g id="patch_6">
    <path d="M 56.50625 22.44 
L 336 22.44 
" style="fill: none; stroke: #000000; stroke-width: 0.8; stroke-linejoin: miter; stroke-linecap: square"/>
   </g>
   <g id="text_17">
    <!-- $S=1-x, \alpha=0=\beta$ -->
    <g transform="translate(140.933125 16.44) scale(0.12 -0.12)">
     <defs>
      <path id="DejaVuSans-Oblique-53" d="M 3859 4513 
L 3738 3897 
Q 3422 4066 3111 4152 
Q 2800 4238 2509 4238 
Q 1944 4238 1609 3991 
Q 1275 3744 1275 3334 
Q 1275 3109 1398 2989 
Q 1522 2869 2034 2731 
L 2413 2638 
Q 3053 2472 3303 2217 
Q 3553 1963 3553 1503 
Q 3553 797 2998 353 
Q 2444 -91 1538 -91 
Q 1166 -91 791 -17 
Q 416 56 38 206 
L 166 856 
Q 513 641 861 531 
Q 1209 422 1556 422 
Q 2147 422 2503 684 
Q 2859 947 2859 1369 
Q 2859 1650 2717 1795 
Q 2575 1941 2106 2059 
L 1728 2156 
Q 1081 2325 845 2545 
Q 609 2766 609 3163 
Q 609 3859 1145 4304 
Q 1681 4750 2541 4750 
Q 2875 4750 3203 4690 
Q 3531 4631 3859 4513 
z
" transform="scale(0.015625)"/>
      <path id="DejaVuSans-3d" d="M 678 2906 
L 4684 2906 
L 4684 2381 
L 678 2381 
L 678 2906 
z
M 678 1631 
L 4684 1631 
L 4684 1100 
L 678 1100 
L 678 1631 
z
" transform="scale(0.015625)"/>
      <path id="DejaVuSans-2212" d="M 678 2272 
L 4684 2272 
L 4684 1741 
L 678 1741 
L 678 2272 
z
" transform="scale(0.015625)"/>
      <path id="DejaVuSans-2c" d="M 750 794 
L 1409 794 
L 1409 256 
L 897 -744 
L 494 -744 
L 750 256 
L 750 794 
z
" transform="scale(0.015625)"/>
      <path id="DejaVuSans-Oblique-3b1" d="M 2619 1628 
L 2622 2350 
Q 2625 3088 2069 3091 
Q 1653 3094 1394 2747 
Q 1069 2319 959 1747 
Q 825 1059 994 731 
Q 1169 397 1547 397 
Q 1966 397 2319 1063 
L 2619 1628 
z
M 2166 3578 
Q 3141 3594 3128 2584 
Q 3128 2584 3616 3500 
L 4128 3500 
L 3119 1603 
L 3109 919 
Q 3109 766 3194 638 
Q 3291 488 3391 488 
L 3669 488 
L 3575 0 
L 3228 0 
Q 2934 0 2722 263 
Q 2622 394 2619 669 
Q 2416 334 2066 50 
Q 1900 -81 1453 -78 
Q 722 -72 456 397 
Q 184 884 353 1747 
Q 534 2675 1009 3097 
Q 1544 3569 2166 3578 
z
" transform="scale(0.015625)"/>
      <path id="DejaVuSans-Oblique-3b2" d="M 872 216 
L 572 -1331 
L -6 -1331 
L 928 3478 
Q 1206 4903 2538 4903 
Q 3888 4903 3659 3700 
Q 3503 2844 2894 2531 
Q 3713 2250 3553 1416 
Q 3272 -69 1759 -66 
Q 1097 -63 872 216 
z
M 1019 966 
Q 1259 422 1875 425 
Q 2775 425 2966 1406 
Q 3138 2288 1675 2219 
L 1778 2750 
Q 2909 2731 3106 3750 
Q 3241 4438 2509 4434 
Q 1691 4434 1503 3459 
L 1019 966 
z
" transform="scale(0.015625)"/>
     </defs>
     <use xlink:href="#DejaVuSans-Oblique-53" transform="translate(0 0.390625)"/>
     <use xlink:href="#DejaVuSans-3d" transform="translate(82.958984 0.390625)"/>
     <use xlink:href="#DejaVuSans-31" transform="translate(186.230469 0.390625)"/>
     <use xlink:href="#DejaVuSans-2212" transform="translate(269.335938 0.390625)"/>
     <use xlink:href="#DejaVuSans-Oblique-78" transform="translate(372.607422 0.390625)"/>
     <use xlink:href="#DejaVuSans-2c" transform="translate(431.787109 0.390625)"/>
     <use xlink:href="#DejaVuSans-Oblique-3b1" transform="translate(483.056641 0.390625)"/>
     <use xlink:href="#DejaVuSans-3d" transform="translate(568.457031 0.390625)"/>
     <use xlink:href="#DejaVuSans-30" transform="translate(671.728516 0.390625)"/>
     <use xlink:href="#DejaVuSans-3d" transform="translate(754.833984 0.390625)"/>
     <use xlink:href="#DejaVuSans-Oblique-3b2" transform="translate(858.105469 0.390625)"/>
    </g>
   </g>
   <g id="legend_1">
    <g id="patch_7">
     <path d="M 63.50625 59.79625 
L 157.854688 59.79625 
Q 159.854688 59.79625 159.854688 57.79625 
L 159.854688 29.44 
Q 159.854688 27.44 157.854688 27.44 
L 63.50625 27.44 
Q 61.50625 27.44 61.50625 29.44 
L 61.50625 57.79625 
Q 61.50625 59.79625 63.50625 59.79625 
z
" style="fill: #ffffff; opacity: 0.8; stroke: #cccccc; stroke-linejoin: miter"/>
    </g>
    <g id="line2d_17">
     <path d="M 65.50625 35.538437 
L 75.50625 35.538437 
L 85.50625 35.538437 
" style="fill: none; stroke: #000000; stroke-width: 1.5; stroke-linecap: square"/>
    </g>
    <g id="text_18">
     <!-- Exact -->
     <g transform="translate(93.50625 39.038437) scale(0.1 -0.1)">
      <defs>
       <path id="DejaVuSans-45" d="M 628 4666 
L 3578 4666 
L 3578 4134 
L 1259 4134 
L 1259 2753 
L 3481 2753 
L 3481 2222 
L 1259 2222 
L 1259 531 
L 3634 531 
L 3634 0 
L 628 0 
L 628 4666 
z
" transform="scale(0.015625)"/>
       <path id="DejaVuSans-78" d="M 3513 3500 
L 2247 1797 
L 3578 0 
L 2900 0 
L 1881 1375 
L 863 0 
L 184 0 
L 1544 1831 
L 300 3500 
L 978 3500 
L 1906 2253 
L 2834 3500 
L 3513 3500 
z
" transform="scale(0.015625)"/>
       <path id="DejaVuSans-61" d="M 2194 1759 
Q 1497 1759 1228 1600 
Q 959 1441 959 1056 
Q 959 750 1161 570 
Q 1363 391 1709 391 
Q 2188 391 2477 730 
Q 2766 1069 2766 1631 
L 2766 1759 
L 2194 1759 
z
M 3341 1997 
L 3341 0 
L 2766 0 
L 2766 531 
Q 2569 213 2275 61 
Q 1981 -91 1556 -91 
Q 1019 -91 701 211 
Q 384 513 384 1019 
Q 384 1609 779 1909 
Q 1175 2209 1959 2209 
L 2766 2209 
L 2766 2266 
Q 2766 2663 2505 2880 
Q 2244 3097 1772 3097 
Q 1472 3097 1187 3025 
Q 903 2953 641 2809 
L 641 3341 
Q 956 3463 1253 3523 
Q 1550 3584 1831 3584 
Q 2591 3584 2966 3190 
Q 3341 2797 3341 1997 
z
" transform="scale(0.015625)"/>
       <path id="DejaVuSans-63" d="M 3122 3366 
L 3122 2828 
Q 2878 2963 2633 3030 
Q 2388 3097 2138 3097 
Q 1578 3097 1268 2742 
Q 959 2388 959 1747 
Q 959 1106 1268 751 
Q 1578 397 2138 397 
Q 2388 397 2633 464 
Q 2878 531 3122 666 
L 3122 134 
Q 2881 22 2623 -34 
Q 2366 -91 2075 -91 
Q 1284 -91 818 406 
Q 353 903 353 1747 
Q 353 2603 823 3093 
Q 1294 3584 2113 3584 
Q 2378 3584 2631 3529 
Q 2884 3475 3122 3366 
z
" transform="scale(0.015625)"/>
       <path id="DejaVuSans-74" d="M 1172 4494 
L 1172 3500 
L 2356 3500 
L 2356 3053 
L 1172 3053 
L 1172 1153 
Q 1172 725 1289 603 
Q 1406 481 1766 481 
L 2356 481 
L 2356 0 
L 1766 0 
Q 1100 0 847 248 
Q 594 497 594 1153 
L 594 3053 
L 172 3053 
L 172 3500 
L 594 3500 
L 594 4494 
L 1172 4494 
z
" transform="scale(0.015625)"/>
      </defs>
      <use xlink:href="#DejaVuSans-45"/>
      <use xlink:href="#DejaVuSans-78" x="63.183594"/>
      <use xlink:href="#DejaVuSans-61" x="122.363281"/>
      <use xlink:href="#DejaVuSans-63" x="183.642578"/>
      <use xlink:href="#DejaVuSans-74" x="238.623047"/>
     </g>
    </g>
    <g id="line2d_18">
     <path d="M 65.50625 50.216563 
L 75.50625 50.216563 
L 85.50625 50.216563 
" style="fill: none; stroke-dasharray: 5.55,2.4; stroke-dashoffset: 0; stroke: #0000ff; stroke-width: 1.5"/>
     <g>
      <use xlink:href="#mb077f9856e" x="75.50625" y="50.216563" style="fill: #0000ff; stroke: #0000ff"/>
     </g>
    </g>
    <g id="text_19">
     <!-- 10 elements -->
     <g transform="translate(93.50625 53.716563) scale(0.1 -0.1)">
      <defs>
       <path id="DejaVuSans-20" transform="scale(0.015625)"/>
       <path id="DejaVuSans-65" d="M 3597 1894 
L 3597 1613 
L 953 1613 
Q 991 1019 1311 708 
Q 1631 397 2203 397 
Q 2534 397 2845 478 
Q 3156 559 3463 722 
L 3463 178 
Q 3153 47 2828 -22 
Q 2503 -91 2169 -91 
Q 1331 -91 842 396 
Q 353 884 353 1716 
Q 353 2575 817 3079 
Q 1281 3584 2069 3584 
Q 2775 3584 3186 3129 
Q 3597 2675 3597 1894 
z
M 3022 2063 
Q 3016 2534 2758 2815 
Q 2500 3097 2075 3097 
Q 1594 3097 1305 2825 
Q 1016 2553 972 2059 
L 3022 2063 
z
" transform="scale(0.015625)"/>
       <path id="DejaVuSans-6c" d="M 603 4863 
L 1178 4863 
L 1178 0 
L 603 0 
L 603 4863 
z
" transform="scale(0.015625)"/>
       <path id="DejaVuSans-6d" d="M 3328 2828 
Q 3544 3216 3844 3400 
Q 4144 3584 4550 3584 
Q 5097 3584 5394 3201 
Q 5691 2819 5691 2113 
L 5691 0 
L 5113 0 
L 5113 2094 
Q 5113 2597 4934 2840 
Q 4756 3084 4391 3084 
Q 3944 3084 3684 2787 
Q 3425 2491 3425 1978 
L 3425 0 
L 2847 0 
L 2847 2094 
Q 2847 2600 2669 2842 
Q 2491 3084 2119 3084 
Q 1678 3084 1418 2786 
Q 1159 2488 1159 1978 
L 1159 0 
L 581 0 
L 581 3500 
L 1159 3500 
L 1159 2956 
Q 1356 3278 1631 3431 
Q 1906 3584 2284 3584 
Q 2666 3584 2933 3390 
Q 3200 3197 3328 2828 
z
" transform="scale(0.015625)"/>
       <path id="DejaVuSans-6e" d="M 3513 2113 
L 3513 0 
L 2938 0 
L 2938 2094 
Q 2938 2591 2744 2837 
Q 2550 3084 2163 3084 
Q 1697 3084 1428 2787 
Q 1159 2491 1159 1978 
L 1159 0 
L 581 0 
L 581 3500 
L 1159 3500 
L 1159 2956 
Q 1366 3272 1645 3428 
Q 1925 3584 2291 3584 
Q 2894 3584 3203 3211 
Q 3513 2838 3513 2113 
z
" transform="scale(0.015625)"/>
       <path id="DejaVuSans-73" d="M 2834 3397 
L 2834 2853 
Q 2591 2978 2328 3040 
Q 2066 3103 1784 3103 
Q 1356 3103 1142 2972 
Q 928 2841 928 2578 
Q 928 2378 1081 2264 
Q 1234 2150 1697 2047 
L 1894 2003 
Q 2506 1872 2764 1633 
Q 3022 1394 3022 966 
Q 3022 478 2636 193 
Q 2250 -91 1575 -91 
Q 1294 -91 989 -36 
Q 684 19 347 128 
L 347 722 
Q 666 556 975 473 
Q 1284 391 1588 391 
Q 1994 391 2212 530 
Q 2431 669 2431 922 
Q 2431 1156 2273 1281 
Q 2116 1406 1581 1522 
L 1381 1569 
Q 847 1681 609 1914 
Q 372 2147 372 2553 
Q 372 3047 722 3315 
Q 1072 3584 1716 3584 
Q 2034 3584 2315 3537 
Q 2597 3491 2834 3397 
z
" transform="scale(0.015625)"/>
      </defs>
      <use xlink:href="#DejaVuSans-31"/>
      <use xlink:href="#DejaVuSans-30" x="63.623047"/>
      <use xlink:href="#DejaVuSans-20" x="127.246094"/>
      <use xlink:href="#DejaVuSans-65" x="159.033203"/>
      <use xlink:href="#DejaVuSans-6c" x="220.556641"/>
      <use xlink:href="#DejaVuSans-65" x="248.339844"/>
      <use xlink:href="#DejaVuSans-6d" x="309.863281"/>
      <use xlink:href="#DejaVuSans-65" x="407.275391"/>
      <use xlink:href="#DejaVuSans-6e" x="468.798828"/>
      <use xlink:href="#DejaVuSans-74" x="532.177734"/>
      <use xlink:href="#DejaVuSans-73" x="571.386719"/>
     </g>
    </g>
   </g>
  </g>
  <g id="axes_2">
   <g id="patch_8">
    <path d="M 56.50625 456.34 
L 336 456.34 
L 336 269.04 
L 56.50625 269.04 
z
" style="fill: #ffffff"/>
   </g>
   <g id="matplotlib.axis_3">
    <g id="xtick_7">
     <g id="line2d_19">
      <g>
       <use xlink:href="#md6e7109eac" x="56.50625" y="456.34" style="stroke: #000000; stroke-width: 0.8"/>
      </g>
     </g>
     <g id="text_20">
      <!-- 0.0 -->
      <g transform="translate(48.554688 470.938437) scale(0.1 -0.1)">
       <use xlink:href="#DejaVuSans-30"/>
       <use xlink:href="#DejaVuSans-2e" x="63.623047"/>
       <use xlink:href="#DejaVuSans-30" x="95.410156"/>
      </g>
     </g>
    </g>
    <g id="xtick_8">
     <g id="line2d_20">
      <g>
       <use xlink:href="#md6e7109eac" x="112.405" y="456.34" style="stroke: #000000; stroke-width: 0.8"/>
      </g>
     </g>
     <g id="text_21">
      <!-- 0.2 -->
      <g transform="translate(104.453438 470.938437) scale(0.1 -0.1)">
       <use xlink:href="#DejaVuSans-30"/>
       <use xlink:href="#DejaVuSans-2e" x="63.623047"/>
       <use xlink:href="#DejaVuSans-32" x="95.410156"/>
      </g>
     </g>
    </g>
    <g id="xtick_9">
     <g id="line2d_21">
      <g>
       <use xlink:href="#md6e7109eac" x="168.30375" y="456.34" style="stroke: #000000; stroke-width: 0.8"/>
      </g>
     </g>
     <g id="text_22">
      <!-- 0.4 -->
      <g transform="translate(160.352188 470.938437) scale(0.1 -0.1)">
       <use xlink:href="#DejaVuSans-30"/>
       <use xlink:href="#DejaVuSans-2e" x="63.623047"/>
       <use xlink:href="#DejaVuSans-34" x="95.410156"/>
      </g>
     </g>
    </g>
    <g id="xtick_10">
     <g id="line2d_22">
      <g>
       <use xlink:href="#md6e7109eac" x="224.2025" y="456.34" style="stroke: #000000; stroke-width: 0.8"/>
      </g>
     </g>
     <g id="text_23">
      <!-- 0.6 -->
      <g transform="translate(216.250938 470.938437) scale(0.1 -0.1)">
       <use xlink:href="#DejaVuSans-30"/>
       <use xlink:href="#DejaVuSans-2e" x="63.623047"/>
       <use xlink:href="#DejaVuSans-36" x="95.410156"/>
      </g>
     </g>
    </g>
    <g id="xtick_11">
     <g id="line2d_23">
      <g>
       <use xlink:href="#md6e7109eac" x="280.10125" y="456.34" style="stroke: #000000; stroke-width: 0.8"/>
      </g>
     </g>
     <g id="text_24">
      <!-- 0.8 -->
      <g transform="translate(272.149688 470.938437) scale(0.1 -0.1)">
       <use xlink:href="#DejaVuSans-30"/>
       <use xlink:href="#DejaVuSans-2e" x="63.623047"/>
       <use xlink:href="#DejaVuSans-38" x="95.410156"/>
      </g>
     </g>
    </g>
    <g id="xtick_12">
     <g id="line2d_24">
      <g>
       <use xlink:href="#md6e7109eac" x="336" y="456.34" style="stroke: #000000; stroke-width: 0.8"/>
      </g>
     </g>
     <g id="text_25">
      <!-- 1.0 -->
      <g transform="translate(328.048438 470.938437) scale(0.1 -0.1)">
       <use xlink:href="#DejaVuSans-31"/>
       <use xlink:href="#DejaVuSans-2e" x="63.623047"/>
       <use xlink:href="#DejaVuSans-30" x="95.410156"/>
      </g>
     </g>
    </g>
    <g id="text_26">
     <!-- $x$ -->
     <g transform="translate(193.253125 484.616562) scale(0.1 -0.1)">
      <use xlink:href="#DejaVuSans-Oblique-78" transform="translate(0 0.3125)"/>
     </g>
    </g>
   </g>
   <g id="matplotlib.axis_4">
    <g id="ytick_9">
     <g id="line2d_25">
      <g>
       <use xlink:href="#m5c5e8d0060" x="56.50625" y="447.826364" style="stroke: #000000; stroke-width: 0.8"/>
      </g>
     </g>
     <g id="text_27">
      <!-- 0.10 -->
      <g transform="translate(27.240625 451.625582) scale(0.1 -0.1)">
       <use xlink:href="#DejaVuSans-30"/>
       <use xlink:href="#DejaVuSans-2e" x="63.623047"/>
       <use xlink:href="#DejaVuSans-31" x="95.410156"/>
       <use xlink:href="#DejaVuSans-30" x="159.033203"/>
      </g>
     </g>
    </g>
    <g id="ytick_10">
     <g id="line2d_26">
      <g>
       <use xlink:href="#m5c5e8d0060" x="56.50625" y="419.44748" style="stroke: #000000; stroke-width: 0.8"/>
      </g>
     </g>
     <g id="text_28">
      <!-- 0.12 -->
      <g transform="translate(27.240625 423.246698) scale(0.1 -0.1)">
       <use xlink:href="#DejaVuSans-30"/>
       <use xlink:href="#DejaVuSans-2e" x="63.623047"/>
       <use xlink:href="#DejaVuSans-31" x="95.410156"/>
       <use xlink:href="#DejaVuSans-32" x="159.033203"/>
      </g>
     </g>
    </g>
    <g id="ytick_11">
     <g id="line2d_27">
      <g>
       <use xlink:href="#m5c5e8d0060" x="56.50625" y="391.068596" style="stroke: #000000; stroke-width: 0.8"/>
      </g>
     </g>
     <g id="text_29">
      <!-- 0.14 -->
      <g transform="translate(27.240625 394.867814) scale(0.1 -0.1)">
       <use xlink:href="#DejaVuSans-30"/>
       <use xlink:href="#DejaVuSans-2e" x="63.623047"/>
       <use xlink:href="#DejaVuSans-31" x="95.410156"/>
       <use xlink:href="#DejaVuSans-34" x="159.033203"/>
      </g>
     </g>
    </g>
    <g id="ytick_12">
     <g id="line2d_28">
      <g>
       <use xlink:href="#m5c5e8d0060" x="56.50625" y="362.689712" style="stroke: #000000; stroke-width: 0.8"/>
      </g>
     </g>
     <g id="text_30">
      <!-- 0.16 -->
      <g transform="translate(27.240625 366.48893) scale(0.1 -0.1)">
       <use xlink:href="#DejaVuSans-30"/>
       <use xlink:href="#DejaVuSans-2e" x="63.623047"/>
       <use xlink:href="#DejaVuSans-31" x="95.410156"/>
       <use xlink:href="#DejaVuSans-36" x="159.033203"/>
      </g>
     </g>
    </g>
    <g id="ytick_13">
     <g id="line2d_29">
      <g>
       <use xlink:href="#m5c5e8d0060" x="56.50625" y="334.310827" style="stroke: #000000; stroke-width: 0.8"/>
      </g>
     </g>
     <g id="text_31">
      <!-- 0.18 -->
      <g transform="translate(27.240625 338.110046) scale(0.1 -0.1)">
       <use xlink:href="#DejaVuSans-30"/>
       <use xlink:href="#DejaVuSans-2e" x="63.623047"/>
       <use xlink:href="#DejaVuSans-31" x="95.410156"/>
       <use xlink:href="#DejaVuSans-38" x="159.033203"/>
      </g>
     </g>
    </g>
    <g id="ytick_14">
     <g id="line2d_30">
      <g>
       <use xlink:href="#m5c5e8d0060" x="56.50625" y="305.931943" style="stroke: #000000; stroke-width: 0.8"/>
      </g>
     </g>
     <g id="text_32">
      <!-- 0.20 -->
      <g transform="translate(27.240625 309.731162) scale(0.1 -0.1)">
       <use xlink:href="#DejaVuSans-30"/>
       <use xlink:href="#DejaVuSans-2e" x="63.623047"/>
       <use xlink:href="#DejaVuSans-32" x="95.410156"/>
       <use xlink:href="#DejaVuSans-30" x="159.033203"/>
      </g>
     </g>
    </g>
    <g id="ytick_15">
     <g id="line2d_31">
      <g>
       <use xlink:href="#m5c5e8d0060" x="56.50625" y="277.553059" style="stroke: #000000; stroke-width: 0.8"/>
      </g>
     </g>
     <g id="text_33">
      <!-- 0.22 -->
      <g transform="translate(27.240625 281.352278) scale(0.1 -0.1)">
       <use xlink:href="#DejaVuSans-30"/>
       <use xlink:href="#DejaVuSans-2e" x="63.623047"/>
       <use xlink:href="#DejaVuSans-32" x="95.410156"/>
       <use xlink:href="#DejaVuSans-32" x="159.033203"/>
      </g>
     </g>
    </g>
    <g id="text_34">
     <!-- $\psi$ -->
     <g transform="translate(21.140625 365.99) rotate(-90) scale(0.1 -0.1)">
      <use xlink:href="#DejaVuSans-Oblique-3c8" transform="translate(0 0.3125)"/>
     </g>
    </g>
   </g>
   <g id="line2d_32">
    <path d="M 56.50625 447.826364 
L 131.000576 334.561628 
L 135.481438 328.295504 
L 139.9623 322.394088 
L 144.443161 316.857378 
L 148.924023 311.685376 
L 153.404885 306.878081 
L 157.325639 302.970871 
L 161.246393 299.34289 
L 165.167147 295.994138 
L 169.087901 292.924615 
L 173.008655 290.134321 
L 176.929409 287.623256 
L 180.850163 285.39142 
L 184.770917 283.438812 
L 188.691671 281.765433 
L 192.052317 280.553352 
L 195.412963 279.546419 
L 198.77361 278.744633 
L 202.134256 278.147995 
L 205.494902 277.756505 
L 208.855549 277.570162 
L 212.216195 277.588967 
L 215.576841 277.81292 
L 218.937487 278.242021 
L 222.298134 278.876269 
L 225.65878 279.715666 
L 229.019426 280.760209 
L 232.380073 282.009901 
L 236.300827 283.727159 
L 240.221581 285.723645 
L 244.142335 287.99936 
L 248.063089 290.554304 
L 251.983843 293.388477 
L 255.904597 296.501879 
L 259.825351 299.89451 
L 263.746105 303.566369 
L 268.787074 308.63334 
L 336 376.879154 
L 336 376.879154 
" clip-path="url(#p07f1257cd0)" style="fill: none; stroke: #000000; stroke-width: 1.5; stroke-linecap: square"/>
   </g>
   <g id="line2d_33">
    <path d="M 56.50625 447.826364 
L 110.034739 374.727891 
L 132.694179 345.338592 
L 133.776281 344.094203 
L 178.848417 311.155854 
L 230.381763 318.710568 
L 274.504614 357.61765 
L 276.009066 359.145222 
L 280.624512 363.831595 
L 324.300211 408.178476 
L 336 420.05806 
" clip-path="url(#p07f1257cd0)" style="fill: none; stroke-dasharray: 5.55,2.4; stroke-dashoffset: 0; stroke: #0000ff; stroke-width: 1.5"/>
    <g clip-path="url(#p07f1257cd0)">
     <use xlink:href="#mb077f9856e" x="56.50625" y="447.826364" style="fill: #0000ff; stroke: #0000ff"/>
     <use xlink:href="#mb077f9856e" x="110.034739" y="374.727891" style="fill: #0000ff; stroke: #0000ff"/>
     <use xlink:href="#mb077f9856e" x="132.694179" y="345.338592" style="fill: #0000ff; stroke: #0000ff"/>
     <use xlink:href="#mb077f9856e" x="133.776281" y="344.094203" style="fill: #0000ff; stroke: #0000ff"/>
     <use xlink:href="#mb077f9856e" x="178.848417" y="311.155854" style="fill: #0000ff; stroke: #0000ff"/>
     <use xlink:href="#mb077f9856e" x="230.381763" y="318.710568" style="fill: #0000ff; stroke: #0000ff"/>
     <use xlink:href="#mb077f9856e" x="274.504614" y="357.61765" style="fill: #0000ff; stroke: #0000ff"/>
     <use xlink:href="#mb077f9856e" x="276.009066" y="359.145222" style="fill: #0000ff; stroke: #0000ff"/>
     <use xlink:href="#mb077f9856e" x="280.624512" y="363.831595" style="fill: #0000ff; stroke: #0000ff"/>
     <use xlink:href="#mb077f9856e" x="324.300211" y="408.178476" style="fill: #0000ff; stroke: #0000ff"/>
     <use xlink:href="#mb077f9856e" x="336" y="420.05806" style="fill: #0000ff; stroke: #0000ff"/>
    </g>
   </g>
   <g id="line2d_34">
    <path d="M 56.50625 447.826364 
L 60.354446 441.756161 
L 110.034739 363.389702 
L 132.694179 329.200772 
L 133.776281 327.727177 
L 156.513941 301.682233 
L 159.989022 298.528998 
L 178.848417 285.241829 
L 196.531256 278.652239 
L 197.11485 278.531578 
L 213.357077 277.655479 
L 230.381763 281.880958 
L 247.529869 291.459227 
L 255.702012 297.903166 
L 272.506461 314.110949 
L 274.504614 316.139809 
L 276.009066 317.66738 
L 280.624512 322.353754 
L 301.323947 343.371285 
L 324.300211 366.700635 
L 336 378.580219 
" clip-path="url(#p07f1257cd0)" style="fill: none; stroke-dasharray: 1.5,2.475; stroke-dashoffset: 0; stroke: #ff0000; stroke-width: 1.5"/>
    <defs>
     <path id="m82dd50d6db" d="M -3 0 
L 3 0 
M 0 3 
L 0 -3 
" style="stroke: #ff0000"/>
    </defs>
    <g clip-path="url(#p07f1257cd0)">
     <use xlink:href="#m82dd50d6db" x="56.50625" y="447.826364" style="fill: #ff0000; stroke: #ff0000"/>
     <use xlink:href="#m82dd50d6db" x="60.354446" y="441.756161" style="fill: #ff0000; stroke: #ff0000"/>
     <use xlink:href="#m82dd50d6db" x="110.034739" y="363.389702" style="fill: #ff0000; stroke: #ff0000"/>
     <use xlink:href="#m82dd50d6db" x="132.694179" y="329.200772" style="fill: #ff0000; stroke: #ff0000"/>
     <use xlink:href="#m82dd50d6db" x="133.776281" y="327.727177" style="fill: #ff0000; stroke: #ff0000"/>
     <use xlink:href="#m82dd50d6db" x="156.513941" y="301.682233" style="fill: #ff0000; stroke: #ff0000"/>
     <use xlink:href="#m82dd50d6db" x="159.989022" y="298.528998" style="fill: #ff0000; stroke: #ff0000"/>
     <use xlink:href="#m82dd50d6db" x="178.848417" y="285.241829" style="fill: #ff0000; stroke: #ff0000"/>
     <use xlink:href="#m82dd50d6db" x="196.531256" y="278.652239" style="fill: #ff0000; stroke: #ff0000"/>
     <use xlink:href="#m82dd50d6db" x="197.11485" y="278.531578" style="fill: #ff0000; stroke: #ff0000"/>
     <use xlink:href="#m82dd50d6db" x="213.357077" y="277.655479" style="fill: #ff0000; stroke: #ff0000"/>
     <use xlink:href="#m82dd50d6db" x="230.381763" y="281.880958" style="fill: #ff0000; stroke: #ff0000"/>
     <use xlink:href="#m82dd50d6db" x="247.529869" y="291.459227" style="fill: #ff0000; stroke: #ff0000"/>
     <use xlink:href="#m82dd50d6db" x="255.702012" y="297.903166" style="fill: #ff0000; stroke: #ff0000"/>
     <use xlink:href="#m82dd50d6db" x="272.506461" y="314.110949" style="fill: #ff0000; stroke: #ff0000"/>
     <use xlink:href="#m82dd50d6db" x="274.504614" y="316.139809" style="fill: #ff0000; stroke: #ff0000"/>
     <use xlink:href="#m82dd50d6db" x="276.009066" y="317.66738" style="fill: #ff0000; stroke: #ff0000"/>
     <use xlink:href="#m82dd50d6db" x="280.624512" y="322.353754" style="fill: #ff0000; stroke: #ff0000"/>
     <use xlink:href="#m82dd50d6db" x="301.323947" y="343.371285" style="fill: #ff0000; stroke: #ff0000"/>
     <use xlink:href="#m82dd50d6db" x="324.300211" y="366.700635" style="fill: #ff0000; stroke: #ff0000"/>
     <use xlink:href="#m82dd50d6db" x="336" y="378.580219" style="fill: #ff0000; stroke: #ff0000"/>
    </g>
   </g>
   <g id="patch_9">
    <path d="M 56.50625 456.34 
L 56.50625 269.04 
" style="fill: none; stroke: #000000; stroke-width: 0.8; stroke-linejoin: miter; stroke-linecap: square"/>
   </g>
   <g id="patch_10">
    <path d="M 336 456.34 
L 336 269.04 
" style="fill: none; stroke: #000000; stroke-width: 0.8; stroke-linejoin: miter; stroke-linecap: square"/>
   </g>
   <g id="patch_11">
    <path d="M 56.50625 456.34 
L 336 456.34 
" style="fill: none; stroke: #000000; stroke-width: 0.8; stroke-linejoin: miter; stroke-linecap: square"/>
   </g>
   <g id="patch_12">
    <path d="M 56.50625 269.04 
L 336 269.04 
" style="fill: none; stroke: #000000; stroke-width: 0.8; stroke-linejoin: miter; stroke-linecap: square"/>
   </g>
   <g id="text_35">
    <!-- $S=1$ in centre, piecewise, $\alpha=0.1, \beta=-0.2$ -->
    <g transform="translate(63.773125 263.04) scale(0.12 -0.12)">
     <defs>
      <path id="DejaVuSans-69" d="M 603 3500 
L 1178 3500 
L 1178 0 
L 603 0 
L 603 3500 
z
M 603 4863 
L 1178 4863 
L 1178 4134 
L 603 4134 
L 603 4863 
z
" transform="scale(0.015625)"/>
      <path id="DejaVuSans-72" d="M 2631 2963 
Q 2534 3019 2420 3045 
Q 2306 3072 2169 3072 
Q 1681 3072 1420 2755 
Q 1159 2438 1159 1844 
L 1159 0 
L 581 0 
L 581 3500 
L 1159 3500 
L 1159 2956 
Q 1341 3275 1631 3429 
Q 1922 3584 2338 3584 
Q 2397 3584 2469 3576 
Q 2541 3569 2628 3553 
L 2631 2963 
z
" transform="scale(0.015625)"/>
      <path id="DejaVuSans-70" d="M 1159 525 
L 1159 -1331 
L 581 -1331 
L 581 3500 
L 1159 3500 
L 1159 2969 
Q 1341 3281 1617 3432 
Q 1894 3584 2278 3584 
Q 2916 3584 3314 3078 
Q 3713 2572 3713 1747 
Q 3713 922 3314 415 
Q 2916 -91 2278 -91 
Q 1894 -91 1617 61 
Q 1341 213 1159 525 
z
M 3116 1747 
Q 3116 2381 2855 2742 
Q 2594 3103 2138 3103 
Q 1681 3103 1420 2742 
Q 1159 2381 1159 1747 
Q 1159 1113 1420 752 
Q 1681 391 2138 391 
Q 2594 391 2855 752 
Q 3116 1113 3116 1747 
z
" transform="scale(0.015625)"/>
      <path id="DejaVuSans-77" d="M 269 3500 
L 844 3500 
L 1563 769 
L 2278 3500 
L 2956 3500 
L 3675 769 
L 4391 3500 
L 4966 3500 
L 4050 0 
L 3372 0 
L 2619 2869 
L 1863 0 
L 1184 0 
L 269 3500 
z
" transform="scale(0.015625)"/>
     </defs>
     <use xlink:href="#DejaVuSans-Oblique-53" transform="translate(0 0.390625)"/>
     <use xlink:href="#DejaVuSans-3d" transform="translate(82.958984 0.390625)"/>
     <use xlink:href="#DejaVuSans-31" transform="translate(186.230469 0.390625)"/>
     <use xlink:href="#DejaVuSans-20" transform="translate(249.853516 0.390625)"/>
     <use xlink:href="#DejaVuSans-69" transform="translate(281.640625 0.390625)"/>
     <use xlink:href="#DejaVuSans-6e" transform="translate(309.423828 0.390625)"/>
     <use xlink:href="#DejaVuSans-20" transform="translate(372.802734 0.390625)"/>
     <use xlink:href="#DejaVuSans-63" transform="translate(404.589844 0.390625)"/>
     <use xlink:href="#DejaVuSans-65" transform="translate(459.570312 0.390625)"/>
     <use xlink:href="#DejaVuSans-6e" transform="translate(521.09375 0.390625)"/>
     <use xlink:href="#DejaVuSans-74" transform="translate(584.472656 0.390625)"/>
     <use xlink:href="#DejaVuSans-72" transform="translate(623.681641 0.390625)"/>
     <use xlink:href="#DejaVuSans-65" transform="translate(664.794922 0.390625)"/>
     <use xlink:href="#DejaVuSans-2c" transform="translate(726.318359 0.390625)"/>
     <use xlink:href="#DejaVuSans-20" transform="translate(758.105469 0.390625)"/>
     <use xlink:href="#DejaVuSans-70" transform="translate(789.892578 0.390625)"/>
     <use xlink:href="#DejaVuSans-69" transform="translate(853.369141 0.390625)"/>
     <use xlink:href="#DejaVuSans-65" transform="translate(881.152344 0.390625)"/>
     <use xlink:href="#DejaVuSans-63" transform="translate(942.675781 0.390625)"/>
     <use xlink:href="#DejaVuSans-65" transform="translate(997.65625 0.390625)"/>
     <use xlink:href="#DejaVuSans-77" transform="translate(1059.179688 0.390625)"/>
     <use xlink:href="#DejaVuSans-69" transform="translate(1140.966797 0.390625)"/>
     <use xlink:href="#DejaVuSans-73" transform="translate(1168.75 0.390625)"/>
     <use xlink:href="#DejaVuSans-65" transform="translate(1220.849609 0.390625)"/>
     <use xlink:href="#DejaVuSans-2c" transform="translate(1282.373047 0.390625)"/>
     <use xlink:href="#DejaVuSans-20" transform="translate(1314.160156 0.390625)"/>
     <use xlink:href="#DejaVuSans-Oblique-3b1" transform="translate(1345.947266 0.390625)"/>
     <use xlink:href="#DejaVuSans-3d" transform="translate(1431.347656 0.390625)"/>
     <use xlink:href="#DejaVuSans-30" transform="translate(1534.619141 0.390625)"/>
     <use xlink:href="#DejaVuSans-2e" transform="translate(1598.242188 0.390625)"/>
     <use xlink:href="#DejaVuSans-31" transform="translate(1630.029297 0.390625)"/>
     <use xlink:href="#DejaVuSans-2c" transform="translate(1693.652344 0.390625)"/>
     <use xlink:href="#DejaVuSans-Oblique-3b2" transform="translate(1744.921875 0.390625)"/>
     <use xlink:href="#DejaVuSans-3d" transform="translate(1828.222656 0.390625)"/>
     <use xlink:href="#DejaVuSans-2212" transform="translate(1950.976562 0.390625)"/>
     <use xlink:href="#DejaVuSans-30" transform="translate(2054.248047 0.390625)"/>
     <use xlink:href="#DejaVuSans-2e" transform="translate(2117.871094 0.390625)"/>
     <use xlink:href="#DejaVuSans-32" transform="translate(2144.158203 0.390625)"/>
    </g>
   </g>
   <g id="legend_2">
    <g id="patch_13">
     <path d="M 149.078906 451.34 
L 243.427344 451.34 
Q 245.427344 451.34 245.427344 449.34 
L 245.427344 406.305625 
Q 245.427344 404.305625 243.427344 404.305625 
L 149.078906 404.305625 
Q 147.078906 404.305625 147.078906 406.305625 
L 147.078906 449.34 
Q 147.078906 451.34 149.078906 451.34 
z
" style="fill: #ffffff; opacity: 0.8; stroke: #cccccc; stroke-linejoin: miter"/>
    </g>
    <g id="line2d_35">
     <path d="M 151.078906 412.404062 
L 161.078906 412.404062 
L 171.078906 412.404062 
" style="fill: none; stroke: #000000; stroke-width: 1.5; stroke-linecap: square"/>
    </g>
    <g id="text_36">
     <!-- Exact -->
     <g transform="translate(179.078906 415.904062) scale(0.1 -0.1)">
      <use xlink:href="#DejaVuSans-45"/>
      <use xlink:href="#DejaVuSans-78" x="63.183594"/>
      <use xlink:href="#DejaVuSans-61" x="122.363281"/>
      <use xlink:href="#DejaVuSans-63" x="183.642578"/>
      <use xlink:href="#DejaVuSans-74" x="238.623047"/>
     </g>
    </g>
    <g id="line2d_36">
     <path d="M 151.078906 427.082187 
L 161.078906 427.082187 
L 171.078906 427.082187 
" style="fill: none; stroke-dasharray: 5.55,2.4; stroke-dashoffset: 0; stroke: #0000ff; stroke-width: 1.5"/>
     <g>
      <use xlink:href="#mb077f9856e" x="161.078906" y="427.082187" style="fill: #0000ff; stroke: #0000ff"/>
     </g>
    </g>
    <g id="text_37">
     <!-- 10 elements -->
     <g transform="translate(179.078906 430.582187) scale(0.1 -0.1)">
      <use xlink:href="#DejaVuSans-31"/>
      <use xlink:href="#DejaVuSans-30" x="63.623047"/>
      <use xlink:href="#DejaVuSans-20" x="127.246094"/>
      <use xlink:href="#DejaVuSans-65" x="159.033203"/>
      <use xlink:href="#DejaVuSans-6c" x="220.556641"/>
      <use xlink:href="#DejaVuSans-65" x="248.339844"/>
      <use xlink:href="#DejaVuSans-6d" x="309.863281"/>
      <use xlink:href="#DejaVuSans-65" x="407.275391"/>
      <use xlink:href="#DejaVuSans-6e" x="468.798828"/>
      <use xlink:href="#DejaVuSans-74" x="532.177734"/>
      <use xlink:href="#DejaVuSans-73" x="571.386719"/>
     </g>
    </g>
    <g id="line2d_37">
     <path d="M 151.078906 441.760312 
L 161.078906 441.760312 
L 171.078906 441.760312 
" style="fill: none; stroke-dasharray: 1.5,2.475; stroke-dashoffset: 0; stroke: #ff0000; stroke-width: 1.5"/>
     <g>
      <use xlink:href="#m82dd50d6db" x="161.078906" y="441.760312" style="fill: #ff0000; stroke: #ff0000"/>
     </g>
    </g>
    <g id="text_38">
     <!-- 20 elements -->
     <g transform="translate(179.078906 445.260312) scale(0.1 -0.1)">
      <use xlink:href="#DejaVuSans-32"/>
      <use xlink:href="#DejaVuSans-30" x="63.623047"/>
      <use xlink:href="#DejaVuSans-20" x="127.246094"/>
      <use xlink:href="#DejaVuSans-65" x="159.033203"/>
      <use xlink:href="#DejaVuSans-6c" x="220.556641"/>
      <use xlink:href="#DejaVuSans-65" x="248.339844"/>
      <use xlink:href="#DejaVuSans-6d" x="309.863281"/>
      <use xlink:href="#DejaVuSans-65" x="407.275391"/>
      <use xlink:href="#DejaVuSans-6e" x="468.798828"/>
      <use xlink:href="#DejaVuSans-74" x="532.177734"/>
      <use xlink:href="#DejaVuSans-73" x="571.386719"/>
     </g>
    </g>
   </g>
  </g>
 </g>
 <defs>
  <clipPath id="pb50fd2070d">
   <rect x="56.50625" y="22.44" width="279.49375" height="187.3"/>
  </clipPath>
  <clipPath id="p07f1257cd0">
   <rect x="56.50625" y="269.04" width="279.49375" height="187.3"/>
  </clipPath>
 </defs>
</svg>
