<?xml version="1.0" encoding="utf-8" standalone="no"?>
<!DOCTYPE svg PUBLIC "-//W3C//DTD SVG 1.1//EN"
  "http://www.w3.org/Graphics/SVG/1.1/DTD/svg11.dtd">
<svg xmlns:xlink="http://www.w3.org/1999/xlink" width="420.667554pt" height="711.15625pt" viewBox="0 0 420.667554 711.15625" xmlns="http://www.w3.org/2000/svg" version="1.1">
 <metadata>
  <rdf:RDF xmlns:dc="http://purl.org/dc/elements/1.1/" xmlns:cc="http://creativecommons.org/ns#" xmlns:rdf="http://www.w3.org/1999/02/22-rdf-syntax-ns#">
   <cc:Work>
    <dc:type rdf:resource="http://purl.org/dc/dcmitype/StillImage"/>
    <dc:date>2024-10-25T15:17:31.726393</dc:date>
    <dc:format>image/svg+xml</dc:format>
    <dc:creator>
     <cc:Agent>
      <dc:title>Matplotlib v3.8.3, https://matplotlib.org/</dc:title>
     </cc:Agent>
    </dc:creator>
   </cc:Work>
  </rdf:RDF>
 </metadata>
 <defs>
  <style type="text/css">*{stroke-linejoin: round; stroke-linecap: butt}</style>
 </defs>
 <g id="figure_1">
  <g id="patch_1">
   <path d="M 0 711.15625 
L 420.667554 711.15625 
L 420.667554 0 
L 0 0 
z
" style="fill: #ffffff"/>
  </g>
  <g id="axes_1">
   <g id="patch_2">
    <path d="M 51.8 316.601861 
L 405.515992 316.601861 
L 405.515992 7.2 
L 51.8 7.2 
z
" style="fill: #ffffff"/>
   </g>
   <g id="matplotlib.axis_1">
    <g id="xtick_1">
     <g id="line2d_1">
      <defs>
       <path id="m6de6b1a94a" d="M 0 0 
L 0 3.5 
" style="stroke: #000000; stroke-width: 0.8"/>
      </defs>
      <g>
       <use xlink:href="#m6de6b1a94a" x="51.8" y="316.601861" style="stroke: #000000; stroke-width: 0.8"/>
      </g>
     </g>
     <g id="text_1">
      <!-- 0.0 -->
      <g transform="translate(43.848438 331.200298) scale(0.1 -0.1)">
       <defs>
        <path id="DejaVuSans-30" d="M 2034 4250 
Q 1547 4250 1301 3770 
Q 1056 3291 1056 2328 
Q 1056 1369 1301 889 
Q 1547 409 2034 409 
Q 2525 409 2770 889 
Q 3016 1369 3016 2328 
Q 3016 3291 2770 3770 
Q 2525 4250 2034 4250 
z
M 2034 4750 
Q 2819 4750 3233 4129 
Q 3647 3509 3647 2328 
Q 3647 1150 3233 529 
Q 2819 -91 2034 -91 
Q 1250 -91 836 529 
Q 422 1150 422 2328 
Q 422 3509 836 4129 
Q 1250 4750 2034 4750 
z
" transform="scale(0.015625)"/>
        <path id="DejaVuSans-2e" d="M 684 794 
L 1344 794 
L 1344 0 
L 684 0 
L 684 794 
z
" transform="scale(0.015625)"/>
       </defs>
       <use xlink:href="#DejaVuSans-30"/>
       <use xlink:href="#DejaVuSans-2e" x="63.623047"/>
       <use xlink:href="#DejaVuSans-30" x="95.410156"/>
      </g>
     </g>
    </g>
    <g id="xtick_2">
     <g id="line2d_2">
      <g>
       <use xlink:href="#m6de6b1a94a" x="122.543198" y="316.601861" style="stroke: #000000; stroke-width: 0.8"/>
      </g>
     </g>
     <g id="text_2">
      <!-- 0.2 -->
      <g transform="translate(114.591636 331.200298) scale(0.1 -0.1)">
       <defs>
        <path id="DejaVuSans-32" d="M 1228 531 
L 3431 531 
L 3431 0 
L 469 0 
L 469 531 
Q 828 903 1448 1529 
Q 2069 2156 2228 2338 
Q 2531 2678 2651 2914 
Q 2772 3150 2772 3378 
Q 2772 3750 2511 3984 
Q 2250 4219 1831 4219 
Q 1534 4219 1204 4116 
Q 875 4013 500 3803 
L 500 4441 
Q 881 4594 1212 4672 
Q 1544 4750 1819 4750 
Q 2544 4750 2975 4387 
Q 3406 4025 3406 3419 
Q 3406 3131 3298 2873 
Q 3191 2616 2906 2266 
Q 2828 2175 2409 1742 
Q 1991 1309 1228 531 
z
" transform="scale(0.015625)"/>
       </defs>
       <use xlink:href="#DejaVuSans-30"/>
       <use xlink:href="#DejaVuSans-2e" x="63.623047"/>
       <use xlink:href="#DejaVuSans-32" x="95.410156"/>
      </g>
     </g>
    </g>
    <g id="xtick_3">
     <g id="line2d_3">
      <g>
       <use xlink:href="#m6de6b1a94a" x="193.286397" y="316.601861" style="stroke: #000000; stroke-width: 0.8"/>
      </g>
     </g>
     <g id="text_3">
      <!-- 0.4 -->
      <g transform="translate(185.334834 331.200298) scale(0.1 -0.1)">
       <defs>
        <path id="DejaVuSans-34" d="M 2419 4116 
L 825 1625 
L 2419 1625 
L 2419 4116 
z
M 2253 4666 
L 3047 4666 
L 3047 1625 
L 3713 1625 
L 3713 1100 
L 3047 1100 
L 3047 0 
L 2419 0 
L 2419 1100 
L 313 1100 
L 313 1709 
L 2253 4666 
z
" transform="scale(0.015625)"/>
       </defs>
       <use xlink:href="#DejaVuSans-30"/>
       <use xlink:href="#DejaVuSans-2e" x="63.623047"/>
       <use xlink:href="#DejaVuSans-34" x="95.410156"/>
      </g>
     </g>
    </g>
    <g id="xtick_4">
     <g id="line2d_4">
      <g>
       <use xlink:href="#m6de6b1a94a" x="264.029595" y="316.601861" style="stroke: #000000; stroke-width: 0.8"/>
      </g>
     </g>
     <g id="text_4">
      <!-- 0.6 -->
      <g transform="translate(256.078033 331.200298) scale(0.1 -0.1)">
       <defs>
        <path id="DejaVuSans-36" d="M 2113 2584 
Q 1688 2584 1439 2293 
Q 1191 2003 1191 1497 
Q 1191 994 1439 701 
Q 1688 409 2113 409 
Q 2538 409 2786 701 
Q 3034 994 3034 1497 
Q 3034 2003 2786 2293 
Q 2538 2584 2113 2584 
z
M 3366 4563 
L 3366 3988 
Q 3128 4100 2886 4159 
Q 2644 4219 2406 4219 
Q 1781 4219 1451 3797 
Q 1122 3375 1075 2522 
Q 1259 2794 1537 2939 
Q 1816 3084 2150 3084 
Q 2853 3084 3261 2657 
Q 3669 2231 3669 1497 
Q 3669 778 3244 343 
Q 2819 -91 2113 -91 
Q 1303 -91 875 529 
Q 447 1150 447 2328 
Q 447 3434 972 4092 
Q 1497 4750 2381 4750 
Q 2619 4750 2861 4703 
Q 3103 4656 3366 4563 
z
" transform="scale(0.015625)"/>
       </defs>
       <use xlink:href="#DejaVuSans-30"/>
       <use xlink:href="#DejaVuSans-2e" x="63.623047"/>
       <use xlink:href="#DejaVuSans-36" x="95.410156"/>
      </g>
     </g>
    </g>
    <g id="xtick_5">
     <g id="line2d_5">
      <g>
       <use xlink:href="#m6de6b1a94a" x="334.772794" y="316.601861" style="stroke: #000000; stroke-width: 0.8"/>
      </g>
     </g>
     <g id="text_5">
      <!-- 0.8 -->
      <g transform="translate(326.821231 331.200298) scale(0.1 -0.1)">
       <defs>
        <path id="DejaVuSans-38" d="M 2034 2216 
Q 1584 2216 1326 1975 
Q 1069 1734 1069 1313 
Q 1069 891 1326 650 
Q 1584 409 2034 409 
Q 2484 409 2743 651 
Q 3003 894 3003 1313 
Q 3003 1734 2745 1975 
Q 2488 2216 2034 2216 
z
M 1403 2484 
Q 997 2584 770 2862 
Q 544 3141 544 3541 
Q 544 4100 942 4425 
Q 1341 4750 2034 4750 
Q 2731 4750 3128 4425 
Q 3525 4100 3525 3541 
Q 3525 3141 3298 2862 
Q 3072 2584 2669 2484 
Q 3125 2378 3379 2068 
Q 3634 1759 3634 1313 
Q 3634 634 3220 271 
Q 2806 -91 2034 -91 
Q 1263 -91 848 271 
Q 434 634 434 1313 
Q 434 1759 690 2068 
Q 947 2378 1403 2484 
z
M 1172 3481 
Q 1172 3119 1398 2916 
Q 1625 2713 2034 2713 
Q 2441 2713 2670 2916 
Q 2900 3119 2900 3481 
Q 2900 3844 2670 4047 
Q 2441 4250 2034 4250 
Q 1625 4250 1398 4047 
Q 1172 3844 1172 3481 
z
" transform="scale(0.015625)"/>
       </defs>
       <use xlink:href="#DejaVuSans-30"/>
       <use xlink:href="#DejaVuSans-2e" x="63.623047"/>
       <use xlink:href="#DejaVuSans-38" x="95.410156"/>
      </g>
     </g>
    </g>
    <g id="xtick_6">
     <g id="line2d_6">
      <g>
       <use xlink:href="#m6de6b1a94a" x="405.515992" y="316.601861" style="stroke: #000000; stroke-width: 0.8"/>
      </g>
     </g>
     <g id="text_6">
      <!-- 1.0 -->
      <g transform="translate(397.564429 331.200298) scale(0.1 -0.1)">
       <defs>
        <path id="DejaVuSans-31" d="M 794 531 
L 1825 531 
L 1825 4091 
L 703 3866 
L 703 4441 
L 1819 4666 
L 2450 4666 
L 2450 531 
L 3481 531 
L 3481 0 
L 794 0 
L 794 531 
z
" transform="scale(0.015625)"/>
       </defs>
       <use xlink:href="#DejaVuSans-31"/>
       <use xlink:href="#DejaVuSans-2e" x="63.623047"/>
       <use xlink:href="#DejaVuSans-30" x="95.410156"/>
      </g>
     </g>
    </g>
    <g id="text_7">
     <!-- $x$ -->
     <g transform="translate(225.657996 344.878423) scale(0.1 -0.1)">
      <defs>
       <path id="DejaVuSans-Oblique-78" d="M 3841 3500 
L 2234 1784 
L 3219 0 
L 2559 0 
L 1819 1388 
L 531 0 
L -166 0 
L 1556 1844 
L 641 3500 
L 1300 3500 
L 1972 2234 
L 3144 3500 
L 3841 3500 
z
" transform="scale(0.015625)"/>
      </defs>
      <use xlink:href="#DejaVuSans-Oblique-78" transform="translate(0 0.3125)"/>
     </g>
    </g>
   </g>
   <g id="matplotlib.axis_2">
    <g id="ytick_1">
     <g id="line2d_7">
      <defs>
       <path id="m53c7ee93e6" d="M 0 0 
L -3.5 0 
" style="stroke: #000000; stroke-width: 0.8"/>
      </defs>
      <g>
       <use xlink:href="#m53c7ee93e6" x="51.8" y="296.282833" style="stroke: #000000; stroke-width: 0.8"/>
      </g>
     </g>
     <g id="text_8">
      <!-- 0.0 -->
      <g transform="translate(28.896875 300.082052) scale(0.1 -0.1)">
       <use xlink:href="#DejaVuSans-30"/>
       <use xlink:href="#DejaVuSans-2e" x="63.623047"/>
       <use xlink:href="#DejaVuSans-30" x="95.410156"/>
      </g>
     </g>
    </g>
    <g id="ytick_2">
     <g id="line2d_8">
      <g>
       <use xlink:href="#m53c7ee93e6" x="51.8" y="241.302902" style="stroke: #000000; stroke-width: 0.8"/>
      </g>
     </g>
     <g id="text_9">
      <!-- 0.2 -->
      <g transform="translate(28.896875 245.102121) scale(0.1 -0.1)">
       <use xlink:href="#DejaVuSans-30"/>
       <use xlink:href="#DejaVuSans-2e" x="63.623047"/>
       <use xlink:href="#DejaVuSans-32" x="95.410156"/>
      </g>
     </g>
    </g>
    <g id="ytick_3">
     <g id="line2d_9">
      <g>
       <use xlink:href="#m53c7ee93e6" x="51.8" y="186.322972" style="stroke: #000000; stroke-width: 0.8"/>
      </g>
     </g>
     <g id="text_10">
      <!-- 0.4 -->
      <g transform="translate(28.896875 190.12219) scale(0.1 -0.1)">
       <use xlink:href="#DejaVuSans-30"/>
       <use xlink:href="#DejaVuSans-2e" x="63.623047"/>
       <use xlink:href="#DejaVuSans-34" x="95.410156"/>
      </g>
     </g>
    </g>
    <g id="ytick_4">
     <g id="line2d_10">
      <g>
       <use xlink:href="#m53c7ee93e6" x="51.8" y="131.343041" style="stroke: #000000; stroke-width: 0.8"/>
      </g>
     </g>
     <g id="text_11">
      <!-- 0.6 -->
      <g transform="translate(28.896875 135.14226) scale(0.1 -0.1)">
       <use xlink:href="#DejaVuSans-30"/>
       <use xlink:href="#DejaVuSans-2e" x="63.623047"/>
       <use xlink:href="#DejaVuSans-36" x="95.410156"/>
      </g>
     </g>
    </g>
    <g id="ytick_5">
     <g id="line2d_11">
      <g>
       <use xlink:href="#m53c7ee93e6" x="51.8" y="76.36311" style="stroke: #000000; stroke-width: 0.8"/>
      </g>
     </g>
     <g id="text_12">
      <!-- 0.8 -->
      <g transform="translate(28.896875 80.162329) scale(0.1 -0.1)">
       <use xlink:href="#DejaVuSans-30"/>
       <use xlink:href="#DejaVuSans-2e" x="63.623047"/>
       <use xlink:href="#DejaVuSans-38" x="95.410156"/>
      </g>
     </g>
    </g>
    <g id="ytick_6">
     <g id="line2d_12">
      <g>
       <use xlink:href="#m53c7ee93e6" x="51.8" y="21.383179" style="stroke: #000000; stroke-width: 0.8"/>
      </g>
     </g>
     <g id="text_13">
      <!-- 1.0 -->
      <g transform="translate(28.896875 25.182398) scale(0.1 -0.1)">
       <use xlink:href="#DejaVuSans-31"/>
       <use xlink:href="#DejaVuSans-2e" x="63.623047"/>
       <use xlink:href="#DejaVuSans-30" x="95.410156"/>
      </g>
     </g>
    </g>
    <g id="text_14">
     <!-- $y$ -->
     <g transform="translate(22.796875 164.90093) rotate(-90) scale(0.1 -0.1)">
      <defs>
       <path id="DejaVuSans-Oblique-79" d="M 1588 -325 
Q 1188 -997 936 -1164 
Q 684 -1331 294 -1331 
L -159 -1331 
L -63 -850 
L 269 -850 
Q 509 -850 678 -719 
Q 847 -588 1056 -206 
L 1234 128 
L 459 3500 
L 1069 3500 
L 1650 819 
L 3256 3500 
L 3859 3500 
L 1588 -325 
z
" transform="scale(0.015625)"/>
      </defs>
      <use xlink:href="#DejaVuSans-Oblique-79" transform="translate(0 0.3125)"/>
     </g>
    </g>
   </g>
   <g id="line2d_13">
    <path d="M 51.8 286.093451 
L 53.566813 283.521842 
L 55.333626 280.577459 
L 57.100439 277.249649 
L 59.220615 272.741082 
L 61.340791 267.667124 
L 63.460967 262.031925 
L 65.934505 254.764376 
L 68.408044 246.780441 
L 71.234945 236.83469 
L 74.061846 226.091581 
L 77.242109 213.173722 
L 81.129098 196.411786 
L 86.076175 174.003971 
L 99.857318 110.861293 
L 103.744307 94.335634 
L 107.277933 80.290433 
L 110.458196 68.620565 
L 113.285097 59.132327 
L 115.758636 51.58294 
L 118.232174 44.789237 
L 120.35235 39.601541 
L 122.472526 35.026631 
L 124.239339 31.697876 
L 126.006152 28.820294 
L 127.772965 26.402979 
L 129.186416 24.805611 
L 130.599866 23.510749 
L 132.013317 22.520842 
L 133.426767 21.837686 
L 134.840218 21.462424 
L 135.900306 21.383353 
L 136.960394 21.477728 
L 138.020482 21.745312 
L 139.433932 22.370729 
L 140.847383 23.301647 
L 142.260833 24.535811 
L 143.674284 26.07033 
L 145.087734 27.901678 
L 146.854547 30.601896 
L 148.62136 33.749903 
L 150.388174 37.334726 
L 152.508349 42.195474 
L 154.628525 47.642954 
L 157.102064 54.703433 
L 159.575602 62.477203 
L 162.402503 72.166387 
L 165.229404 82.63022 
L 168.409668 95.209332 
L 172.296657 111.537607 
L 177.243733 133.405608 
L 193.145052 204.648207 
L 197.032041 220.572235 
L 200.212304 232.733084 
L 203.039205 242.769038 
L 205.866106 251.992756 
L 208.339645 259.345953 
L 210.813183 265.995346 
L 212.933359 271.118744 
L 215.053535 275.70412 
L 217.17371 279.752947 
L 219.293886 283.274031 
L 221.060699 285.816618 
L 222.827513 288.017151 
L 224.594326 289.892361 
L 226.361139 291.462236 
L 228.127952 292.749755 
L 229.894765 293.780537 
L 231.661578 294.582387 
L 233.781754 295.283954 
L 235.90193 295.750915 
L 238.375468 296.069397 
L 241.555732 296.242176 
L 247.562897 296.282833 
L 254.630149 296.180739 
L 257.103688 295.938205 
L 259.223863 295.502798 
L 260.990677 294.896369 
L 262.404127 294.197787 
L 263.817578 293.262649 
L 265.231028 292.043981 
L 266.644479 290.491952 
L 268.057929 288.554662 
L 269.47138 286.179076 
L 270.88483 283.312095 
L 272.298281 279.901769 
L 273.711731 275.898618 
L 275.125182 271.257061 
L 276.538632 265.936913 
L 278.305445 258.282584 
L 280.072259 249.47072 
L 281.839072 239.480676 
L 283.605885 228.321271 
L 285.726061 213.447922 
L 288.199599 194.238435 
L 291.0265 170.287098 
L 295.266852 132.049974 
L 299.507203 94.179466 
L 301.980742 73.878032 
L 304.100917 58.319408 
L 305.86773 47.034889 
L 307.281181 39.296652 
L 308.694631 32.832223 
L 309.754719 28.88046 
L 310.814807 25.736424 
L 311.874895 23.428155 
L 312.58162 22.364242 
L 313.288346 21.685573 
L 313.995071 21.395003 
L 314.701796 21.493864 
L 315.408521 21.981956 
L 316.115247 22.857549 
L 316.821972 24.117389 
L 317.528697 25.75672 
L 318.588785 28.913238 
L 319.648873 32.882208 
L 320.708961 37.629681 
L 322.122411 45.099977 
L 323.535862 53.77002 
L 325.302675 66.098829 
L 327.422851 82.711263 
L 329.896389 103.940308 
L 334.490103 145.850535 
L 338.377092 180.663755 
L 341.203993 204.032821 
L 343.677532 222.492686 
L 345.797708 236.589367 
L 347.564521 247.035194 
L 349.331334 256.274143 
L 351.098147 264.317998 
L 352.86496 271.206666 
L 354.278411 275.927766 
L 355.691861 279.990896 
L 357.105312 283.443147 
L 358.518762 286.335922 
L 359.932213 288.723394 
L 361.345663 290.661064 
L 362.759114 292.204442 
L 364.172564 293.407869 
L 365.586015 294.323489 
L 366.999465 295.000387 
L 368.766278 295.57944 
L 370.886454 295.985294 
L 373.359993 296.201877 
L 377.246982 296.280659 
L 386.787773 296.205343 
L 389.968036 295.946513 
L 392.441575 295.508504 
L 394.56175 294.894647 
L 396.328564 294.171286 
L 398.095377 293.22073 
L 399.86219 292.012052 
L 401.629003 290.516523 
L 403.395816 288.708176 
L 405.162629 286.564258 
L 405.162629 286.564258 
" clip-path="url(#p801934113e)" style="fill: none; stroke: #000000; stroke-width: 1.5; stroke-linecap: square"/>
   </g>
   <g id="line2d_14">
    <path d="M 51.8 288.317592 
L 53.213451 287.50045 
L 54.626901 286.347248 
L 56.040352 284.827745 
L 57.453802 282.916886 
L 58.867253 280.595219 
L 60.280703 277.849166 
L 61.694154 274.671188 
L 63.460967 270.089642 
L 65.22778 264.841517 
L 66.994593 258.950849 
L 69.114769 251.086531 
L 71.588307 240.924099 
L 74.415208 228.214863 
L 77.948835 211.110663 
L 83.602637 182.341935 
L 89.609801 152.093383 
L 93.49679 133.647102 
L 97.030417 117.983655 
L 100.21068 104.882153 
L 103.390944 92.737066 
L 106.571208 81.519294 
L 109.751471 71.183206 
L 112.578372 62.703398 
L 115.405273 54.877132 
L 118.232174 47.715878 
L 120.705713 42.024622 
L 123.179251 36.913609 
L 125.299427 33.036683 
L 127.06624 30.192636 
L 128.833053 27.727814 
L 130.599866 25.669032 
L 132.013317 24.332284 
L 133.426767 23.285604 
L 134.840218 22.541318 
L 135.900306 22.188342 
L 136.960394 22.01602 
L 138.020482 22.028072 
L 139.080569 22.227658 
L 140.140657 22.617334 
L 141.200745 23.199008 
L 142.614196 24.275265 
L 144.027646 25.695941 
L 145.441097 27.459755 
L 146.854547 29.563168 
L 148.62136 32.661029 
L 150.388174 36.264523 
L 152.154987 40.353079 
L 154.275162 45.864579 
L 156.395338 51.989674 
L 158.868877 59.838448 
L 161.695778 69.622992 
L 164.876041 81.503636 
L 168.409668 95.56727 
L 173.003382 114.840634 
L 179.010547 141.096024 
L 194.911865 211.161883 
L 198.798854 227.113255 
L 201.979117 239.353945 
L 204.806018 249.440564 
L 207.279557 257.536051 
L 209.753095 264.859678 
L 211.873271 270.468929 
L 213.993447 275.427154 
L 215.76026 279.048226 
L 217.527073 282.202315 
L 219.293886 284.895529 
L 221.060699 287.142439 
L 222.827513 288.96606 
L 224.240963 290.140849 
L 225.654414 291.083929 
L 227.421227 291.970954 
L 229.18804 292.579143 
L 230.954853 292.9612 
L 233.075029 293.19913 
L 236.255292 293.305166 
L 240.849007 293.46771 
L 243.322545 293.773014 
L 245.796083 294.307533 
L 248.269622 295.072115 
L 251.803248 296.443112 
L 255.690237 297.914406 
L 257.45705 298.372566 
L 258.870501 298.558377 
L 260.283951 298.527629 
L 261.697402 298.225853 
L 262.75749 297.787935 
L 263.817578 297.142072 
L 264.877665 296.26441 
L 265.937753 295.131455 
L 266.997841 293.720357 
L 268.057929 292.009199 
L 269.47138 289.225331 
L 270.88483 285.826626 
L 272.298281 281.774229 
L 273.711731 277.036313 
L 275.125182 271.589108 
L 276.891995 263.761058 
L 278.658808 254.795161 
L 280.425621 244.710022 
L 282.545797 231.196792 
L 284.665973 216.270934 
L 287.139511 197.326927 
L 290.319775 171.168103 
L 299.507203 94.143786 
L 301.980742 75.926887 
L 304.100917 62.081172 
L 305.86773 52.060883 
L 307.281181 45.17041 
L 308.694631 39.36984 
L 309.754719 35.777402 
L 310.814807 32.862874 
L 311.874895 30.647093 
L 312.58162 29.566395 
L 313.288346 28.807386 
L 313.995071 28.372887 
L 314.701796 28.264788 
L 315.408521 28.484032 
L 316.115247 29.030615 
L 316.821972 29.903581 
L 317.528697 31.101025 
L 318.588785 33.499092 
L 319.648873 36.607041 
L 320.708961 40.406683 
L 322.122411 46.509014 
L 323.535862 53.734628 
L 325.302675 64.225977 
L 327.069488 76.171679 
L 329.189664 92.140901 
L 331.663202 112.536013 
L 335.196829 143.71545 
L 341.557356 200.171236 
L 344.384257 223.160113 
L 346.857795 241.359378 
L 348.977971 255.240372 
L 350.744784 265.469116 
L 352.511598 274.416466 
L 354.278411 282.055043 
L 355.691861 287.224726 
L 357.105312 291.57331 
L 358.518762 295.126967 
L 359.57885 297.292064 
L 360.638938 299.049056 
L 361.699026 300.419325 
L 362.759114 301.426561 
L 363.819202 302.096449 
L 364.87929 302.456331 
L 365.939377 302.534874 
L 366.999465 302.361719 
L 368.059553 301.967137 
L 369.473004 301.14939 
L 370.886454 300.064419 
L 372.653267 298.439654 
L 375.833531 295.152159 
L 379.013795 291.954929 
L 381.13397 290.129933 
L 382.900784 288.887262 
L 384.667597 287.936532 
L 386.081047 287.396889 
L 387.494498 287.052387 
L 389.261311 286.88083 
L 391.028124 286.963684 
L 393.1483 287.325911 
L 396.328564 288.160857 
L 399.155465 288.856902 
L 400.922278 289.100208 
L 402.335728 289.114654 
L 403.749179 288.919996 
L 405.162629 288.473364 
L 405.162629 288.473364 
" clip-path="url(#p801934113e)" style="fill: none; stroke-dasharray: 5.55,2.4; stroke-dashoffset: 0; stroke: #ff0000; stroke-width: 1.5"/>
   </g>
   <g id="line2d_15">
    <path d="M 51.8 286.092392 
L 53.566813 283.32888 
L 55.686989 279.547688 
L 57.807165 275.258549 
L 59.92734 270.463561 
L 62.047516 265.166925 
L 64.521055 258.361436 
L 66.994593 250.893641 
L 69.821494 241.569839 
L 72.648395 231.438444 
L 75.828659 219.138672 
L 79.362285 204.472255 
L 83.249274 187.343389 
L 88.549713 162.881876 
L 98.443867 117.007308 
L 102.684219 98.562817 
L 106.217845 84.215047 
L 109.398109 72.270874 
L 112.22501 62.523212 
L 114.698548 54.723009 
L 117.172086 47.647201 
L 119.292262 42.18832 
L 121.412438 37.313617 
L 123.532614 33.045662 
L 125.299427 29.96821 
L 127.06624 27.339137 
L 128.479691 25.566223 
L 129.893141 24.092619 
L 131.306592 22.922978 
L 132.720042 22.06129 
L 134.133493 21.510777 
L 135.193581 21.303551 
L 136.253668 21.27335 
L 137.313756 21.420496 
L 138.373844 21.744982 
L 139.787295 22.452837 
L 141.200745 23.473508 
L 142.614196 24.804107 
L 144.027646 26.440676 
L 145.441097 28.378237 
L 147.20791 31.214341 
L 148.974723 34.497975 
L 150.741536 38.213921 
L 152.861712 43.220183 
L 154.981888 48.794188 
L 157.455426 55.971777 
L 159.928965 63.825929 
L 162.755866 73.562649 
L 165.936129 85.390998 
L 169.469756 99.483571 
L 173.356744 115.94487 
L 178.303821 137.960054 
L 193.145052 204.855642 
L 196.678678 219.430696 
L 199.858942 231.666871 
L 202.685843 241.728532 
L 205.512744 250.949792 
L 207.986282 258.292023 
L 210.459821 264.937902 
L 212.933359 270.881893 
L 215.053535 275.421208 
L 217.17371 279.455679 
L 219.293886 282.996933 
L 221.414062 286.060125 
L 223.180875 288.260883 
L 224.947688 290.155078 
L 226.714501 291.757134 
L 228.481315 293.083463 
L 230.248128 294.152639 
L 232.014941 294.985513 
L 233.781754 295.60525 
L 235.90193 296.103439 
L 238.022106 296.378657 
L 240.495644 296.484437 
L 244.02927 296.382778 
L 256.396962 295.593612 
L 258.870501 295.212132 
L 260.637314 294.73775 
L 262.404127 294.006868 
L 263.817578 293.176039 
L 265.231028 292.070209 
L 266.644479 290.633683 
L 268.057929 288.808322 
L 269.47138 286.534803 
L 270.88483 283.754038 
L 272.298281 280.408726 
L 273.711731 276.445001 
L 275.125182 271.81414 
L 276.538632 266.474287 
L 277.952083 260.392145 
L 279.718896 251.711487 
L 281.485709 241.816543 
L 283.252522 230.720444 
L 285.372698 215.890434 
L 287.846236 196.70407 
L 290.673137 172.769527 
L 294.913489 134.58193 
L 299.507203 93.766717 
L 301.980742 73.743624 
L 304.100917 58.455166 
L 305.86773 47.393255 
L 307.281181 39.817402 
L 308.694631 33.491189 
L 309.754719 29.622207 
L 310.814807 26.539787 
L 311.874895 24.26969 
L 312.58162 23.217392 
L 313.288346 22.538924 
L 313.995071 22.237016 
L 314.701796 22.313036 
L 315.408521 22.766981 
L 316.115247 23.597476 
L 316.821972 24.801779 
L 317.528697 26.375791 
L 318.588785 29.417777 
L 319.648873 33.255274 
L 320.708961 37.85813 
L 322.122411 45.122537 
L 323.535862 53.581764 
L 325.302675 65.657256 
L 327.422851 82.008582 
L 329.896389 103.03169 
L 333.783378 138.40681 
L 338.730455 183.209574 
L 341.557356 206.730624 
L 343.677532 222.765025 
L 345.797708 237.169208 
L 347.564521 247.825284 
L 349.331334 257.215338 
L 351.098147 265.339862 
L 352.511598 270.950248 
L 353.925048 275.803254 
L 355.338499 279.940509 
L 356.751949 283.412225 
L 358.1654 286.275318 
L 359.57885 288.591495 
L 360.992301 290.425361 
L 362.405751 291.842588 
L 363.819202 292.90821 
L 365.232652 293.685055 
L 366.646103 294.232366 
L 368.412916 294.676208 
L 370.533092 294.978079 
L 374.773443 295.290791 
L 379.367157 295.718995 
L 388.201223 296.704458 
L 390.321399 296.661855 
L 392.088212 296.44319 
L 393.855025 296.018585 
L 395.621838 295.354561 
L 397.388651 294.421843 
L 399.155465 293.195825 
L 400.922278 291.656688 
L 402.689091 289.78923 
L 404.455904 287.582476 
L 405.162629 286.603028 
L 405.162629 286.603028 
" clip-path="url(#p801934113e)" style="fill: none; stroke-dasharray: 5.55,2.4; stroke-dashoffset: 0; stroke: #0000ff; stroke-width: 1.5"/>
   </g>
   <g id="patch_3">
    <path d="M 51.8 316.601861 
L 51.8 7.2 
" style="fill: none; stroke: #000000; stroke-width: 0.8; stroke-linejoin: miter; stroke-linecap: square"/>
   </g>
   <g id="patch_4">
    <path d="M 405.515992 316.601861 
L 405.515992 7.2 
" style="fill: none; stroke: #000000; stroke-width: 0.8; stroke-linejoin: miter; stroke-linecap: square"/>
   </g>
   <g id="patch_5">
    <path d="M 51.8 316.601861 
L 405.515992 316.601861 
" style="fill: none; stroke: #000000; stroke-width: 0.8; stroke-linejoin: miter; stroke-linecap: square"/>
   </g>
   <g id="patch_6">
    <path d="M 51.8 7.2 
L 405.515992 7.2 
" style="fill: none; stroke: #000000; stroke-width: 0.8; stroke-linejoin: miter; stroke-linecap: square"/>
   </g>
   <g id="legend_1">
    <g id="patch_7">
     <path d="M 177.017371 59.234375 
L 280.298621 59.234375 
Q 282.298621 59.234375 282.298621 57.234375 
L 282.298621 14.2 
Q 282.298621 12.2 280.298621 12.2 
L 177.017371 12.2 
Q 175.017371 12.2 175.017371 14.2 
L 175.017371 57.234375 
Q 175.017371 59.234375 177.017371 59.234375 
z
" style="fill: #ffffff; opacity: 0.8; stroke: #cccccc; stroke-linejoin: miter"/>
    </g>
    <g id="line2d_16">
     <path d="M 179.017371 20.298437 
L 189.017371 20.298437 
L 199.017371 20.298437 
" style="fill: none; stroke: #000000; stroke-width: 1.5; stroke-linecap: square"/>
    </g>
    <g id="text_15">
     <!-- High accuracy -->
     <g transform="translate(207.017371 23.798437) scale(0.1 -0.1)">
      <defs>
       <path id="DejaVuSans-48" d="M 628 4666 
L 1259 4666 
L 1259 2753 
L 3553 2753 
L 3553 4666 
L 4184 4666 
L 4184 0 
L 3553 0 
L 3553 2222 
L 1259 2222 
L 1259 0 
L 628 0 
L 628 4666 
z
" transform="scale(0.015625)"/>
       <path id="DejaVuSans-69" d="M 603 3500 
L 1178 3500 
L 1178 0 
L 603 0 
L 603 3500 
z
M 603 4863 
L 1178 4863 
L 1178 4134 
L 603 4134 
L 603 4863 
z
" transform="scale(0.015625)"/>
       <path id="DejaVuSans-67" d="M 2906 1791 
Q 2906 2416 2648 2759 
Q 2391 3103 1925 3103 
Q 1463 3103 1205 2759 
Q 947 2416 947 1791 
Q 947 1169 1205 825 
Q 1463 481 1925 481 
Q 2391 481 2648 825 
Q 2906 1169 2906 1791 
z
M 3481 434 
Q 3481 -459 3084 -895 
Q 2688 -1331 1869 -1331 
Q 1566 -1331 1297 -1286 
Q 1028 -1241 775 -1147 
L 775 -588 
Q 1028 -725 1275 -790 
Q 1522 -856 1778 -856 
Q 2344 -856 2625 -561 
Q 2906 -266 2906 331 
L 2906 616 
Q 2728 306 2450 153 
Q 2172 0 1784 0 
Q 1141 0 747 490 
Q 353 981 353 1791 
Q 353 2603 747 3093 
Q 1141 3584 1784 3584 
Q 2172 3584 2450 3431 
Q 2728 3278 2906 2969 
L 2906 3500 
L 3481 3500 
L 3481 434 
z
" transform="scale(0.015625)"/>
       <path id="DejaVuSans-68" d="M 3513 2113 
L 3513 0 
L 2938 0 
L 2938 2094 
Q 2938 2591 2744 2837 
Q 2550 3084 2163 3084 
Q 1697 3084 1428 2787 
Q 1159 2491 1159 1978 
L 1159 0 
L 581 0 
L 581 4863 
L 1159 4863 
L 1159 2956 
Q 1366 3272 1645 3428 
Q 1925 3584 2291 3584 
Q 2894 3584 3203 3211 
Q 3513 2838 3513 2113 
z
" transform="scale(0.015625)"/>
       <path id="DejaVuSans-20" transform="scale(0.015625)"/>
       <path id="DejaVuSans-61" d="M 2194 1759 
Q 1497 1759 1228 1600 
Q 959 1441 959 1056 
Q 959 750 1161 570 
Q 1363 391 1709 391 
Q 2188 391 2477 730 
Q 2766 1069 2766 1631 
L 2766 1759 
L 2194 1759 
z
M 3341 1997 
L 3341 0 
L 2766 0 
L 2766 531 
Q 2569 213 2275 61 
Q 1981 -91 1556 -91 
Q 1019 -91 701 211 
Q 384 513 384 1019 
Q 384 1609 779 1909 
Q 1175 2209 1959 2209 
L 2766 2209 
L 2766 2266 
Q 2766 2663 2505 2880 
Q 2244 3097 1772 3097 
Q 1472 3097 1187 3025 
Q 903 2953 641 2809 
L 641 3341 
Q 956 3463 1253 3523 
Q 1550 3584 1831 3584 
Q 2591 3584 2966 3190 
Q 3341 2797 3341 1997 
z
" transform="scale(0.015625)"/>
       <path id="DejaVuSans-63" d="M 3122 3366 
L 3122 2828 
Q 2878 2963 2633 3030 
Q 2388 3097 2138 3097 
Q 1578 3097 1268 2742 
Q 959 2388 959 1747 
Q 959 1106 1268 751 
Q 1578 397 2138 397 
Q 2388 397 2633 464 
Q 2878 531 3122 666 
L 3122 134 
Q 2881 22 2623 -34 
Q 2366 -91 2075 -91 
Q 1284 -91 818 406 
Q 353 903 353 1747 
Q 353 2603 823 3093 
Q 1294 3584 2113 3584 
Q 2378 3584 2631 3529 
Q 2884 3475 3122 3366 
z
" transform="scale(0.015625)"/>
       <path id="DejaVuSans-75" d="M 544 1381 
L 544 3500 
L 1119 3500 
L 1119 1403 
Q 1119 906 1312 657 
Q 1506 409 1894 409 
Q 2359 409 2629 706 
Q 2900 1003 2900 1516 
L 2900 3500 
L 3475 3500 
L 3475 0 
L 2900 0 
L 2900 538 
Q 2691 219 2414 64 
Q 2138 -91 1772 -91 
Q 1169 -91 856 284 
Q 544 659 544 1381 
z
M 1991 3584 
L 1991 3584 
z
" transform="scale(0.015625)"/>
       <path id="DejaVuSans-72" d="M 2631 2963 
Q 2534 3019 2420 3045 
Q 2306 3072 2169 3072 
Q 1681 3072 1420 2755 
Q 1159 2438 1159 1844 
L 1159 0 
L 581 0 
L 581 3500 
L 1159 3500 
L 1159 2956 
Q 1341 3275 1631 3429 
Q 1922 3584 2338 3584 
Q 2397 3584 2469 3576 
Q 2541 3569 2628 3553 
L 2631 2963 
z
" transform="scale(0.015625)"/>
       <path id="DejaVuSans-79" d="M 2059 -325 
Q 1816 -950 1584 -1140 
Q 1353 -1331 966 -1331 
L 506 -1331 
L 506 -850 
L 844 -850 
Q 1081 -850 1212 -737 
Q 1344 -625 1503 -206 
L 1606 56 
L 191 3500 
L 800 3500 
L 1894 763 
L 2988 3500 
L 3597 3500 
L 2059 -325 
z
" transform="scale(0.015625)"/>
      </defs>
      <use xlink:href="#DejaVuSans-48"/>
      <use xlink:href="#DejaVuSans-69" x="75.195312"/>
      <use xlink:href="#DejaVuSans-67" x="102.978516"/>
      <use xlink:href="#DejaVuSans-68" x="166.455078"/>
      <use xlink:href="#DejaVuSans-20" x="229.833984"/>
      <use xlink:href="#DejaVuSans-61" x="261.621094"/>
      <use xlink:href="#DejaVuSans-63" x="322.900391"/>
      <use xlink:href="#DejaVuSans-63" x="377.880859"/>
      <use xlink:href="#DejaVuSans-75" x="432.861328"/>
      <use xlink:href="#DejaVuSans-72" x="496.240234"/>
      <use xlink:href="#DejaVuSans-61" x="537.353516"/>
      <use xlink:href="#DejaVuSans-63" x="598.632812"/>
      <use xlink:href="#DejaVuSans-79" x="653.613281"/>
     </g>
    </g>
    <g id="line2d_17">
     <path d="M 179.017371 34.976562 
L 189.017371 34.976562 
L 199.017371 34.976562 
" style="fill: none; stroke-dasharray: 5.55,2.4; stroke-dashoffset: 0; stroke: #ff0000; stroke-width: 1.5"/>
    </g>
    <g id="text_16">
     <!-- $N=6$ -->
     <g transform="translate(207.017371 38.476562) scale(0.1 -0.1)">
      <defs>
       <path id="DejaVuSans-Oblique-4e" d="M 1081 4666 
L 1931 4666 
L 3219 666 
L 4000 4666 
L 4616 4666 
L 3706 0 
L 2853 0 
L 1569 4025 
L 788 0 
L 172 0 
L 1081 4666 
z
" transform="scale(0.015625)"/>
       <path id="DejaVuSans-3d" d="M 678 2906 
L 4684 2906 
L 4684 2381 
L 678 2381 
L 678 2906 
z
M 678 1631 
L 4684 1631 
L 4684 1100 
L 678 1100 
L 678 1631 
z
" transform="scale(0.015625)"/>
      </defs>
      <use xlink:href="#DejaVuSans-Oblique-4e" transform="translate(0 0.78125)"/>
      <use xlink:href="#DejaVuSans-3d" transform="translate(94.287109 0.78125)"/>
      <use xlink:href="#DejaVuSans-36" transform="translate(197.558594 0.78125)"/>
     </g>
    </g>
    <g id="line2d_18">
     <path d="M 179.017371 49.654687 
L 189.017371 49.654687 
L 199.017371 49.654687 
" style="fill: none; stroke-dasharray: 5.55,2.4; stroke-dashoffset: 0; stroke: #0000ff; stroke-width: 1.5"/>
    </g>
    <g id="text_17">
     <!-- $N=8$ -->
     <g transform="translate(207.017371 53.154687) scale(0.1 -0.1)">
      <use xlink:href="#DejaVuSans-Oblique-4e" transform="translate(0 0.78125)"/>
      <use xlink:href="#DejaVuSans-3d" transform="translate(94.287109 0.78125)"/>
      <use xlink:href="#DejaVuSans-38" transform="translate(197.558594 0.78125)"/>
     </g>
    </g>
   </g>
  </g>
  <g id="axes_2">
   <g id="patch_8">
    <path d="M 51.8 673.6 
L 405.515992 673.6 
L 405.515992 364.198139 
L 51.8 364.198139 
z
" style="fill: #ffffff"/>
   </g>
   <g id="matplotlib.axis_3">
    <g id="xtick_7">
     <g id="line2d_19">
      <g>
       <use xlink:href="#m6de6b1a94a" x="67.878" y="673.6" style="stroke: #000000; stroke-width: 0.8"/>
      </g>
     </g>
     <g id="text_18">
      <!-- 4 -->
      <g transform="translate(64.69675 688.198437) scale(0.1 -0.1)">
       <use xlink:href="#DejaVuSans-34"/>
      </g>
     </g>
    </g>
    <g id="xtick_8">
     <g id="line2d_20">
      <g>
       <use xlink:href="#m6de6b1a94a" x="121.471332" y="673.6" style="stroke: #000000; stroke-width: 0.8"/>
      </g>
     </g>
     <g id="text_19">
      <!-- 6 -->
      <g transform="translate(118.290082 688.198437) scale(0.1 -0.1)">
       <use xlink:href="#DejaVuSans-36"/>
      </g>
     </g>
    </g>
    <g id="xtick_9">
     <g id="line2d_21">
      <g>
       <use xlink:href="#m6de6b1a94a" x="175.064664" y="673.6" style="stroke: #000000; stroke-width: 0.8"/>
      </g>
     </g>
     <g id="text_20">
      <!-- 8 -->
      <g transform="translate(171.883414 688.198437) scale(0.1 -0.1)">
       <use xlink:href="#DejaVuSans-38"/>
      </g>
     </g>
    </g>
    <g id="xtick_10">
     <g id="line2d_22">
      <g>
       <use xlink:href="#m6de6b1a94a" x="228.657996" y="673.6" style="stroke: #000000; stroke-width: 0.8"/>
      </g>
     </g>
     <g id="text_21">
      <!-- 10 -->
      <g transform="translate(222.295496 688.198437) scale(0.1 -0.1)">
       <use xlink:href="#DejaVuSans-31"/>
       <use xlink:href="#DejaVuSans-30" x="63.623047"/>
      </g>
     </g>
    </g>
    <g id="xtick_11">
     <g id="line2d_23">
      <g>
       <use xlink:href="#m6de6b1a94a" x="282.251328" y="673.6" style="stroke: #000000; stroke-width: 0.8"/>
      </g>
     </g>
     <g id="text_22">
      <!-- 12 -->
      <g transform="translate(275.888828 688.198437) scale(0.1 -0.1)">
       <use xlink:href="#DejaVuSans-31"/>
       <use xlink:href="#DejaVuSans-32" x="63.623047"/>
      </g>
     </g>
    </g>
    <g id="xtick_12">
     <g id="line2d_24">
      <g>
       <use xlink:href="#m6de6b1a94a" x="335.84466" y="673.6" style="stroke: #000000; stroke-width: 0.8"/>
      </g>
     </g>
     <g id="text_23">
      <!-- 14 -->
      <g transform="translate(329.48216 688.198437) scale(0.1 -0.1)">
       <use xlink:href="#DejaVuSans-31"/>
       <use xlink:href="#DejaVuSans-34" x="63.623047"/>
      </g>
     </g>
    </g>
    <g id="xtick_13">
     <g id="line2d_25">
      <g>
       <use xlink:href="#m6de6b1a94a" x="389.437992" y="673.6" style="stroke: #000000; stroke-width: 0.8"/>
      </g>
     </g>
     <g id="text_24">
      <!-- 16 -->
      <g transform="translate(383.075492 688.198437) scale(0.1 -0.1)">
       <use xlink:href="#DejaVuSans-31"/>
       <use xlink:href="#DejaVuSans-36" x="63.623047"/>
      </g>
     </g>
    </g>
    <g id="text_25">
     <!-- $N$ -->
     <g transform="translate(224.907996 701.876562) scale(0.1 -0.1)">
      <use xlink:href="#DejaVuSans-Oblique-4e" transform="translate(0 0.09375)"/>
     </g>
    </g>
   </g>
   <g id="matplotlib.axis_4">
    <g id="ytick_7">
     <g id="line2d_26">
      <g>
       <use xlink:href="#m53c7ee93e6" x="51.8" y="664.461255" style="stroke: #000000; stroke-width: 0.8"/>
      </g>
     </g>
     <g id="text_26">
      <!-- $\mathdefault{10^{-6}}$ -->
      <g transform="translate(21.3 668.260474) scale(0.1 -0.1)">
       <defs>
        <path id="DejaVuSans-2212" d="M 678 2272 
L 4684 2272 
L 4684 1741 
L 678 1741 
L 678 2272 
z
" transform="scale(0.015625)"/>
       </defs>
       <use xlink:href="#DejaVuSans-31" transform="translate(0 0.765625)"/>
       <use xlink:href="#DejaVuSans-30" transform="translate(63.623047 0.765625)"/>
       <use xlink:href="#DejaVuSans-2212" transform="translate(128.203125 39.046875) scale(0.7)"/>
       <use xlink:href="#DejaVuSans-36" transform="translate(186.855469 39.046875) scale(0.7)"/>
      </g>
     </g>
    </g>
    <g id="ytick_8">
     <g id="line2d_27">
      <g>
       <use xlink:href="#m53c7ee93e6" x="51.8" y="621.619797" style="stroke: #000000; stroke-width: 0.8"/>
      </g>
     </g>
     <g id="text_27">
      <!-- $\mathdefault{10^{-5}}$ -->
      <g transform="translate(21.3 625.419015) scale(0.1 -0.1)">
       <defs>
        <path id="DejaVuSans-35" d="M 691 4666 
L 3169 4666 
L 3169 4134 
L 1269 4134 
L 1269 2991 
Q 1406 3038 1543 3061 
Q 1681 3084 1819 3084 
Q 2600 3084 3056 2656 
Q 3513 2228 3513 1497 
Q 3513 744 3044 326 
Q 2575 -91 1722 -91 
Q 1428 -91 1123 -41 
Q 819 9 494 109 
L 494 744 
Q 775 591 1075 516 
Q 1375 441 1709 441 
Q 2250 441 2565 725 
Q 2881 1009 2881 1497 
Q 2881 1984 2565 2268 
Q 2250 2553 1709 2553 
Q 1456 2553 1204 2497 
Q 953 2441 691 2322 
L 691 4666 
z
" transform="scale(0.015625)"/>
       </defs>
       <use xlink:href="#DejaVuSans-31" transform="translate(0 0.684375)"/>
       <use xlink:href="#DejaVuSans-30" transform="translate(63.623047 0.684375)"/>
       <use xlink:href="#DejaVuSans-2212" transform="translate(128.203125 38.965625) scale(0.7)"/>
       <use xlink:href="#DejaVuSans-35" transform="translate(186.855469 38.965625) scale(0.7)"/>
      </g>
     </g>
    </g>
    <g id="ytick_9">
     <g id="line2d_28">
      <g>
       <use xlink:href="#m53c7ee93e6" x="51.8" y="578.778338" style="stroke: #000000; stroke-width: 0.8"/>
      </g>
     </g>
     <g id="text_28">
      <!-- $\mathdefault{10^{-4}}$ -->
      <g transform="translate(21.3 582.577556) scale(0.1 -0.1)">
       <use xlink:href="#DejaVuSans-31" transform="translate(0 0.684375)"/>
       <use xlink:href="#DejaVuSans-30" transform="translate(63.623047 0.684375)"/>
       <use xlink:href="#DejaVuSans-2212" transform="translate(128.203125 38.965625) scale(0.7)"/>
       <use xlink:href="#DejaVuSans-34" transform="translate(186.855469 38.965625) scale(0.7)"/>
      </g>
     </g>
    </g>
    <g id="ytick_10">
     <g id="line2d_29">
      <g>
       <use xlink:href="#m53c7ee93e6" x="51.8" y="535.936879" style="stroke: #000000; stroke-width: 0.8"/>
      </g>
     </g>
     <g id="text_29">
      <!-- $\mathdefault{10^{-3}}$ -->
      <g transform="translate(21.3 539.736098) scale(0.1 -0.1)">
       <defs>
        <path id="DejaVuSans-33" d="M 2597 2516 
Q 3050 2419 3304 2112 
Q 3559 1806 3559 1356 
Q 3559 666 3084 287 
Q 2609 -91 1734 -91 
Q 1441 -91 1130 -33 
Q 819 25 488 141 
L 488 750 
Q 750 597 1062 519 
Q 1375 441 1716 441 
Q 2309 441 2620 675 
Q 2931 909 2931 1356 
Q 2931 1769 2642 2001 
Q 2353 2234 1838 2234 
L 1294 2234 
L 1294 2753 
L 1863 2753 
Q 2328 2753 2575 2939 
Q 2822 3125 2822 3475 
Q 2822 3834 2567 4026 
Q 2313 4219 1838 4219 
Q 1578 4219 1281 4162 
Q 984 4106 628 3988 
L 628 4550 
Q 988 4650 1302 4700 
Q 1616 4750 1894 4750 
Q 2613 4750 3031 4423 
Q 3450 4097 3450 3541 
Q 3450 3153 3228 2886 
Q 3006 2619 2597 2516 
z
" transform="scale(0.015625)"/>
       </defs>
       <use xlink:href="#DejaVuSans-31" transform="translate(0 0.765625)"/>
       <use xlink:href="#DejaVuSans-30" transform="translate(63.623047 0.765625)"/>
       <use xlink:href="#DejaVuSans-2212" transform="translate(128.203125 39.046875) scale(0.7)"/>
       <use xlink:href="#DejaVuSans-33" transform="translate(186.855469 39.046875) scale(0.7)"/>
      </g>
     </g>
    </g>
    <g id="ytick_11">
     <g id="line2d_30">
      <g>
       <use xlink:href="#m53c7ee93e6" x="51.8" y="493.09542" style="stroke: #000000; stroke-width: 0.8"/>
      </g>
     </g>
     <g id="text_30">
      <!-- $\mathdefault{10^{-2}}$ -->
      <g transform="translate(21.3 496.894639) scale(0.1 -0.1)">
       <use xlink:href="#DejaVuSans-31" transform="translate(0 0.765625)"/>
       <use xlink:href="#DejaVuSans-30" transform="translate(63.623047 0.765625)"/>
       <use xlink:href="#DejaVuSans-2212" transform="translate(128.203125 39.046875) scale(0.7)"/>
       <use xlink:href="#DejaVuSans-32" transform="translate(186.855469 39.046875) scale(0.7)"/>
      </g>
     </g>
    </g>
    <g id="ytick_12">
     <g id="line2d_31">
      <g>
       <use xlink:href="#m53c7ee93e6" x="51.8" y="450.253961" style="stroke: #000000; stroke-width: 0.8"/>
      </g>
     </g>
     <g id="text_31">
      <!-- $\mathdefault{10^{-1}}$ -->
      <g transform="translate(21.3 454.05318) scale(0.1 -0.1)">
       <use xlink:href="#DejaVuSans-31" transform="translate(0 0.684375)"/>
       <use xlink:href="#DejaVuSans-30" transform="translate(63.623047 0.684375)"/>
       <use xlink:href="#DejaVuSans-2212" transform="translate(128.203125 38.965625) scale(0.7)"/>
       <use xlink:href="#DejaVuSans-31" transform="translate(186.855469 38.965625) scale(0.7)"/>
      </g>
     </g>
    </g>
    <g id="ytick_13">
     <g id="line2d_32">
      <g>
       <use xlink:href="#m53c7ee93e6" x="51.8" y="407.412503" style="stroke: #000000; stroke-width: 0.8"/>
      </g>
     </g>
     <g id="text_32">
      <!-- $\mathdefault{10^{0}}$ -->
      <g transform="translate(27.2 411.211721) scale(0.1 -0.1)">
       <use xlink:href="#DejaVuSans-31" transform="translate(0 0.765625)"/>
       <use xlink:href="#DejaVuSans-30" transform="translate(63.623047 0.765625)"/>
       <use xlink:href="#DejaVuSans-30" transform="translate(128.203125 39.046875) scale(0.7)"/>
      </g>
     </g>
    </g>
    <g id="ytick_14">
     <g id="line2d_33">
      <g>
       <use xlink:href="#m53c7ee93e6" x="51.8" y="364.571044" style="stroke: #000000; stroke-width: 0.8"/>
      </g>
     </g>
     <g id="text_33">
      <!-- $\mathdefault{10^{1}}$ -->
      <g transform="translate(27.2 368.370263) scale(0.1 -0.1)">
       <use xlink:href="#DejaVuSans-31" transform="translate(0 0.684375)"/>
       <use xlink:href="#DejaVuSans-30" transform="translate(63.623047 0.684375)"/>
       <use xlink:href="#DejaVuSans-31" transform="translate(128.203125 38.965625) scale(0.7)"/>
      </g>
     </g>
    </g>
    <g id="ytick_15">
     <g id="line2d_34">
      <defs>
       <path id="m9106ec50df" d="M 0 0 
L -2 0 
" style="stroke: #000000; stroke-width: 0.6"/>
      </defs>
      <g>
       <use xlink:href="#m9106ec50df" x="51.8" y="671.097481" style="stroke: #000000; stroke-width: 0.6"/>
      </g>
     </g>
    </g>
    <g id="ytick_16">
     <g id="line2d_35">
      <g>
       <use xlink:href="#m9106ec50df" x="51.8" y="668.613022" style="stroke: #000000; stroke-width: 0.6"/>
      </g>
     </g>
    </g>
    <g id="ytick_17">
     <g id="line2d_36">
      <g>
       <use xlink:href="#m9106ec50df" x="51.8" y="666.421573" style="stroke: #000000; stroke-width: 0.6"/>
      </g>
     </g>
    </g>
    <g id="ytick_18">
     <g id="line2d_37">
      <g>
       <use xlink:href="#m9106ec50df" x="51.8" y="651.564691" style="stroke: #000000; stroke-width: 0.6"/>
      </g>
     </g>
    </g>
    <g id="ytick_19">
     <g id="line2d_38">
      <g>
       <use xlink:href="#m9106ec50df" x="51.8" y="644.020685" style="stroke: #000000; stroke-width: 0.6"/>
      </g>
     </g>
    </g>
    <g id="ytick_20">
     <g id="line2d_39">
      <g>
       <use xlink:href="#m9106ec50df" x="51.8" y="638.668127" style="stroke: #000000; stroke-width: 0.6"/>
      </g>
     </g>
    </g>
    <g id="ytick_21">
     <g id="line2d_40">
      <g>
       <use xlink:href="#m9106ec50df" x="51.8" y="634.516361" style="stroke: #000000; stroke-width: 0.6"/>
      </g>
     </g>
    </g>
    <g id="ytick_22">
     <g id="line2d_41">
      <g>
       <use xlink:href="#m9106ec50df" x="51.8" y="631.124121" style="stroke: #000000; stroke-width: 0.6"/>
      </g>
     </g>
    </g>
    <g id="ytick_23">
     <g id="line2d_42">
      <g>
       <use xlink:href="#m9106ec50df" x="51.8" y="628.256022" style="stroke: #000000; stroke-width: 0.6"/>
      </g>
     </g>
    </g>
    <g id="ytick_24">
     <g id="line2d_43">
      <g>
       <use xlink:href="#m9106ec50df" x="51.8" y="625.771563" style="stroke: #000000; stroke-width: 0.6"/>
      </g>
     </g>
    </g>
    <g id="ytick_25">
     <g id="line2d_44">
      <g>
       <use xlink:href="#m9106ec50df" x="51.8" y="623.580114" style="stroke: #000000; stroke-width: 0.6"/>
      </g>
     </g>
    </g>
    <g id="ytick_26">
     <g id="line2d_45">
      <g>
       <use xlink:href="#m9106ec50df" x="51.8" y="608.723232" style="stroke: #000000; stroke-width: 0.6"/>
      </g>
     </g>
    </g>
    <g id="ytick_27">
     <g id="line2d_46">
      <g>
       <use xlink:href="#m9106ec50df" x="51.8" y="601.179226" style="stroke: #000000; stroke-width: 0.6"/>
      </g>
     </g>
    </g>
    <g id="ytick_28">
     <g id="line2d_47">
      <g>
       <use xlink:href="#m9106ec50df" x="51.8" y="595.826668" style="stroke: #000000; stroke-width: 0.6"/>
      </g>
     </g>
    </g>
    <g id="ytick_29">
     <g id="line2d_48">
      <g>
       <use xlink:href="#m9106ec50df" x="51.8" y="591.674902" style="stroke: #000000; stroke-width: 0.6"/>
      </g>
     </g>
    </g>
    <g id="ytick_30">
     <g id="line2d_49">
      <g>
       <use xlink:href="#m9106ec50df" x="51.8" y="588.282662" style="stroke: #000000; stroke-width: 0.6"/>
      </g>
     </g>
    </g>
    <g id="ytick_31">
     <g id="line2d_50">
      <g>
       <use xlink:href="#m9106ec50df" x="51.8" y="585.414564" style="stroke: #000000; stroke-width: 0.6"/>
      </g>
     </g>
    </g>
    <g id="ytick_32">
     <g id="line2d_51">
      <g>
       <use xlink:href="#m9106ec50df" x="51.8" y="582.930104" style="stroke: #000000; stroke-width: 0.6"/>
      </g>
     </g>
    </g>
    <g id="ytick_33">
     <g id="line2d_52">
      <g>
       <use xlink:href="#m9106ec50df" x="51.8" y="580.738655" style="stroke: #000000; stroke-width: 0.6"/>
      </g>
     </g>
    </g>
    <g id="ytick_34">
     <g id="line2d_53">
      <g>
       <use xlink:href="#m9106ec50df" x="51.8" y="565.881774" style="stroke: #000000; stroke-width: 0.6"/>
      </g>
     </g>
    </g>
    <g id="ytick_35">
     <g id="line2d_54">
      <g>
       <use xlink:href="#m9106ec50df" x="51.8" y="558.337767" style="stroke: #000000; stroke-width: 0.6"/>
      </g>
     </g>
    </g>
    <g id="ytick_36">
     <g id="line2d_55">
      <g>
       <use xlink:href="#m9106ec50df" x="51.8" y="552.985209" style="stroke: #000000; stroke-width: 0.6"/>
      </g>
     </g>
    </g>
    <g id="ytick_37">
     <g id="line2d_56">
      <g>
       <use xlink:href="#m9106ec50df" x="51.8" y="548.833443" style="stroke: #000000; stroke-width: 0.6"/>
      </g>
     </g>
    </g>
    <g id="ytick_38">
     <g id="line2d_57">
      <g>
       <use xlink:href="#m9106ec50df" x="51.8" y="545.441203" style="stroke: #000000; stroke-width: 0.6"/>
      </g>
     </g>
    </g>
    <g id="ytick_39">
     <g id="line2d_58">
      <g>
       <use xlink:href="#m9106ec50df" x="51.8" y="542.573105" style="stroke: #000000; stroke-width: 0.6"/>
      </g>
     </g>
    </g>
    <g id="ytick_40">
     <g id="line2d_59">
      <g>
       <use xlink:href="#m9106ec50df" x="51.8" y="540.088645" style="stroke: #000000; stroke-width: 0.6"/>
      </g>
     </g>
    </g>
    <g id="ytick_41">
     <g id="line2d_60">
      <g>
       <use xlink:href="#m9106ec50df" x="51.8" y="537.897197" style="stroke: #000000; stroke-width: 0.6"/>
      </g>
     </g>
    </g>
    <g id="ytick_42">
     <g id="line2d_61">
      <g>
       <use xlink:href="#m9106ec50df" x="51.8" y="523.040315" style="stroke: #000000; stroke-width: 0.6"/>
      </g>
     </g>
    </g>
    <g id="ytick_43">
     <g id="line2d_62">
      <g>
       <use xlink:href="#m9106ec50df" x="51.8" y="515.496308" style="stroke: #000000; stroke-width: 0.6"/>
      </g>
     </g>
    </g>
    <g id="ytick_44">
     <g id="line2d_63">
      <g>
       <use xlink:href="#m9106ec50df" x="51.8" y="510.143751" style="stroke: #000000; stroke-width: 0.6"/>
      </g>
     </g>
    </g>
    <g id="ytick_45">
     <g id="line2d_64">
      <g>
       <use xlink:href="#m9106ec50df" x="51.8" y="505.991984" style="stroke: #000000; stroke-width: 0.6"/>
      </g>
     </g>
    </g>
    <g id="ytick_46">
     <g id="line2d_65">
      <g>
       <use xlink:href="#m9106ec50df" x="51.8" y="502.599744" style="stroke: #000000; stroke-width: 0.6"/>
      </g>
     </g>
    </g>
    <g id="ytick_47">
     <g id="line2d_66">
      <g>
       <use xlink:href="#m9106ec50df" x="51.8" y="499.731646" style="stroke: #000000; stroke-width: 0.6"/>
      </g>
     </g>
    </g>
    <g id="ytick_48">
     <g id="line2d_67">
      <g>
       <use xlink:href="#m9106ec50df" x="51.8" y="497.247186" style="stroke: #000000; stroke-width: 0.6"/>
      </g>
     </g>
    </g>
    <g id="ytick_49">
     <g id="line2d_68">
      <g>
       <use xlink:href="#m9106ec50df" x="51.8" y="495.055738" style="stroke: #000000; stroke-width: 0.6"/>
      </g>
     </g>
    </g>
    <g id="ytick_50">
     <g id="line2d_69">
      <g>
       <use xlink:href="#m9106ec50df" x="51.8" y="480.198856" style="stroke: #000000; stroke-width: 0.6"/>
      </g>
     </g>
    </g>
    <g id="ytick_51">
     <g id="line2d_70">
      <g>
       <use xlink:href="#m9106ec50df" x="51.8" y="472.65485" style="stroke: #000000; stroke-width: 0.6"/>
      </g>
     </g>
    </g>
    <g id="ytick_52">
     <g id="line2d_71">
      <g>
       <use xlink:href="#m9106ec50df" x="51.8" y="467.302292" style="stroke: #000000; stroke-width: 0.6"/>
      </g>
     </g>
    </g>
    <g id="ytick_53">
     <g id="line2d_72">
      <g>
       <use xlink:href="#m9106ec50df" x="51.8" y="463.150526" style="stroke: #000000; stroke-width: 0.6"/>
      </g>
     </g>
    </g>
    <g id="ytick_54">
     <g id="line2d_73">
      <g>
       <use xlink:href="#m9106ec50df" x="51.8" y="459.758285" style="stroke: #000000; stroke-width: 0.6"/>
      </g>
     </g>
    </g>
    <g id="ytick_55">
     <g id="line2d_74">
      <g>
       <use xlink:href="#m9106ec50df" x="51.8" y="456.890187" style="stroke: #000000; stroke-width: 0.6"/>
      </g>
     </g>
    </g>
    <g id="ytick_56">
     <g id="line2d_75">
      <g>
       <use xlink:href="#m9106ec50df" x="51.8" y="454.405728" style="stroke: #000000; stroke-width: 0.6"/>
      </g>
     </g>
    </g>
    <g id="ytick_57">
     <g id="line2d_76">
      <g>
       <use xlink:href="#m9106ec50df" x="51.8" y="452.214279" style="stroke: #000000; stroke-width: 0.6"/>
      </g>
     </g>
    </g>
    <g id="ytick_58">
     <g id="line2d_77">
      <g>
       <use xlink:href="#m9106ec50df" x="51.8" y="437.357397" style="stroke: #000000; stroke-width: 0.6"/>
      </g>
     </g>
    </g>
    <g id="ytick_59">
     <g id="line2d_78">
      <g>
       <use xlink:href="#m9106ec50df" x="51.8" y="429.813391" style="stroke: #000000; stroke-width: 0.6"/>
      </g>
     </g>
    </g>
    <g id="ytick_60">
     <g id="line2d_79">
      <g>
       <use xlink:href="#m9106ec50df" x="51.8" y="424.460833" style="stroke: #000000; stroke-width: 0.6"/>
      </g>
     </g>
    </g>
    <g id="ytick_61">
     <g id="line2d_80">
      <g>
       <use xlink:href="#m9106ec50df" x="51.8" y="420.309067" style="stroke: #000000; stroke-width: 0.6"/>
      </g>
     </g>
    </g>
    <g id="ytick_62">
     <g id="line2d_81">
      <g>
       <use xlink:href="#m9106ec50df" x="51.8" y="416.916827" style="stroke: #000000; stroke-width: 0.6"/>
      </g>
     </g>
    </g>
    <g id="ytick_63">
     <g id="line2d_82">
      <g>
       <use xlink:href="#m9106ec50df" x="51.8" y="414.048729" style="stroke: #000000; stroke-width: 0.6"/>
      </g>
     </g>
    </g>
    <g id="ytick_64">
     <g id="line2d_83">
      <g>
       <use xlink:href="#m9106ec50df" x="51.8" y="411.564269" style="stroke: #000000; stroke-width: 0.6"/>
      </g>
     </g>
    </g>
    <g id="ytick_65">
     <g id="line2d_84">
      <g>
       <use xlink:href="#m9106ec50df" x="51.8" y="409.37282" style="stroke: #000000; stroke-width: 0.6"/>
      </g>
     </g>
    </g>
    <g id="ytick_66">
     <g id="line2d_85">
      <g>
       <use xlink:href="#m9106ec50df" x="51.8" y="394.515938" style="stroke: #000000; stroke-width: 0.6"/>
      </g>
     </g>
    </g>
    <g id="ytick_67">
     <g id="line2d_86">
      <g>
       <use xlink:href="#m9106ec50df" x="51.8" y="386.971932" style="stroke: #000000; stroke-width: 0.6"/>
      </g>
     </g>
    </g>
    <g id="ytick_68">
     <g id="line2d_87">
      <g>
       <use xlink:href="#m9106ec50df" x="51.8" y="381.619374" style="stroke: #000000; stroke-width: 0.6"/>
      </g>
     </g>
    </g>
    <g id="ytick_69">
     <g id="line2d_88">
      <g>
       <use xlink:href="#m9106ec50df" x="51.8" y="377.467608" style="stroke: #000000; stroke-width: 0.6"/>
      </g>
     </g>
    </g>
    <g id="ytick_70">
     <g id="line2d_89">
      <g>
       <use xlink:href="#m9106ec50df" x="51.8" y="374.075368" style="stroke: #000000; stroke-width: 0.6"/>
      </g>
     </g>
    </g>
    <g id="ytick_71">
     <g id="line2d_90">
      <g>
       <use xlink:href="#m9106ec50df" x="51.8" y="371.20727" style="stroke: #000000; stroke-width: 0.6"/>
      </g>
     </g>
    </g>
    <g id="ytick_72">
     <g id="line2d_91">
      <g>
       <use xlink:href="#m9106ec50df" x="51.8" y="368.72281" style="stroke: #000000; stroke-width: 0.6"/>
      </g>
     </g>
    </g>
    <g id="ytick_73">
     <g id="line2d_92">
      <g>
       <use xlink:href="#m9106ec50df" x="51.8" y="366.531361" style="stroke: #000000; stroke-width: 0.6"/>
      </g>
     </g>
    </g>
    <g id="text_34">
     <!-- $|$Error$|_2$ -->
     <g transform="translate(14.9 537.09907) rotate(-90) scale(0.1 -0.1)">
      <defs>
       <path id="DejaVuSans-7c" d="M 1344 4891 
L 1344 -1509 
L 813 -1509 
L 813 4891 
L 1344 4891 
z
" transform="scale(0.015625)"/>
       <path id="DejaVuSans-45" d="M 628 4666 
L 3578 4666 
L 3578 4134 
L 1259 4134 
L 1259 2753 
L 3481 2753 
L 3481 2222 
L 1259 2222 
L 1259 531 
L 3634 531 
L 3634 0 
L 628 0 
L 628 4666 
z
" transform="scale(0.015625)"/>
       <path id="DejaVuSans-6f" d="M 1959 3097 
Q 1497 3097 1228 2736 
Q 959 2375 959 1747 
Q 959 1119 1226 758 
Q 1494 397 1959 397 
Q 2419 397 2687 759 
Q 2956 1122 2956 1747 
Q 2956 2369 2687 2733 
Q 2419 3097 1959 3097 
z
M 1959 3584 
Q 2709 3584 3137 3096 
Q 3566 2609 3566 1747 
Q 3566 888 3137 398 
Q 2709 -91 1959 -91 
Q 1206 -91 779 398 
Q 353 888 353 1747 
Q 353 2609 779 3096 
Q 1206 3584 1959 3584 
z
" transform="scale(0.015625)"/>
      </defs>
      <use xlink:href="#DejaVuSans-7c" transform="translate(0 0.578125)"/>
      <use xlink:href="#DejaVuSans-45" transform="translate(33.691406 0.578125)"/>
      <use xlink:href="#DejaVuSans-72" transform="translate(96.875 0.578125)"/>
      <use xlink:href="#DejaVuSans-72" transform="translate(137.988281 0.578125)"/>
      <use xlink:href="#DejaVuSans-6f" transform="translate(179.101562 0.578125)"/>
      <use xlink:href="#DejaVuSans-72" transform="translate(240.283203 0.578125)"/>
      <use xlink:href="#DejaVuSans-7c" transform="translate(281.396484 0.578125)"/>
      <use xlink:href="#DejaVuSans-32" transform="translate(316.044922 -15.828125) scale(0.7)"/>
     </g>
    </g>
   </g>
   <g id="line2d_93">
    <defs>
     <path id="mf54b70ca08" d="M -3 3 
L 3 -3 
M -3 -3 
L 3 3 
" style="stroke: #000000"/>
    </defs>
    <g clip-path="url(#p27ac81885f)">
     <use xlink:href="#mf54b70ca08" x="67.878" y="389.258183" style="stroke: #000000"/>
     <use xlink:href="#mf54b70ca08" x="121.471332" y="420.939911" style="stroke: #000000"/>
     <use xlink:href="#mf54b70ca08" x="175.064664" y="463.04921" style="stroke: #000000"/>
     <use xlink:href="#mf54b70ca08" x="228.657996" y="509.580061" style="stroke: #000000"/>
     <use xlink:href="#mf54b70ca08" x="282.251328" y="558.698895" style="stroke: #000000"/>
     <use xlink:href="#mf54b70ca08" x="335.84466" y="609.55281" style="stroke: #000000"/>
     <use xlink:href="#mf54b70ca08" x="389.437992" y="659.536279" style="stroke: #000000"/>
    </g>
   </g>
   <g id="line2d_94">
    <path d="M 67.878 389.258183 
L 121.471332 396.802189 
L 175.064664 402.154747 
L 228.657996 406.306513 
L 282.251328 409.698754 
L 335.84466 412.566852 
L 389.437992 415.051311 
" clip-path="url(#p27ac81885f)" style="fill: none; stroke-dasharray: 5.55,2.4; stroke-dashoffset: 0; stroke: #ff0000; stroke-width: 1.5"/>
   </g>
   <g id="line2d_95">
    <path d="M 67.878 389.258183 
L 121.471332 404.346196 
L 175.064664 415.051311 
L 228.657996 423.354844 
L 282.251328 430.139324 
L 335.84466 435.87552 
L 389.437992 440.84444 
" clip-path="url(#p27ac81885f)" style="fill: none; stroke-dasharray: 5.55,2.4; stroke-dashoffset: 0; stroke: #008000; stroke-width: 1.5"/>
   </g>
   <g id="line2d_96">
    <path d="M 67.878 378.26186 
L 121.471332 424.108638 
L 175.064664 469.955415 
L 228.657996 515.802193 
L 282.251328 561.64897 
L 335.84466 607.495748 
L 389.437992 653.342525 
" clip-path="url(#p27ac81885f)" style="fill: none; stroke-dasharray: 5.55,2.4; stroke-dashoffset: 0; stroke: #0000ff; stroke-width: 1.5"/>
   </g>
   <g id="patch_9">
    <path d="M 51.8 673.6 
L 51.8 364.198139 
" style="fill: none; stroke: #000000; stroke-width: 0.8; stroke-linejoin: miter; stroke-linecap: square"/>
   </g>
   <g id="patch_10">
    <path d="M 405.515992 673.6 
L 405.515992 364.198139 
" style="fill: none; stroke: #000000; stroke-width: 0.8; stroke-linejoin: miter; stroke-linecap: square"/>
   </g>
   <g id="patch_11">
    <path d="M 51.8 673.6 
L 405.515992 673.6 
" style="fill: none; stroke: #000000; stroke-width: 0.8; stroke-linejoin: miter; stroke-linecap: square"/>
   </g>
   <g id="patch_12">
    <path d="M 51.8 364.198139 
L 405.515992 364.198139 
" style="fill: none; stroke: #000000; stroke-width: 0.8; stroke-linejoin: miter; stroke-linecap: square"/>
   </g>
   <g id="legend_2">
    <g id="patch_13">
     <path d="M 58.8 668.6 
L 139.2 668.6 
Q 141.2 668.6 141.2 666.6 
L 141.2 606.521875 
Q 141.2 604.521875 139.2 604.521875 
L 58.8 604.521875 
Q 56.8 604.521875 56.8 606.521875 
L 56.8 666.6 
Q 56.8 668.6 58.8 668.6 
z
" style="fill: #ffffff; opacity: 0.8; stroke: #cccccc; stroke-linejoin: miter"/>
    </g>
    <g id="line2d_97">
     <g>
      <use xlink:href="#mf54b70ca08" x="70.8" y="612.620312" style="stroke: #000000"/>
     </g>
    </g>
    <g id="text_35">
     <!-- Errors -->
     <g transform="translate(88.8 616.120312) scale(0.1 -0.1)">
      <defs>
       <path id="DejaVuSans-73" d="M 2834 3397 
L 2834 2853 
Q 2591 2978 2328 3040 
Q 2066 3103 1784 3103 
Q 1356 3103 1142 2972 
Q 928 2841 928 2578 
Q 928 2378 1081 2264 
Q 1234 2150 1697 2047 
L 1894 2003 
Q 2506 1872 2764 1633 
Q 3022 1394 3022 966 
Q 3022 478 2636 193 
Q 2250 -91 1575 -91 
Q 1294 -91 989 -36 
Q 684 19 347 128 
L 347 722 
Q 666 556 975 473 
Q 1284 391 1588 391 
Q 1994 391 2212 530 
Q 2431 669 2431 922 
Q 2431 1156 2273 1281 
Q 2116 1406 1581 1522 
L 1381 1569 
Q 847 1681 609 1914 
Q 372 2147 372 2553 
Q 372 3047 722 3315 
Q 1072 3584 1716 3584 
Q 2034 3584 2315 3537 
Q 2597 3491 2834 3397 
z
" transform="scale(0.015625)"/>
      </defs>
      <use xlink:href="#DejaVuSans-45"/>
      <use xlink:href="#DejaVuSans-72" x="63.183594"/>
      <use xlink:href="#DejaVuSans-72" x="102.546875"/>
      <use xlink:href="#DejaVuSans-6f" x="141.410156"/>
      <use xlink:href="#DejaVuSans-72" x="202.591797"/>
      <use xlink:href="#DejaVuSans-73" x="243.705078"/>
     </g>
    </g>
    <g id="line2d_98">
     <path d="M 60.8 628.020313 
L 70.8 628.020313 
L 80.8 628.020313 
" style="fill: none; stroke-dasharray: 5.55,2.4; stroke-dashoffset: 0; stroke: #ff0000; stroke-width: 1.5"/>
    </g>
    <g id="text_36">
     <!-- $\mathcal{O}(N^{-1})$ -->
     <g transform="translate(88.8 631.520313) scale(0.1 -0.1)">
      <defs>
       <path id="STIXNonUnicode-Italic-e23b" d="M 2304 4237 
L 2342 4090 
Q 1773 3923 1350 3158 
Q 928 2394 928 1472 
Q 928 838 1216 515 
Q 1504 192 1984 192 
Q 2349 192 2739 435 
Q 3130 678 3430 1101 
Q 3968 1862 3968 2944 
Q 3968 3398 3744 3660 
Q 3520 3923 3219 3923 
Q 2918 3923 2691 3728 
Q 2464 3533 2464 3232 
Q 2464 2995 2694 2995 
Q 2714 2995 2784 3011 
Q 2854 3027 2918 3027 
Q 3104 3027 3104 2816 
Q 3104 2637 2944 2496 
Q 2784 2355 2592 2355 
Q 2323 2355 2179 2534 
Q 2035 2714 2035 2995 
Q 2035 3475 2505 3878 
Q 2976 4282 3571 4282 
Q 4096 4282 4381 3882 
Q 4666 3482 4666 2938 
Q 4666 2400 4422 1837 
Q 4179 1274 3808 877 
Q 2931 -64 1754 -64 
Q 1101 -64 672 304 
Q 243 672 243 1363 
Q 243 1933 435 2457 
Q 627 2982 931 3347 
Q 1235 3712 1596 3949 
Q 1958 4186 2304 4237 
z
" transform="scale(0.015625)"/>
       <path id="DejaVuSans-28" d="M 1984 4856 
Q 1566 4138 1362 3434 
Q 1159 2731 1159 2009 
Q 1159 1288 1364 580 
Q 1569 -128 1984 -844 
L 1484 -844 
Q 1016 -109 783 600 
Q 550 1309 550 2009 
Q 550 2706 781 3412 
Q 1013 4119 1484 4856 
L 1984 4856 
z
" transform="scale(0.015625)"/>
       <path id="DejaVuSans-29" d="M 513 4856 
L 1013 4856 
Q 1481 4119 1714 3412 
Q 1947 2706 1947 2009 
Q 1947 1309 1714 600 
Q 1481 -109 1013 -844 
L 513 -844 
Q 928 -128 1133 580 
Q 1338 1288 1338 2009 
Q 1338 2731 1133 3434 
Q 928 4138 513 4856 
z
" transform="scale(0.015625)"/>
      </defs>
      <use xlink:href="#STIXNonUnicode-Italic-e23b" transform="translate(0 0.684375)"/>
      <use xlink:href="#DejaVuSans-28" transform="translate(73.699982 0.684375)"/>
      <use xlink:href="#DejaVuSans-Oblique-4e" transform="translate(112.713654 0.684375)"/>
      <use xlink:href="#DejaVuSans-2212" transform="translate(194.535112 38.965625) scale(0.7)"/>
      <use xlink:href="#DejaVuSans-31" transform="translate(253.187456 38.965625) scale(0.7)"/>
      <use xlink:href="#DejaVuSans-29" transform="translate(300.457963 0.684375)"/>
     </g>
    </g>
    <g id="line2d_99">
     <path d="M 60.8 643.520313 
L 70.8 643.520313 
L 80.8 643.520313 
" style="fill: none; stroke-dasharray: 5.55,2.4; stroke-dashoffset: 0; stroke: #008000; stroke-width: 1.5"/>
    </g>
    <g id="text_37">
     <!-- $\mathcal{O}(N^{-2})$ -->
     <g transform="translate(88.8 647.020313) scale(0.1 -0.1)">
      <use xlink:href="#STIXNonUnicode-Italic-e23b" transform="translate(0 0.765625)"/>
      <use xlink:href="#DejaVuSans-28" transform="translate(73.699982 0.765625)"/>
      <use xlink:href="#DejaVuSans-Oblique-4e" transform="translate(112.713654 0.765625)"/>
      <use xlink:href="#DejaVuSans-2212" transform="translate(194.535112 39.046875) scale(0.7)"/>
      <use xlink:href="#DejaVuSans-32" transform="translate(253.187456 39.046875) scale(0.7)"/>
      <use xlink:href="#DejaVuSans-29" transform="translate(300.457963 0.765625)"/>
     </g>
    </g>
    <g id="line2d_100">
     <path d="M 60.8 659.020313 
L 70.8 659.020313 
L 80.8 659.020313 
" style="fill: none; stroke-dasharray: 5.55,2.4; stroke-dashoffset: 0; stroke: #0000ff; stroke-width: 1.5"/>
    </g>
    <g id="text_38">
     <!-- $\mathcal{O}(e^{-1.23 N})$ -->
     <g transform="translate(88.8 662.520313) scale(0.1 -0.1)">
      <defs>
       <path id="DejaVuSans-Oblique-65" d="M 3078 2063 
Q 3088 2113 3092 2166 
Q 3097 2219 3097 2272 
Q 3097 2653 2873 2875 
Q 2650 3097 2266 3097 
Q 1838 3097 1509 2826 
Q 1181 2556 1013 2059 
L 3078 2063 
z
M 3578 1613 
L 903 1613 
Q 884 1494 878 1425 
Q 872 1356 872 1306 
Q 872 872 1139 634 
Q 1406 397 1894 397 
Q 2269 397 2603 481 
Q 2938 566 3225 728 
L 3116 159 
Q 2806 34 2476 -28 
Q 2147 -91 1806 -91 
Q 1078 -91 686 257 
Q 294 606 294 1247 
Q 294 1794 489 2264 
Q 684 2734 1063 3103 
Q 1306 3334 1642 3459 
Q 1978 3584 2356 3584 
Q 2950 3584 3301 3228 
Q 3653 2872 3653 2272 
Q 3653 2128 3634 1964 
Q 3616 1800 3578 1613 
z
" transform="scale(0.015625)"/>
      </defs>
      <use xlink:href="#STIXNonUnicode-Italic-e23b" transform="translate(0 0.765625)"/>
      <use xlink:href="#DejaVuSans-28" transform="translate(73.699982 0.765625)"/>
      <use xlink:href="#DejaVuSans-Oblique-65" transform="translate(112.713654 0.765625)"/>
      <use xlink:href="#DejaVuSans-2212" transform="translate(178.886987 39.046875) scale(0.7)"/>
      <use xlink:href="#DejaVuSans-31" transform="translate(237.539331 39.046875) scale(0.7)"/>
      <use xlink:href="#DejaVuSans-2e" transform="translate(282.075463 39.046875) scale(0.7)"/>
      <use xlink:href="#DejaVuSans-32" transform="translate(300.47644 39.046875) scale(0.7)"/>
      <use xlink:href="#DejaVuSans-33" transform="translate(345.012573 39.046875) scale(0.7)"/>
      <use xlink:href="#DejaVuSans-Oblique-4e" transform="translate(389.548706 39.046875) scale(0.7)"/>
      <use xlink:href="#DejaVuSans-29" transform="translate(444.646362 0.765625)"/>
     </g>
    </g>
   </g>
  </g>
 </g>
 <defs>
  <clipPath id="p801934113e">
   <rect x="51.8" y="7.2" width="353.715992" height="309.401861"/>
  </clipPath>
  <clipPath id="p27ac81885f">
   <rect x="51.8" y="364.198139" width="353.715992" height="309.401861"/>
  </clipPath>
 </defs>
</svg>
